%TF.GenerationSoftware,KiCad,Pcbnew,(6.0.2-0)*%
%TF.CreationDate,2022-03-31T18:09:35+02:00*%
%TF.ProjectId,Shield_Capteur ,53686965-6c64-45f4-9361-707465757220,rev?*%
%TF.SameCoordinates,Original*%
%TF.FileFunction,Legend,Top*%
%TF.FilePolarity,Positive*%
%FSLAX46Y46*%
G04 Gerber Fmt 4.6, Leading zero omitted, Abs format (unit mm)*
G04 Created by KiCad (PCBNEW (6.0.2-0)) date 2022-03-31 18:09:35*
%MOMM*%
%LPD*%
G01*
G04 APERTURE LIST*
%ADD10C,0.150000*%
%ADD11C,0.120000*%
%ADD12O,2.000000X2.500000*%
%ADD13C,4.064000*%
G04 APERTURE END LIST*
D10*
X139390380Y-120999285D02*
X139390380Y-121570714D01*
X139390380Y-121285000D02*
X138390380Y-121285000D01*
X138533238Y-121380238D01*
X138628476Y-121475476D01*
X138676095Y-121570714D01*
%TO.C,P1*%
X147089904Y-121737380D02*
X147089904Y-120737380D01*
X147470857Y-120737380D01*
X147566095Y-120785000D01*
X147613714Y-120832619D01*
X147661333Y-120927857D01*
X147661333Y-121070714D01*
X147613714Y-121165952D01*
X147566095Y-121213571D01*
X147470857Y-121261190D01*
X147089904Y-121261190D01*
X148613714Y-121737380D02*
X148042285Y-121737380D01*
X148328000Y-121737380D02*
X148328000Y-120737380D01*
X148232761Y-120880238D01*
X148137523Y-120975476D01*
X148042285Y-121023095D01*
%TO.C,P2*%
X167663904Y-121737380D02*
X167663904Y-120737380D01*
X168044857Y-120737380D01*
X168140095Y-120785000D01*
X168187714Y-120832619D01*
X168235333Y-120927857D01*
X168235333Y-121070714D01*
X168187714Y-121165952D01*
X168140095Y-121213571D01*
X168044857Y-121261190D01*
X167663904Y-121261190D01*
X168616285Y-120832619D02*
X168663904Y-120785000D01*
X168759142Y-120737380D01*
X168997238Y-120737380D01*
X169092476Y-120785000D01*
X169140095Y-120832619D01*
X169187714Y-120927857D01*
X169187714Y-121023095D01*
X169140095Y-121165952D01*
X168568666Y-121737380D01*
X169187714Y-121737380D01*
%TO.C,P3*%
X140485904Y-78811380D02*
X140485904Y-77811380D01*
X140866857Y-77811380D01*
X140962095Y-77859000D01*
X141009714Y-77906619D01*
X141057333Y-78001857D01*
X141057333Y-78144714D01*
X141009714Y-78239952D01*
X140962095Y-78287571D01*
X140866857Y-78335190D01*
X140485904Y-78335190D01*
X141390666Y-77811380D02*
X142009714Y-77811380D01*
X141676380Y-78192333D01*
X141819238Y-78192333D01*
X141914476Y-78239952D01*
X141962095Y-78287571D01*
X142009714Y-78382809D01*
X142009714Y-78620904D01*
X141962095Y-78716142D01*
X141914476Y-78763761D01*
X141819238Y-78811380D01*
X141533523Y-78811380D01*
X141438285Y-78763761D01*
X141390666Y-78716142D01*
%TO.C,P4*%
X164869904Y-78811380D02*
X164869904Y-77811380D01*
X165250857Y-77811380D01*
X165346095Y-77859000D01*
X165393714Y-77906619D01*
X165441333Y-78001857D01*
X165441333Y-78144714D01*
X165393714Y-78239952D01*
X165346095Y-78287571D01*
X165250857Y-78335190D01*
X164869904Y-78335190D01*
X166298476Y-78144714D02*
X166298476Y-78811380D01*
X166060380Y-77763761D02*
X165822285Y-78478047D01*
X166441333Y-78478047D01*
%TO.C,C3*%
X148356333Y-82472142D02*
X148308714Y-82519761D01*
X148165857Y-82567380D01*
X148070619Y-82567380D01*
X147927761Y-82519761D01*
X147832523Y-82424523D01*
X147784904Y-82329285D01*
X147737285Y-82138809D01*
X147737285Y-81995952D01*
X147784904Y-81805476D01*
X147832523Y-81710238D01*
X147927761Y-81615000D01*
X148070619Y-81567380D01*
X148165857Y-81567380D01*
X148308714Y-81615000D01*
X148356333Y-81662619D01*
X148689666Y-81567380D02*
X149308714Y-81567380D01*
X148975380Y-81948333D01*
X149118238Y-81948333D01*
X149213476Y-81995952D01*
X149261095Y-82043571D01*
X149308714Y-82138809D01*
X149308714Y-82376904D01*
X149261095Y-82472142D01*
X149213476Y-82519761D01*
X149118238Y-82567380D01*
X148832523Y-82567380D01*
X148737285Y-82519761D01*
X148689666Y-82472142D01*
%TO.C,R3*%
X130448333Y-117697380D02*
X130115000Y-117221190D01*
X129876904Y-117697380D02*
X129876904Y-116697380D01*
X130257857Y-116697380D01*
X130353095Y-116745000D01*
X130400714Y-116792619D01*
X130448333Y-116887857D01*
X130448333Y-117030714D01*
X130400714Y-117125952D01*
X130353095Y-117173571D01*
X130257857Y-117221190D01*
X129876904Y-117221190D01*
X130781666Y-116697380D02*
X131400714Y-116697380D01*
X131067380Y-117078333D01*
X131210238Y-117078333D01*
X131305476Y-117125952D01*
X131353095Y-117173571D01*
X131400714Y-117268809D01*
X131400714Y-117506904D01*
X131353095Y-117602142D01*
X131305476Y-117649761D01*
X131210238Y-117697380D01*
X130924523Y-117697380D01*
X130829285Y-117649761D01*
X130781666Y-117602142D01*
%TO.C,C4*%
X131958333Y-123457142D02*
X131910714Y-123504761D01*
X131767857Y-123552380D01*
X131672619Y-123552380D01*
X131529761Y-123504761D01*
X131434523Y-123409523D01*
X131386904Y-123314285D01*
X131339285Y-123123809D01*
X131339285Y-122980952D01*
X131386904Y-122790476D01*
X131434523Y-122695238D01*
X131529761Y-122600000D01*
X131672619Y-122552380D01*
X131767857Y-122552380D01*
X131910714Y-122600000D01*
X131958333Y-122647619D01*
X132815476Y-122885714D02*
X132815476Y-123552380D01*
X132577380Y-122504761D02*
X132339285Y-123219047D01*
X132958333Y-123219047D01*
%TO.C,U3*%
X132511095Y-81447380D02*
X132511095Y-82256904D01*
X132558714Y-82352142D01*
X132606333Y-82399761D01*
X132701571Y-82447380D01*
X132892047Y-82447380D01*
X132987285Y-82399761D01*
X133034904Y-82352142D01*
X133082523Y-82256904D01*
X133082523Y-81447380D01*
X133463476Y-81447380D02*
X134082523Y-81447380D01*
X133749190Y-81828333D01*
X133892047Y-81828333D01*
X133987285Y-81875952D01*
X134034904Y-81923571D01*
X134082523Y-82018809D01*
X134082523Y-82256904D01*
X134034904Y-82352142D01*
X133987285Y-82399761D01*
X133892047Y-82447380D01*
X133606333Y-82447380D01*
X133511095Y-82399761D01*
X133463476Y-82352142D01*
%TO.C,R2*%
X130258333Y-113822380D02*
X129925000Y-113346190D01*
X129686904Y-113822380D02*
X129686904Y-112822380D01*
X130067857Y-112822380D01*
X130163095Y-112870000D01*
X130210714Y-112917619D01*
X130258333Y-113012857D01*
X130258333Y-113155714D01*
X130210714Y-113250952D01*
X130163095Y-113298571D01*
X130067857Y-113346190D01*
X129686904Y-113346190D01*
X130639285Y-112917619D02*
X130686904Y-112870000D01*
X130782142Y-112822380D01*
X131020238Y-112822380D01*
X131115476Y-112870000D01*
X131163095Y-112917619D01*
X131210714Y-113012857D01*
X131210714Y-113108095D01*
X131163095Y-113250952D01*
X130591666Y-113822380D01*
X131210714Y-113822380D01*
%TO.C,R5*%
X120971333Y-101812380D02*
X120638000Y-101336190D01*
X120399904Y-101812380D02*
X120399904Y-100812380D01*
X120780857Y-100812380D01*
X120876095Y-100860000D01*
X120923714Y-100907619D01*
X120971333Y-101002857D01*
X120971333Y-101145714D01*
X120923714Y-101240952D01*
X120876095Y-101288571D01*
X120780857Y-101336190D01*
X120399904Y-101336190D01*
X121876095Y-100812380D02*
X121399904Y-100812380D01*
X121352285Y-101288571D01*
X121399904Y-101240952D01*
X121495142Y-101193333D01*
X121733238Y-101193333D01*
X121828476Y-101240952D01*
X121876095Y-101288571D01*
X121923714Y-101383809D01*
X121923714Y-101621904D01*
X121876095Y-101717142D01*
X121828476Y-101764761D01*
X121733238Y-101812380D01*
X121495142Y-101812380D01*
X121399904Y-101764761D01*
X121352285Y-101717142D01*
%TO.C,R4*%
X131331333Y-91147380D02*
X130998000Y-90671190D01*
X130759904Y-91147380D02*
X130759904Y-90147380D01*
X131140857Y-90147380D01*
X131236095Y-90195000D01*
X131283714Y-90242619D01*
X131331333Y-90337857D01*
X131331333Y-90480714D01*
X131283714Y-90575952D01*
X131236095Y-90623571D01*
X131140857Y-90671190D01*
X130759904Y-90671190D01*
X132188476Y-90480714D02*
X132188476Y-91147380D01*
X131950380Y-90099761D02*
X131712285Y-90814047D01*
X132331333Y-90814047D01*
%TO.C,R6*%
X141806333Y-113522380D02*
X141473000Y-113046190D01*
X141234904Y-113522380D02*
X141234904Y-112522380D01*
X141615857Y-112522380D01*
X141711095Y-112570000D01*
X141758714Y-112617619D01*
X141806333Y-112712857D01*
X141806333Y-112855714D01*
X141758714Y-112950952D01*
X141711095Y-112998571D01*
X141615857Y-113046190D01*
X141234904Y-113046190D01*
X142663476Y-112522380D02*
X142473000Y-112522380D01*
X142377761Y-112570000D01*
X142330142Y-112617619D01*
X142234904Y-112760476D01*
X142187285Y-112950952D01*
X142187285Y-113331904D01*
X142234904Y-113427142D01*
X142282523Y-113474761D01*
X142377761Y-113522380D01*
X142568238Y-113522380D01*
X142663476Y-113474761D01*
X142711095Y-113427142D01*
X142758714Y-113331904D01*
X142758714Y-113093809D01*
X142711095Y-112998571D01*
X142663476Y-112950952D01*
X142568238Y-112903333D01*
X142377761Y-112903333D01*
X142282523Y-112950952D01*
X142234904Y-112998571D01*
X142187285Y-113093809D01*
%TO.C,U4*%
X164347380Y-88861904D02*
X165156904Y-88861904D01*
X165252142Y-88814285D01*
X165299761Y-88766666D01*
X165347380Y-88671428D01*
X165347380Y-88480952D01*
X165299761Y-88385714D01*
X165252142Y-88338095D01*
X165156904Y-88290476D01*
X164347380Y-88290476D01*
X164680714Y-87385714D02*
X165347380Y-87385714D01*
X164299761Y-87623809D02*
X165014047Y-87861904D01*
X165014047Y-87242857D01*
%TO.C,C2*%
X154806333Y-111247142D02*
X154758714Y-111294761D01*
X154615857Y-111342380D01*
X154520619Y-111342380D01*
X154377761Y-111294761D01*
X154282523Y-111199523D01*
X154234904Y-111104285D01*
X154187285Y-110913809D01*
X154187285Y-110770952D01*
X154234904Y-110580476D01*
X154282523Y-110485238D01*
X154377761Y-110390000D01*
X154520619Y-110342380D01*
X154615857Y-110342380D01*
X154758714Y-110390000D01*
X154806333Y-110437619D01*
X155187285Y-110437619D02*
X155234904Y-110390000D01*
X155330142Y-110342380D01*
X155568238Y-110342380D01*
X155663476Y-110390000D01*
X155711095Y-110437619D01*
X155758714Y-110532857D01*
X155758714Y-110628095D01*
X155711095Y-110770952D01*
X155139666Y-111342380D01*
X155758714Y-111342380D01*
%TO.C,R1*%
X120631333Y-106497380D02*
X120298000Y-106021190D01*
X120059904Y-106497380D02*
X120059904Y-105497380D01*
X120440857Y-105497380D01*
X120536095Y-105545000D01*
X120583714Y-105592619D01*
X120631333Y-105687857D01*
X120631333Y-105830714D01*
X120583714Y-105925952D01*
X120536095Y-105973571D01*
X120440857Y-106021190D01*
X120059904Y-106021190D01*
X121583714Y-106497380D02*
X121012285Y-106497380D01*
X121298000Y-106497380D02*
X121298000Y-105497380D01*
X121202761Y-105640238D01*
X121107523Y-105735476D01*
X121012285Y-105783095D01*
%TO.C,C1*%
X121731333Y-101747142D02*
X121683714Y-101794761D01*
X121540857Y-101842380D01*
X121445619Y-101842380D01*
X121302761Y-101794761D01*
X121207523Y-101699523D01*
X121159904Y-101604285D01*
X121112285Y-101413809D01*
X121112285Y-101270952D01*
X121159904Y-101080476D01*
X121207523Y-100985238D01*
X121302761Y-100890000D01*
X121445619Y-100842380D01*
X121540857Y-100842380D01*
X121683714Y-100890000D01*
X121731333Y-100937619D01*
X122683714Y-101842380D02*
X122112285Y-101842380D01*
X122398000Y-101842380D02*
X122398000Y-100842380D01*
X122302761Y-100985238D01*
X122207523Y-101080476D01*
X122112285Y-101128095D01*
%TO.C,U1*%
X138826095Y-97102380D02*
X138826095Y-97911904D01*
X138873714Y-98007142D01*
X138921333Y-98054761D01*
X139016571Y-98102380D01*
X139207047Y-98102380D01*
X139302285Y-98054761D01*
X139349904Y-98007142D01*
X139397523Y-97911904D01*
X139397523Y-97102380D01*
X140397523Y-98102380D02*
X139826095Y-98102380D01*
X140111809Y-98102380D02*
X140111809Y-97102380D01*
X140016571Y-97245238D01*
X139921333Y-97340476D01*
X139826095Y-97388095D01*
%TO.C,U2*%
X167807380Y-107086904D02*
X168616904Y-107086904D01*
X168712142Y-107039285D01*
X168759761Y-106991666D01*
X168807380Y-106896428D01*
X168807380Y-106705952D01*
X168759761Y-106610714D01*
X168712142Y-106563095D01*
X168616904Y-106515476D01*
X167807380Y-106515476D01*
X167902619Y-106086904D02*
X167855000Y-106039285D01*
X167807380Y-105944047D01*
X167807380Y-105705952D01*
X167855000Y-105610714D01*
X167902619Y-105563095D01*
X167997857Y-105515476D01*
X168093095Y-105515476D01*
X168235952Y-105563095D01*
X168807380Y-106134523D01*
X168807380Y-105515476D01*
%TO.C,P1*%
X157988000Y-125095000D02*
X157988000Y-122555000D01*
X140208000Y-125095000D02*
X157988000Y-125095000D01*
X157988000Y-122555000D02*
X140208000Y-122555000D01*
X138938000Y-122275000D02*
X137388000Y-122275000D01*
X137388000Y-122275000D02*
X137388000Y-125375000D01*
X137388000Y-125375000D02*
X138938000Y-125375000D01*
X140208000Y-125095000D02*
X140208000Y-122555000D01*
%TO.C,P2*%
X163068000Y-125095000D02*
X163068000Y-122555000D01*
X161798000Y-122275000D02*
X160248000Y-122275000D01*
X175768000Y-122555000D02*
X163068000Y-122555000D01*
X163068000Y-125095000D02*
X175768000Y-125095000D01*
X175768000Y-125095000D02*
X175768000Y-122555000D01*
X160248000Y-122275000D02*
X160248000Y-125375000D01*
X160248000Y-125375000D02*
X161798000Y-125375000D01*
%TO.C,P3*%
X128244000Y-74015000D02*
X128244000Y-77115000D01*
X131064000Y-76835000D02*
X153924000Y-76835000D01*
X153924000Y-76835000D02*
X153924000Y-74295000D01*
X153924000Y-74295000D02*
X131064000Y-74295000D01*
X129794000Y-74015000D02*
X128244000Y-74015000D01*
X128244000Y-77115000D02*
X129794000Y-77115000D01*
X131064000Y-76835000D02*
X131064000Y-74295000D01*
%TO.C,P4*%
X175768000Y-74295000D02*
X157988000Y-74295000D01*
X155168000Y-77115000D02*
X156718000Y-77115000D01*
X157988000Y-76835000D02*
X175768000Y-76835000D01*
X157988000Y-76835000D02*
X157988000Y-74295000D01*
X156718000Y-74015000D02*
X155168000Y-74015000D01*
X175768000Y-76835000D02*
X175768000Y-74295000D01*
X155168000Y-74015000D02*
X155168000Y-77115000D01*
%TO.C,P5*%
X127254000Y-123825000D02*
G75*
G03*
X127254000Y-123825000I-2286000J0D01*
G01*
%TO.C,P6*%
X179324000Y-118745000D02*
G75*
G03*
X179324000Y-118745000I-2286000J0D01*
G01*
%TO.C,P7*%
X128524000Y-75565000D02*
G75*
G03*
X128524000Y-75565000I-2286000J0D01*
G01*
%TO.C,P8*%
X179324000Y-90805000D02*
G75*
G03*
X179324000Y-90805000I-2286000J0D01*
G01*
D11*
%TO.C,C3*%
X145903000Y-85670000D02*
X145903000Y-85985000D01*
X145903000Y-85985000D02*
X151143000Y-85985000D01*
X145903000Y-83245000D02*
X151143000Y-83245000D01*
X151143000Y-85670000D02*
X151143000Y-85985000D01*
X145903000Y-83245000D02*
X145903000Y-83560000D01*
X151143000Y-83245000D02*
X151143000Y-83560000D01*
%TO.C,R3*%
X133885000Y-113505000D02*
X127345000Y-113505000D01*
X133885000Y-113835000D02*
X133885000Y-113505000D01*
X133885000Y-115915000D02*
X133885000Y-116245000D01*
X127345000Y-113505000D02*
X127345000Y-113835000D01*
X127345000Y-116245000D02*
X127345000Y-115915000D01*
X133885000Y-116245000D02*
X127345000Y-116245000D01*
%TO.C,C4*%
X127505000Y-118635000D02*
X127505000Y-116630000D01*
X136745000Y-121970000D02*
X127505000Y-121970000D01*
X136745000Y-116630000D02*
X127505000Y-116630000D01*
X136745000Y-121970000D02*
X136745000Y-119965000D01*
X136745000Y-118635000D02*
X136745000Y-116630000D01*
X127505000Y-121970000D02*
X127505000Y-119965000D01*
%TO.C,U3*%
X138353000Y-86535000D02*
X138353000Y-82995000D01*
X141123000Y-82995000D02*
X141123000Y-86535000D01*
X141123000Y-86535000D02*
X125423000Y-86535000D01*
X125423000Y-86535000D02*
X125423000Y-82995000D01*
X125423000Y-82995000D02*
X141123000Y-82995000D01*
%TO.C,R2*%
X127155000Y-112370000D02*
X127155000Y-112040000D01*
X127155000Y-109630000D02*
X127155000Y-109960000D01*
X133695000Y-112040000D02*
X133695000Y-112370000D01*
X133695000Y-112370000D02*
X127155000Y-112370000D01*
X133695000Y-109960000D02*
X133695000Y-109630000D01*
X133695000Y-109630000D02*
X127155000Y-109630000D01*
%TO.C,R5*%
X117868000Y-100360000D02*
X117868000Y-100030000D01*
X124408000Y-100030000D02*
X124408000Y-100360000D01*
X124408000Y-100360000D02*
X117868000Y-100360000D01*
X117868000Y-97620000D02*
X117868000Y-97950000D01*
X124408000Y-97950000D02*
X124408000Y-97620000D01*
X124408000Y-97620000D02*
X117868000Y-97620000D01*
%TO.C,R4*%
X128228000Y-94435000D02*
X134768000Y-94435000D01*
X128228000Y-92025000D02*
X128228000Y-91695000D01*
X128228000Y-94105000D02*
X128228000Y-94435000D01*
X128228000Y-91695000D02*
X134768000Y-91695000D01*
X134768000Y-94435000D02*
X134768000Y-94105000D01*
X134768000Y-91695000D02*
X134768000Y-92025000D01*
%TO.C,R6*%
X138703000Y-114070000D02*
X145243000Y-114070000D01*
X138703000Y-116480000D02*
X138703000Y-116810000D01*
X138703000Y-114400000D02*
X138703000Y-114070000D01*
X138703000Y-116810000D02*
X145243000Y-116810000D01*
X145243000Y-114070000D02*
X145243000Y-114400000D01*
X145243000Y-116810000D02*
X145243000Y-116480000D01*
%TO.C,U4*%
X160355000Y-91910000D02*
X163895000Y-91910000D01*
X160355000Y-81520000D02*
X163895000Y-81520000D01*
X163895000Y-94680000D02*
X160355000Y-94680000D01*
X160355000Y-94680000D02*
X160355000Y-81520000D01*
X163895000Y-81520000D02*
X163895000Y-94680000D01*
%TO.C,C2*%
X157593000Y-112020000D02*
X157593000Y-112335000D01*
X152353000Y-114760000D02*
X157593000Y-114760000D01*
X157593000Y-114445000D02*
X157593000Y-114760000D01*
X152353000Y-112020000D02*
X157593000Y-112020000D01*
X152353000Y-114445000D02*
X152353000Y-114760000D01*
X152353000Y-112020000D02*
X152353000Y-112335000D01*
%TO.C,R1*%
X117528000Y-109785000D02*
X124068000Y-109785000D01*
X124068000Y-107045000D02*
X124068000Y-107375000D01*
X117528000Y-107045000D02*
X124068000Y-107045000D01*
X117528000Y-107375000D02*
X117528000Y-107045000D01*
X124068000Y-109785000D02*
X124068000Y-109455000D01*
X117528000Y-109455000D02*
X117528000Y-109785000D01*
%TO.C,C1*%
X124518000Y-102520000D02*
X124518000Y-102835000D01*
X119278000Y-102520000D02*
X119278000Y-102835000D01*
X119278000Y-102520000D02*
X124518000Y-102520000D01*
X119278000Y-104945000D02*
X119278000Y-105260000D01*
X124518000Y-104945000D02*
X124518000Y-105260000D01*
X119278000Y-105260000D02*
X124518000Y-105260000D01*
%TO.C,U1*%
X134328000Y-98650000D02*
X134328000Y-108470000D01*
X137834667Y-98650000D02*
X134328000Y-98650000D01*
X144848000Y-108470000D02*
X144848000Y-98650000D01*
X141341333Y-99010000D02*
X137834667Y-99010000D01*
X141341333Y-98650000D02*
X141341333Y-99010000D01*
X137834667Y-99010000D02*
X137834667Y-98650000D01*
X144848000Y-98650000D02*
X141341333Y-98650000D01*
X134328000Y-108470000D02*
X144848000Y-108470000D01*
%TO.C,U2*%
X169355000Y-101015000D02*
X172895000Y-101015000D01*
X169355000Y-111635000D02*
X169355000Y-101015000D01*
X172895000Y-111635000D02*
X169355000Y-111635000D01*
X172895000Y-103785000D02*
X169355000Y-103785000D01*
X172895000Y-101015000D02*
X172895000Y-111635000D01*
%TD*%
D12*
%TO.C,P1*%
X138938000Y-123825000D03*
X141478000Y-123825000D03*
X144018000Y-123825000D03*
X146558000Y-123825000D03*
X149098000Y-123825000D03*
X151638000Y-123825000D03*
X154178000Y-123825000D03*
X156718000Y-123825000D03*
%TD*%
%TO.C,P2*%
X161798000Y-123825000D03*
X164338000Y-123825000D03*
X166878000Y-123825000D03*
X169418000Y-123825000D03*
X171958000Y-123825000D03*
X174498000Y-123825000D03*
%TD*%
%TO.C,P3*%
X129794000Y-75565000D03*
X132334000Y-75565000D03*
X134874000Y-75565000D03*
X137414000Y-75565000D03*
X139954000Y-75565000D03*
X142494000Y-75565000D03*
X145034000Y-75565000D03*
X147574000Y-75565000D03*
X150114000Y-75565000D03*
X152654000Y-75565000D03*
%TD*%
%TO.C,P4*%
X156718000Y-75565000D03*
X159258000Y-75565000D03*
X161798000Y-75565000D03*
X164338000Y-75565000D03*
X166878000Y-75565000D03*
X169418000Y-75565000D03*
X171958000Y-75565000D03*
X174498000Y-75565000D03*
%TD*%
D13*
%TO.C,P5*%
X124968000Y-123825000D03*
%TD*%
%TO.C,P6*%
X177038000Y-118745000D03*
%TD*%
%TO.C,P7*%
X126238000Y-75565000D03*
%TD*%
%TO.C,P8*%
X177038000Y-90805000D03*
%TD*%
M02*
