%TF.GenerationSoftware,KiCad,Pcbnew,(6.0.2-0)*%
%TF.CreationDate,2022-03-31T18:09:35+02:00*%
%TF.ProjectId,Shield_Capteur ,53686965-6c64-45f4-9361-707465757220,rev?*%
%TF.SameCoordinates,Original*%
%TF.FileFunction,Copper,L2,Bot*%
%TF.FilePolarity,Positive*%
%FSLAX46Y46*%
G04 Gerber Fmt 4.6, Leading zero omitted, Abs format (unit mm)*
G04 Created by KiCad (PCBNEW (6.0.2-0)) date 2022-03-31 18:09:35*
%MOMM*%
%LPD*%
G01*
G04 APERTURE LIST*
%ADD10C,0.300000*%
%TA.AperFunction,NonConductor*%
%ADD11C,0.300000*%
%TD*%
%TA.AperFunction,ComponentPad*%
%ADD12O,2.000000X2.500000*%
%TD*%
%TA.AperFunction,ComponentPad*%
%ADD13C,4.064000*%
%TD*%
%TA.AperFunction,ComponentPad*%
%ADD14C,2.540000*%
%TD*%
%TA.AperFunction,ComponentPad*%
%ADD15O,2.000000X2.540000*%
%TD*%
%TA.AperFunction,ComponentPad*%
%ADD16O,2.540000X2.000000*%
%TD*%
%TA.AperFunction,ComponentPad*%
%ADD17R,2.000000X2.000000*%
%TD*%
%TA.AperFunction,Conductor*%
%ADD18C,0.500000*%
%TD*%
G04 APERTURE END LIST*
D10*
D11*
X112096428Y-85878571D02*
X112096428Y-86592857D01*
X113596428Y-86592857D01*
X112882142Y-85378571D02*
X112882142Y-84878571D01*
X112096428Y-84664285D02*
X112096428Y-85378571D01*
X113596428Y-85378571D01*
X113596428Y-84664285D01*
X112525000Y-84092857D02*
X112525000Y-83378571D01*
X112096428Y-84235714D02*
X113596428Y-83735714D01*
X112096428Y-83235714D01*
X111953571Y-83092857D02*
X111953571Y-81950000D01*
X112525000Y-81664285D02*
X112525000Y-80950000D01*
X112096428Y-81807142D02*
X113596428Y-81307142D01*
X112096428Y-80807142D01*
X113596428Y-80307142D02*
X112382142Y-80307142D01*
X112239285Y-80235714D01*
X112167857Y-80164285D01*
X112096428Y-80021428D01*
X112096428Y-79735714D01*
X112167857Y-79592857D01*
X112239285Y-79521428D01*
X112382142Y-79450000D01*
X113596428Y-79450000D01*
X112096428Y-78735714D02*
X113596428Y-78735714D01*
X113596428Y-78378571D01*
X113525000Y-78164285D01*
X113382142Y-78021428D01*
X113239285Y-77950000D01*
X112953571Y-77878571D01*
X112739285Y-77878571D01*
X112453571Y-77950000D01*
X112310714Y-78021428D01*
X112167857Y-78164285D01*
X112096428Y-78378571D01*
X112096428Y-78735714D01*
X112096428Y-76378571D02*
X112810714Y-76878571D01*
X112096428Y-77235714D02*
X113596428Y-77235714D01*
X113596428Y-76664285D01*
X113525000Y-76521428D01*
X113453571Y-76450000D01*
X113310714Y-76378571D01*
X113096428Y-76378571D01*
X112953571Y-76450000D01*
X112882142Y-76521428D01*
X112810714Y-76664285D01*
X112810714Y-77235714D01*
X112882142Y-75735714D02*
X112882142Y-75235714D01*
X112096428Y-75021428D02*
X112096428Y-75735714D01*
X113596428Y-75735714D01*
X113596428Y-75021428D01*
X112810714Y-74092857D02*
X112096428Y-74092857D01*
X113596428Y-74592857D02*
X112810714Y-74092857D01*
X113596428Y-73592857D01*
D12*
%TO.P,P1,1,Pin_1*%
%TO.N,unconnected-(P1-Pad1)*%
X138938000Y-123825000D03*
%TO.P,P1,2,Pin_2*%
%TO.N,/IOREF*%
X141478000Y-123825000D03*
%TO.P,P1,3,Pin_3*%
%TO.N,/Reset*%
X144018000Y-123825000D03*
%TO.P,P1,4,Pin_4*%
%TO.N,unconnected-(P1-Pad4)*%
X146558000Y-123825000D03*
%TO.P,P1,5,Pin_5*%
%TO.N,+5V*%
X149098000Y-123825000D03*
%TO.P,P1,6,Pin_6*%
%TO.N,GND*%
X151638000Y-123825000D03*
%TO.P,P1,7,Pin_7*%
X154178000Y-123825000D03*
%TO.P,P1,8,Pin_8*%
%TO.N,/Vin*%
X156718000Y-123825000D03*
%TD*%
%TO.P,P2,1,Pin_1*%
%TO.N,ADC*%
X161798000Y-123825000D03*
%TO.P,P2,2,Pin_2*%
%TO.N,/A1*%
X164338000Y-123825000D03*
%TO.P,P2,3,Pin_3*%
%TO.N,/A2*%
X166878000Y-123825000D03*
%TO.P,P2,4,Pin_4*%
%TO.N,/A3*%
X169418000Y-123825000D03*
%TO.P,P2,5,Pin_5*%
%TO.N,SDA*%
X171958000Y-123825000D03*
%TO.P,P2,6,Pin_6*%
%TO.N,SCL*%
X174498000Y-123825000D03*
%TD*%
%TO.P,P3,1,Pin_1*%
%TO.N,SCL*%
X129794000Y-75565000D03*
%TO.P,P3,2,Pin_2*%
%TO.N,SDA*%
X132334000Y-75565000D03*
%TO.P,P3,3,Pin_3*%
%TO.N,/AREF*%
X134874000Y-75565000D03*
%TO.P,P3,4,Pin_4*%
%TO.N,GND*%
X137414000Y-75565000D03*
%TO.P,P3,5,Pin_5*%
%TO.N,/13(SCK)*%
X139954000Y-75565000D03*
%TO.P,P3,6,Pin_6*%
%TO.N,/12(MISO)*%
X142494000Y-75565000D03*
%TO.P,P3,7,Pin_7*%
%TO.N,RX_TX*%
X145034000Y-75565000D03*
%TO.P,P3,8,Pin_8*%
%TO.N,TX_RX*%
X147574000Y-75565000D03*
%TO.P,P3,9,Pin_9*%
%TO.N,/9(\u002A\u002A)*%
X150114000Y-75565000D03*
%TO.P,P3,10,Pin_10*%
%TO.N,/8*%
X152654000Y-75565000D03*
%TD*%
%TO.P,P4,1,Pin_1*%
%TO.N,/7*%
X156718000Y-75565000D03*
%TO.P,P4,2,Pin_2*%
%TO.N,/6(\u002A\u002A)*%
X159258000Y-75565000D03*
%TO.P,P4,3,Pin_3*%
%TO.N,SWITCH*%
X161798000Y-75565000D03*
%TO.P,P4,4,Pin_4*%
%TO.N,DATA*%
X164338000Y-75565000D03*
%TO.P,P4,5,Pin_5*%
%TO.N,CLK*%
X166878000Y-75565000D03*
%TO.P,P4,6,Pin_6*%
%TO.N,/2*%
X169418000Y-75565000D03*
%TO.P,P4,7,Pin_7*%
%TO.N,/1(Tx)*%
X171958000Y-75565000D03*
%TO.P,P4,8,Pin_8*%
%TO.N,/0(Rx)*%
X174498000Y-75565000D03*
%TD*%
D13*
%TO.P,P5,1,Pin_1*%
%TO.N,unconnected-(P5-Pad1)*%
X124968000Y-123825000D03*
%TD*%
%TO.P,P6,1,Pin_1*%
%TO.N,unconnected-(P6-Pad1)*%
X177038000Y-118745000D03*
%TD*%
%TO.P,P7,1,Pin_1*%
%TO.N,unconnected-(P7-Pad1)*%
X126238000Y-75565000D03*
%TD*%
%TO.P,P8,1,Pin_1*%
%TO.N,unconnected-(P8-Pad1)*%
X177038000Y-90805000D03*
%TD*%
D14*
%TO.P,C3,1*%
%TO.N,+5V*%
X146023000Y-84615000D03*
%TO.P,C3,2*%
%TO.N,GND*%
X151023000Y-84615000D03*
%TD*%
%TO.P,R3,1*%
%TO.N,Net-(C4-Pad1)*%
X134425000Y-114875000D03*
%TO.P,R3,2*%
%TO.N,IN-*%
X126805000Y-114875000D03*
%TD*%
%TO.P,C4,1*%
%TO.N,Net-(C4-Pad1)*%
X135875000Y-119300000D03*
%TO.P,C4,2*%
%TO.N,IN-*%
X128375000Y-119300000D03*
%TD*%
D15*
%TO.P,U3,1,KEY*%
%TO.N,unconnected-(U3-Pad1)*%
X139623000Y-84765000D03*
%TO.P,U3,2,VCC*%
%TO.N,+5V*%
X137083000Y-84765000D03*
%TO.P,U3,3,GND*%
%TO.N,GND*%
X134543000Y-84765000D03*
%TO.P,U3,4,TX_RX*%
%TO.N,TX_RX*%
X132003000Y-84765000D03*
%TO.P,U3,5,RX_TX*%
%TO.N,RX_TX*%
X129463000Y-84765000D03*
%TO.P,U3,6,STATE*%
%TO.N,unconnected-(U3-Pad6)*%
X126923000Y-84765000D03*
%TD*%
D14*
%TO.P,R2,1*%
%TO.N,IN-*%
X134235000Y-111000000D03*
%TO.P,R2,2*%
%TO.N,GND*%
X126615000Y-111000000D03*
%TD*%
%TO.P,R5,1*%
%TO.N,Net-(R4-Pad1)*%
X124948000Y-98990000D03*
%TO.P,R5,2*%
%TO.N,IN+*%
X117328000Y-98990000D03*
%TD*%
%TO.P,R4,1*%
%TO.N,Net-(R4-Pad1)*%
X127688000Y-93065000D03*
%TO.P,R4,2*%
%TO.N,+5V*%
X135308000Y-93065000D03*
%TD*%
%TO.P,R6,1*%
%TO.N,Net-(C4-Pad1)*%
X138163000Y-115440000D03*
%TO.P,R6,2*%
%TO.N,ADC*%
X145783000Y-115440000D03*
%TD*%
D16*
%TO.P,U4,1,CLK*%
%TO.N,CLK*%
X162125000Y-93180000D03*
%TO.P,U4,2,DATA*%
%TO.N,DATA*%
X162125000Y-90640000D03*
%TO.P,U4,3,SWITCH*%
%TO.N,SWITCH*%
X162125000Y-88100000D03*
%TO.P,U4,4,VCC*%
%TO.N,+5V*%
X162125000Y-85560000D03*
%TO.P,U4,5,GND*%
%TO.N,GND*%
X162125000Y-83020000D03*
%TD*%
D14*
%TO.P,C2,1*%
%TO.N,ADC*%
X152473000Y-113390000D03*
%TO.P,C2,2*%
%TO.N,GND*%
X157473000Y-113390000D03*
%TD*%
%TO.P,R1,1*%
%TO.N,IN+*%
X116988000Y-108415000D03*
%TO.P,R1,2*%
%TO.N,GND*%
X124608000Y-108415000D03*
%TD*%
%TO.P,C1,1*%
%TO.N,IN+*%
X119398000Y-103890000D03*
%TO.P,C1,2*%
%TO.N,GND*%
X124398000Y-103890000D03*
%TD*%
D17*
%TO.P,U1,1,NC_2*%
%TO.N,unconnected-(U1-Pad1)*%
X135828000Y-99750000D03*
D16*
%TO.P,U1,2,IN-*%
%TO.N,IN-*%
X135828000Y-102290000D03*
%TO.P,U1,3,IN+*%
%TO.N,IN+*%
X135828000Y-104830000D03*
%TO.P,U1,4,V-*%
%TO.N,GND*%
X135828000Y-107370000D03*
%TO.P,U1,5,CLOCK*%
%TO.N,unconnected-(U1-Pad5)*%
X143348000Y-107370000D03*
%TO.P,U1,6,OUT*%
%TO.N,Net-(C4-Pad1)*%
X143348000Y-104830000D03*
%TO.P,U1,7,V+*%
%TO.N,+5V*%
X143348000Y-102290000D03*
%TO.P,U1,8,NC*%
%TO.N,unconnected-(U1-Pad8)*%
X143348000Y-99750000D03*
%TD*%
%TO.P,U2,1,GND*%
%TO.N,GND*%
X171125000Y-102515000D03*
%TO.P,U2,2,VCC*%
%TO.N,+5V*%
X171125000Y-105055000D03*
%TO.P,U2,3,SCL*%
%TO.N,SCL*%
X171125000Y-107595000D03*
%TO.P,U2,4,SDA*%
%TO.N,SDA*%
X171125000Y-110135000D03*
%TD*%
D18*
%TO.N,+5V*%
X153840000Y-102290000D02*
X167590120Y-102290000D01*
X137083000Y-91290000D02*
X137083000Y-84765000D01*
X149098000Y-122309000D02*
X146814000Y-120025000D01*
X149235000Y-102290000D02*
X153710000Y-102290000D01*
X140075000Y-120025000D02*
X139250000Y-119200000D01*
X153710000Y-102290000D02*
X153840000Y-102290000D01*
X143348000Y-102290000D02*
X149235000Y-102290000D01*
X148442511Y-87034511D02*
X159265489Y-87034511D01*
X160740000Y-85560000D02*
X162125000Y-85560000D01*
X149098000Y-123825000D02*
X149098000Y-122309000D01*
X141891050Y-115303266D02*
X141891050Y-114116050D01*
X138729520Y-82345480D02*
X137083000Y-83992000D01*
X167590120Y-102290000D02*
X170355120Y-105055000D01*
X146814000Y-120025000D02*
X140075000Y-120025000D01*
X159265489Y-87034511D02*
X160740000Y-85560000D01*
X135308000Y-95019880D02*
X142578120Y-102290000D01*
X146023000Y-84615000D02*
X148442511Y-87034511D01*
X139250000Y-117944316D02*
X141891050Y-115303266D01*
X141891050Y-114116050D02*
X149235000Y-106772100D01*
X146023000Y-84615000D02*
X143753480Y-82345480D01*
X135308000Y-93065000D02*
X137083000Y-91290000D01*
X170355120Y-105055000D02*
X171125000Y-105055000D01*
X137083000Y-83992000D02*
X137083000Y-84765000D01*
X139250000Y-119200000D02*
X139250000Y-117944316D01*
X143753480Y-82345480D02*
X138729520Y-82345480D01*
X149235000Y-106772100D02*
X149235000Y-102290000D01*
X135308000Y-93065000D02*
X135308000Y-95019880D01*
X142578120Y-102290000D02*
X143348000Y-102290000D01*
%TO.N,IN+*%
X131698609Y-101470489D02*
X135058120Y-104830000D01*
X117328000Y-101820000D02*
X119398000Y-103890000D01*
X117328000Y-98990000D02*
X117328000Y-101820000D01*
X121817511Y-101470489D02*
X131698609Y-101470489D01*
X135058120Y-104830000D02*
X135828000Y-104830000D01*
X119398000Y-103890000D02*
X121817511Y-101470489D01*
X119398000Y-103890000D02*
X119398000Y-106005000D01*
X119398000Y-106005000D02*
X116988000Y-108415000D01*
%TO.N,ADC*%
X150423000Y-115440000D02*
X152473000Y-113390000D01*
X157808000Y-118725000D02*
X159875000Y-118725000D01*
X152473000Y-113390000D02*
X157808000Y-118725000D01*
X161798000Y-120652000D02*
X161798000Y-123825000D01*
X145783000Y-115440000D02*
X150423000Y-115440000D01*
X159875000Y-118725000D02*
X161800000Y-120650000D01*
X161800000Y-120650000D02*
X161798000Y-120652000D01*
%TO.N,Net-(C4-Pad1)*%
X144117880Y-104830000D02*
X145767520Y-106479640D01*
X138587880Y-115440000D02*
X138163000Y-115440000D01*
X135875000Y-119300000D02*
X135875000Y-116325000D01*
X135875000Y-116325000D02*
X134425000Y-114875000D01*
X137598000Y-114875000D02*
X138163000Y-115440000D01*
X145767520Y-106479640D02*
X145767520Y-108260360D01*
X134425000Y-114875000D02*
X137598000Y-114875000D01*
X145767520Y-108260360D02*
X138587880Y-115440000D01*
X143348000Y-104830000D02*
X144117880Y-104830000D01*
%TO.N,IN-*%
X135828000Y-102290000D02*
X137058000Y-102290000D01*
X134235000Y-111000000D02*
X130680000Y-111000000D01*
X128375000Y-116445000D02*
X126805000Y-114875000D01*
X138247520Y-103479520D02*
X138247520Y-108277480D01*
X128375000Y-119300000D02*
X128375000Y-116445000D01*
X135525000Y-111000000D02*
X134235000Y-111000000D01*
X138247520Y-108277480D02*
X135525000Y-111000000D01*
X137058000Y-102290000D02*
X138247520Y-103479520D01*
X130680000Y-111000000D02*
X126805000Y-114875000D01*
%TO.N,SCL*%
X172570000Y-107595000D02*
X174400000Y-109425000D01*
X171400000Y-114850000D02*
X171400000Y-118800000D01*
X171400000Y-118800000D02*
X174498000Y-121898000D01*
X174400000Y-111850000D02*
X171400000Y-114850000D01*
X174498000Y-121898000D02*
X174498000Y-123825000D01*
X171125000Y-107595000D02*
X172570000Y-107595000D01*
X174400000Y-109425000D02*
X174400000Y-111850000D01*
%TO.N,SDA*%
X168975000Y-113925000D02*
X168975000Y-119225000D01*
X171125000Y-111775000D02*
X168975000Y-113925000D01*
X168975000Y-119225000D02*
X171958000Y-122208000D01*
X171958000Y-122208000D02*
X171958000Y-123825000D01*
X171125000Y-110135000D02*
X171125000Y-111775000D01*
%TO.N,TX_RX*%
X132003000Y-84765000D02*
X132003000Y-83447000D01*
X144560480Y-79739520D02*
X147574000Y-76726000D01*
X147574000Y-76726000D02*
X147574000Y-75565000D01*
X132003000Y-83447000D02*
X135710480Y-79739520D01*
X135710480Y-79739520D02*
X144560480Y-79739520D01*
%TO.N,RX_TX*%
X129463000Y-83834520D02*
X129463000Y-84765000D01*
X145034000Y-77081000D02*
X143775000Y-78340000D01*
X134957520Y-78340000D02*
X129463000Y-83834520D01*
X143775000Y-78340000D02*
X134957520Y-78340000D01*
X145034000Y-75565000D02*
X145034000Y-77081000D01*
%TO.N,SWITCH*%
X164544520Y-87450480D02*
X164544520Y-79694520D01*
X161798000Y-76948000D02*
X161798000Y-75565000D01*
X164544520Y-79694520D02*
X161798000Y-76948000D01*
X162125000Y-88100000D02*
X163895000Y-88100000D01*
X163895000Y-88100000D02*
X164544520Y-87450480D01*
%TO.N,DATA*%
X162125000Y-90640000D02*
X163895000Y-90640000D01*
X164338000Y-77081000D02*
X164338000Y-75565000D01*
X165944040Y-88590960D02*
X165944040Y-78687040D01*
X163895000Y-90640000D02*
X165944040Y-88590960D01*
X165944040Y-78687040D02*
X164338000Y-77081000D01*
%TO.N,CLK*%
X167343560Y-76030560D02*
X166878000Y-75565000D01*
X162125000Y-93180000D02*
X163895000Y-93180000D01*
X163895000Y-93180000D02*
X167343560Y-89731440D01*
X167343560Y-89731440D02*
X167343560Y-76030560D01*
%TO.N,Net-(R4-Pad1)*%
X124948000Y-95805000D02*
X124948000Y-98990000D01*
X127688000Y-93065000D02*
X124948000Y-95805000D01*
%TD*%
%TA.AperFunction,Conductor*%
%TO.N,GND*%
G36*
X174996171Y-72328002D02*
G01*
X175024845Y-72353336D01*
X176802975Y-74487092D01*
X176937796Y-74648877D01*
X176966040Y-74714014D01*
X176967000Y-74729540D01*
X176967000Y-85915928D01*
X176966893Y-85921124D01*
X176964391Y-85981742D01*
X176974200Y-86021270D01*
X176976633Y-86033736D01*
X176982405Y-86074045D01*
X176988375Y-86087175D01*
X176995963Y-86108974D01*
X176999437Y-86122975D01*
X177003960Y-86130735D01*
X177019939Y-86158149D01*
X177025782Y-86169447D01*
X177042633Y-86206510D01*
X177085040Y-86255726D01*
X177087355Y-86258493D01*
X178483200Y-87976914D01*
X178486154Y-87980551D01*
X178513578Y-88046037D01*
X178501244Y-88115954D01*
X178453068Y-88168104D01*
X178384345Y-88185929D01*
X178330563Y-88171959D01*
X178265361Y-88138306D01*
X178232777Y-88121488D01*
X177916423Y-88001948D01*
X177588427Y-87919561D01*
X177447153Y-87900962D01*
X177256739Y-87875893D01*
X177256731Y-87875892D01*
X177253135Y-87875419D01*
X177112630Y-87873212D01*
X176918634Y-87870164D01*
X176918630Y-87870164D01*
X176914992Y-87870107D01*
X176911377Y-87870468D01*
X176911372Y-87870468D01*
X176672438Y-87894317D01*
X176578478Y-87903695D01*
X176248056Y-87975739D01*
X176244629Y-87976912D01*
X176244623Y-87976914D01*
X175931535Y-88084108D01*
X175931530Y-88084110D01*
X175928104Y-88085283D01*
X175924836Y-88086842D01*
X175924828Y-88086845D01*
X175814699Y-88139374D01*
X175622863Y-88230875D01*
X175336379Y-88410587D01*
X175072449Y-88622034D01*
X174834571Y-88862416D01*
X174625899Y-89128546D01*
X174449198Y-89416896D01*
X174447671Y-89420186D01*
X174447666Y-89420195D01*
X174348878Y-89633016D01*
X174306809Y-89723645D01*
X174200622Y-90044727D01*
X174132042Y-90375885D01*
X174118234Y-90530595D01*
X174105020Y-90678664D01*
X174101979Y-90712732D01*
X174102074Y-90716362D01*
X174102074Y-90716363D01*
X174108277Y-90953240D01*
X174110832Y-91050801D01*
X174158483Y-91385613D01*
X174244300Y-91712728D01*
X174367146Y-92027812D01*
X174525393Y-92326689D01*
X174527443Y-92329672D01*
X174527445Y-92329675D01*
X174714886Y-92602404D01*
X174714892Y-92602411D01*
X174716943Y-92605396D01*
X174939258Y-92860240D01*
X175189390Y-93087843D01*
X175464025Y-93285188D01*
X175759522Y-93449659D01*
X176071964Y-93579077D01*
X176075458Y-93580072D01*
X176075460Y-93580073D01*
X176393710Y-93670729D01*
X176393715Y-93670730D01*
X176397211Y-93671726D01*
X176556552Y-93697819D01*
X176727370Y-93725792D01*
X176727377Y-93725793D01*
X176730951Y-93726378D01*
X176899856Y-93734344D01*
X177065134Y-93742138D01*
X177065135Y-93742138D01*
X177068761Y-93742309D01*
X177076677Y-93741769D01*
X177402532Y-93719555D01*
X177402540Y-93719554D01*
X177406163Y-93719307D01*
X177409739Y-93718644D01*
X177409741Y-93718644D01*
X177735120Y-93658339D01*
X177735124Y-93658338D01*
X177738685Y-93657678D01*
X178061920Y-93558238D01*
X178189505Y-93502232D01*
X178368260Y-93423764D01*
X178368264Y-93423762D01*
X178371583Y-93422305D01*
X178400626Y-93405334D01*
X178523753Y-93333384D01*
X178663571Y-93251681D01*
X178868348Y-93097931D01*
X178934832Y-93073025D01*
X179004227Y-93088017D01*
X179054501Y-93138148D01*
X179070000Y-93198691D01*
X179070000Y-116350553D01*
X179049998Y-116418674D01*
X178996342Y-116465167D01*
X178926068Y-116475271D01*
X178862170Y-116446364D01*
X178816761Y-116407581D01*
X178816751Y-116407573D01*
X178813992Y-116405217D01*
X178810989Y-116403199D01*
X178810981Y-116403193D01*
X178626179Y-116279012D01*
X178533294Y-116216596D01*
X178530085Y-116214940D01*
X178530077Y-116214935D01*
X178235997Y-116063150D01*
X178235998Y-116063150D01*
X178232777Y-116061488D01*
X177916423Y-115941948D01*
X177588427Y-115859561D01*
X177447153Y-115840962D01*
X177256739Y-115815893D01*
X177256731Y-115815892D01*
X177253135Y-115815419D01*
X177112630Y-115813212D01*
X176918634Y-115810164D01*
X176918630Y-115810164D01*
X176914992Y-115810107D01*
X176911377Y-115810468D01*
X176911372Y-115810468D01*
X176675962Y-115833965D01*
X176578478Y-115843695D01*
X176248056Y-115915739D01*
X176244629Y-115916912D01*
X176244623Y-115916914D01*
X175931535Y-116024108D01*
X175931530Y-116024110D01*
X175928104Y-116025283D01*
X175924836Y-116026842D01*
X175924828Y-116026845D01*
X175783876Y-116094076D01*
X175622863Y-116170875D01*
X175336379Y-116350587D01*
X175072449Y-116562034D01*
X174834571Y-116802416D01*
X174832330Y-116805274D01*
X174637555Y-117053681D01*
X174625899Y-117068546D01*
X174449198Y-117356896D01*
X174447671Y-117360186D01*
X174447666Y-117360195D01*
X174331446Y-117610569D01*
X174306809Y-117663645D01*
X174200622Y-117984727D01*
X174132042Y-118315885D01*
X174101979Y-118652732D01*
X174102074Y-118656362D01*
X174102074Y-118656363D01*
X174110191Y-118966319D01*
X174110832Y-118990801D01*
X174158483Y-119325613D01*
X174244300Y-119652728D01*
X174245617Y-119656107D01*
X174245621Y-119656118D01*
X174259104Y-119690700D01*
X174265213Y-119761433D01*
X174232111Y-119824241D01*
X174170307Y-119859181D01*
X174099425Y-119855161D01*
X174052616Y-119825564D01*
X172587405Y-118360353D01*
X172553379Y-118298041D01*
X172550500Y-118271258D01*
X172550500Y-115378743D01*
X172570502Y-115310622D01*
X172587405Y-115289648D01*
X175183079Y-112693973D01*
X175189097Y-112688336D01*
X175233772Y-112649157D01*
X175238119Y-112645345D01*
X175293280Y-112575373D01*
X175295298Y-112572882D01*
X175348521Y-112508890D01*
X175348528Y-112508880D01*
X175352219Y-112504442D01*
X175355042Y-112499401D01*
X175356844Y-112496779D01*
X175363729Y-112486475D01*
X175365448Y-112483829D01*
X175369024Y-112479292D01*
X175371715Y-112474178D01*
X175410465Y-112400527D01*
X175412038Y-112397629D01*
X175452715Y-112324994D01*
X175455537Y-112319955D01*
X175457394Y-112314483D01*
X175458681Y-112311593D01*
X175463588Y-112300171D01*
X175464786Y-112297279D01*
X175467477Y-112292164D01*
X175483650Y-112240080D01*
X175493871Y-112207164D01*
X175494890Y-112204028D01*
X175521647Y-112125202D01*
X175523505Y-112119729D01*
X175524334Y-112114012D01*
X175525075Y-112110925D01*
X175527798Y-112098892D01*
X175528468Y-112095740D01*
X175530180Y-112090227D01*
X175540646Y-112001805D01*
X175541073Y-111998563D01*
X175553846Y-111910470D01*
X175550597Y-111827783D01*
X175550500Y-111822837D01*
X175550500Y-109468048D01*
X175550770Y-109459807D01*
X175554656Y-109400524D01*
X175554656Y-109400522D01*
X175555034Y-109394754D01*
X175544567Y-109306327D01*
X175544223Y-109303054D01*
X175540441Y-109261897D01*
X175536081Y-109214440D01*
X175534511Y-109208875D01*
X175533926Y-109205716D01*
X175531518Y-109193612D01*
X175530859Y-109190512D01*
X175530180Y-109184773D01*
X175503770Y-109099717D01*
X175502858Y-109096641D01*
X175478686Y-109010931D01*
X175476127Y-109005742D01*
X175474990Y-109002780D01*
X175470380Y-108991223D01*
X175469189Y-108988348D01*
X175467478Y-108982837D01*
X175436659Y-108924259D01*
X175426029Y-108904054D01*
X175424533Y-108901117D01*
X175387722Y-108826474D01*
X175387720Y-108826470D01*
X175385165Y-108821290D01*
X175381705Y-108816657D01*
X175380081Y-108814007D01*
X175373408Y-108803429D01*
X175371712Y-108800818D01*
X175369024Y-108795708D01*
X175313902Y-108725785D01*
X175311905Y-108723183D01*
X175309263Y-108719644D01*
X175258651Y-108651867D01*
X175197878Y-108595689D01*
X175194313Y-108592260D01*
X173413973Y-106811921D01*
X173408336Y-106805903D01*
X173369157Y-106761228D01*
X173365345Y-106756881D01*
X173295373Y-106701720D01*
X173292882Y-106699702D01*
X173228890Y-106646479D01*
X173228880Y-106646472D01*
X173224442Y-106642781D01*
X173219401Y-106639958D01*
X173216779Y-106638156D01*
X173206475Y-106631271D01*
X173203829Y-106629552D01*
X173199292Y-106625976D01*
X173194181Y-106623287D01*
X173194178Y-106623285D01*
X173120527Y-106584535D01*
X173117629Y-106582962D01*
X173044994Y-106542285D01*
X173039955Y-106539463D01*
X173034483Y-106537606D01*
X173031593Y-106536319D01*
X173020120Y-106531390D01*
X173017271Y-106530210D01*
X173012164Y-106527523D01*
X172999530Y-106523600D01*
X172938489Y-106481962D01*
X172877408Y-106405583D01*
X172850484Y-106339890D01*
X172863350Y-106270069D01*
X172873940Y-106252739D01*
X172878936Y-106245876D01*
X172944927Y-106155214D01*
X173010100Y-106065676D01*
X173010102Y-106065673D01*
X173012787Y-106061984D01*
X173141206Y-105817899D01*
X173233045Y-105557832D01*
X173261935Y-105411256D01*
X173285499Y-105291704D01*
X173285500Y-105291698D01*
X173286380Y-105287232D01*
X173295654Y-105100956D01*
X173299867Y-105016336D01*
X173299867Y-105016330D01*
X173300094Y-105011767D01*
X173273898Y-104737208D01*
X173271893Y-104729012D01*
X173209429Y-104473744D01*
X173208343Y-104469306D01*
X173104801Y-104213674D01*
X173102500Y-104209744D01*
X173102497Y-104209738D01*
X172967745Y-103979597D01*
X172967740Y-103979590D01*
X172965442Y-103975665D01*
X172882137Y-103871498D01*
X172796036Y-103763834D01*
X172796035Y-103763833D01*
X172793184Y-103760268D01*
X172613915Y-103592804D01*
X172577789Y-103531686D01*
X172580441Y-103460739D01*
X172602563Y-103420753D01*
X172634109Y-103382348D01*
X172639865Y-103374067D01*
X172756841Y-103173081D01*
X172761203Y-103163976D01*
X172844537Y-102946885D01*
X172847388Y-102937196D01*
X172878821Y-102786736D01*
X172877698Y-102772675D01*
X172867590Y-102769000D01*
X170997000Y-102769000D01*
X170928879Y-102748998D01*
X170882386Y-102695342D01*
X170871000Y-102643000D01*
X170871000Y-102242885D01*
X171379000Y-102242885D01*
X171383475Y-102258124D01*
X171384865Y-102259329D01*
X171392548Y-102261000D01*
X172865590Y-102261000D01*
X172879676Y-102256864D01*
X172881725Y-102243886D01*
X172879675Y-102226170D01*
X172877715Y-102216273D01*
X172814396Y-101992506D01*
X172810884Y-101983062D01*
X172712601Y-101772295D01*
X172707622Y-101763529D01*
X172576913Y-101571198D01*
X172570581Y-101563323D01*
X172410814Y-101394374D01*
X172403305Y-101387613D01*
X172218574Y-101246375D01*
X172210095Y-101240911D01*
X172005153Y-101131022D01*
X171995901Y-101126980D01*
X171776029Y-101051273D01*
X171766257Y-101048764D01*
X171536029Y-101008996D01*
X171528157Y-101008141D01*
X171504449Y-101007064D01*
X171501616Y-101007000D01*
X171397115Y-101007000D01*
X171381876Y-101011475D01*
X171380671Y-101012865D01*
X171379000Y-101020548D01*
X171379000Y-102242885D01*
X170871000Y-102242885D01*
X170871000Y-101025115D01*
X170866525Y-101009876D01*
X170865135Y-101008671D01*
X170857452Y-101007000D01*
X170796544Y-101007000D01*
X170791512Y-101007202D01*
X170618157Y-101021150D01*
X170608204Y-101022762D01*
X170382367Y-101078233D01*
X170372797Y-101081416D01*
X170158735Y-101172280D01*
X170149793Y-101176955D01*
X169953013Y-101300874D01*
X169944940Y-101306914D01*
X169770500Y-101460703D01*
X169763496Y-101467956D01*
X169615890Y-101647654D01*
X169610134Y-101655936D01*
X169493159Y-101856919D01*
X169488797Y-101866024D01*
X169405463Y-102083115D01*
X169402613Y-102092801D01*
X169384143Y-102181210D01*
X169350633Y-102243800D01*
X169288604Y-102278338D01*
X169217749Y-102273858D01*
X169171711Y-102244538D01*
X168434086Y-101506913D01*
X168428449Y-101500895D01*
X168399562Y-101467956D01*
X168385465Y-101451881D01*
X168315493Y-101396720D01*
X168313002Y-101394702D01*
X168249010Y-101341479D01*
X168249000Y-101341472D01*
X168244562Y-101337781D01*
X168239521Y-101334958D01*
X168236899Y-101333156D01*
X168226595Y-101326271D01*
X168223949Y-101324552D01*
X168219412Y-101320976D01*
X168214301Y-101318287D01*
X168214298Y-101318285D01*
X168140647Y-101279535D01*
X168137749Y-101277962D01*
X168065114Y-101237285D01*
X168060075Y-101234463D01*
X168054603Y-101232606D01*
X168051713Y-101231319D01*
X168040291Y-101226412D01*
X168037398Y-101225214D01*
X168032284Y-101222523D01*
X167978591Y-101205851D01*
X167947287Y-101196130D01*
X167944153Y-101195112D01*
X167865311Y-101168350D01*
X167865310Y-101168350D01*
X167859849Y-101166496D01*
X167854137Y-101165668D01*
X167851210Y-101164965D01*
X167838834Y-101162164D01*
X167835862Y-101161532D01*
X167830347Y-101159820D01*
X167741909Y-101149352D01*
X167738706Y-101148930D01*
X167670991Y-101139112D01*
X167656302Y-101136982D01*
X167656300Y-101136982D01*
X167650590Y-101136154D01*
X167567904Y-101139403D01*
X167562957Y-101139500D01*
X149249571Y-101139500D01*
X149247922Y-101139489D01*
X149246975Y-101139477D01*
X149144346Y-101138133D01*
X149138647Y-101139112D01*
X149128765Y-101139500D01*
X145204917Y-101139500D01*
X145136796Y-101119498D01*
X145090303Y-101065842D01*
X145080199Y-100995568D01*
X145103046Y-100939350D01*
X145141960Y-100885889D01*
X145235787Y-100756984D01*
X145364206Y-100512899D01*
X145456045Y-100252832D01*
X145485973Y-100100991D01*
X145508499Y-99986704D01*
X145508500Y-99986698D01*
X145509380Y-99982232D01*
X145513891Y-99891631D01*
X145522867Y-99711336D01*
X145522867Y-99711330D01*
X145523094Y-99706767D01*
X145496898Y-99432208D01*
X145460272Y-99282527D01*
X145432429Y-99168744D01*
X145431343Y-99164306D01*
X145327801Y-98908674D01*
X145325500Y-98904744D01*
X145325497Y-98904738D01*
X145190745Y-98674597D01*
X145190740Y-98674590D01*
X145188442Y-98670665D01*
X145185595Y-98667105D01*
X145019036Y-98458834D01*
X145019035Y-98458833D01*
X145016184Y-98455268D01*
X144814636Y-98266992D01*
X144588021Y-98109784D01*
X144410667Y-98021551D01*
X144345173Y-97988968D01*
X144345170Y-97988967D01*
X144341086Y-97986935D01*
X144079002Y-97901020D01*
X144074510Y-97900240D01*
X143811043Y-97854494D01*
X143811035Y-97854493D01*
X143807262Y-97853838D01*
X143797029Y-97853329D01*
X143721695Y-97849578D01*
X143721687Y-97849578D01*
X143720124Y-97849500D01*
X143007930Y-97849500D01*
X143005662Y-97849665D01*
X143005650Y-97849665D01*
X142871397Y-97859406D01*
X142802917Y-97864375D01*
X142798462Y-97865359D01*
X142798459Y-97865359D01*
X142538053Y-97922852D01*
X142538050Y-97922853D01*
X142533597Y-97923836D01*
X142275681Y-98021551D01*
X142271694Y-98023765D01*
X142271693Y-98023766D01*
X142087680Y-98125976D01*
X142034572Y-98155475D01*
X141815322Y-98322802D01*
X141812129Y-98326068D01*
X141812127Y-98326070D01*
X141625717Y-98516758D01*
X141625713Y-98516763D01*
X141622523Y-98520026D01*
X141619836Y-98523718D01*
X141619834Y-98523720D01*
X141508661Y-98676456D01*
X141460213Y-98743016D01*
X141331794Y-98987101D01*
X141330277Y-98991397D01*
X141286260Y-99116043D01*
X141244716Y-99173616D01*
X141178641Y-99199589D01*
X141109013Y-99185716D01*
X141078355Y-99163182D01*
X136769357Y-94854185D01*
X136735331Y-94791873D01*
X136740396Y-94721058D01*
X136767968Y-94677405D01*
X136966710Y-94472318D01*
X136969693Y-94469240D01*
X136972226Y-94465792D01*
X136972230Y-94465787D01*
X137142358Y-94234185D01*
X137144896Y-94230730D01*
X137185424Y-94156088D01*
X137284061Y-93974421D01*
X137286109Y-93970649D01*
X137340761Y-93826015D01*
X137389202Y-93697819D01*
X137389203Y-93697816D01*
X137390717Y-93693809D01*
X137437841Y-93488055D01*
X137455830Y-93409514D01*
X137455831Y-93409509D01*
X137456787Y-93405334D01*
X137483095Y-93110562D01*
X137483572Y-93065000D01*
X137481728Y-93037948D01*
X137463735Y-92774018D01*
X137463734Y-92774012D01*
X137463443Y-92769741D01*
X137437233Y-92643177D01*
X137443005Y-92572417D01*
X137471520Y-92528532D01*
X137866079Y-92133973D01*
X137872097Y-92128336D01*
X137916772Y-92089157D01*
X137921119Y-92085345D01*
X137976280Y-92015373D01*
X137978298Y-92012882D01*
X138031521Y-91948890D01*
X138031528Y-91948880D01*
X138035219Y-91944442D01*
X138038042Y-91939401D01*
X138039844Y-91936779D01*
X138046729Y-91926475D01*
X138048448Y-91923829D01*
X138052024Y-91919292D01*
X138056435Y-91910908D01*
X138093465Y-91840527D01*
X138095038Y-91837629D01*
X138135715Y-91764994D01*
X138138537Y-91759955D01*
X138140394Y-91754483D01*
X138141681Y-91751593D01*
X138146588Y-91740171D01*
X138147786Y-91737278D01*
X138150477Y-91732164D01*
X138176870Y-91647167D01*
X138177888Y-91644033D01*
X138204649Y-91565193D01*
X138206504Y-91559729D01*
X138207333Y-91554012D01*
X138208060Y-91550984D01*
X138210833Y-91538730D01*
X138211468Y-91535740D01*
X138213180Y-91530227D01*
X138223646Y-91441800D01*
X138224077Y-91438530D01*
X138236016Y-91356184D01*
X138236845Y-91350470D01*
X138233597Y-91267800D01*
X138233500Y-91262853D01*
X138233500Y-86621917D01*
X138253502Y-86553796D01*
X138307158Y-86507303D01*
X138377432Y-86497199D01*
X138433649Y-86520045D01*
X138616016Y-86652787D01*
X138860101Y-86781206D01*
X139120168Y-86873045D01*
X139219874Y-86892697D01*
X139386296Y-86925499D01*
X139386302Y-86925500D01*
X139390768Y-86926380D01*
X139395322Y-86926607D01*
X139395324Y-86926607D01*
X139661664Y-86939867D01*
X139661670Y-86939867D01*
X139666233Y-86940094D01*
X139940792Y-86913898D01*
X139945226Y-86912813D01*
X139945232Y-86912812D01*
X140204256Y-86849429D01*
X140208694Y-86848343D01*
X140464326Y-86744801D01*
X140468256Y-86742500D01*
X140468262Y-86742497D01*
X140698403Y-86607745D01*
X140698410Y-86607740D01*
X140702335Y-86605442D01*
X140796600Y-86530056D01*
X140914166Y-86436036D01*
X140914167Y-86436035D01*
X140917732Y-86433184D01*
X141066332Y-86274109D01*
X141102892Y-86234972D01*
X141102894Y-86234969D01*
X141106008Y-86231636D01*
X141263216Y-86005021D01*
X141282454Y-85966352D01*
X141384032Y-85762173D01*
X141384033Y-85762170D01*
X141386065Y-85758086D01*
X141471980Y-85496002D01*
X141477970Y-85461506D01*
X141518506Y-85228043D01*
X141518507Y-85228035D01*
X141519162Y-85224262D01*
X141519671Y-85214029D01*
X141523422Y-85138695D01*
X141523422Y-85138687D01*
X141523500Y-85137124D01*
X141523500Y-84424930D01*
X141521289Y-84394446D01*
X141508955Y-84224468D01*
X141508625Y-84219917D01*
X141491108Y-84140574D01*
X141450148Y-83955053D01*
X141450147Y-83955050D01*
X141449164Y-83950597D01*
X141351449Y-83692681D01*
X141349236Y-83688697D01*
X141349230Y-83688684D01*
X141346161Y-83683159D01*
X141330571Y-83613895D01*
X141354902Y-83547198D01*
X141411431Y-83504244D01*
X141456311Y-83495980D01*
X143224736Y-83495980D01*
X143292857Y-83515982D01*
X143313831Y-83532884D01*
X143590805Y-83809857D01*
X143859209Y-84078261D01*
X143893234Y-84140574D01*
X143893222Y-84194198D01*
X143870767Y-84297186D01*
X143863360Y-84391305D01*
X143847988Y-84586621D01*
X143847547Y-84592218D01*
X143864583Y-84887671D01*
X143865408Y-84891876D01*
X143865409Y-84891884D01*
X143869763Y-84914076D01*
X143921559Y-85178079D01*
X143922946Y-85182130D01*
X143975558Y-85335797D01*
X144017420Y-85458068D01*
X144150394Y-85722456D01*
X144174882Y-85758086D01*
X144283363Y-85915928D01*
X144318018Y-85966352D01*
X144517193Y-86185241D01*
X144520482Y-86187991D01*
X144740939Y-86372323D01*
X144740944Y-86372327D01*
X144744231Y-86375075D01*
X144865081Y-86450884D01*
X144991292Y-86530056D01*
X144991296Y-86530058D01*
X144994932Y-86532339D01*
X144998842Y-86534104D01*
X144998843Y-86534105D01*
X145260744Y-86652358D01*
X145260748Y-86652360D01*
X145264656Y-86654124D01*
X145268775Y-86655344D01*
X145544301Y-86736959D01*
X145544305Y-86736960D01*
X145548414Y-86738177D01*
X145552648Y-86738825D01*
X145552653Y-86738826D01*
X145811964Y-86778506D01*
X145840953Y-86782942D01*
X145991665Y-86785309D01*
X146132570Y-86787523D01*
X146132576Y-86787523D01*
X146136861Y-86787590D01*
X146430662Y-86752037D01*
X146434802Y-86750951D01*
X146434812Y-86750949D01*
X146441774Y-86749122D01*
X146512741Y-86751180D01*
X146562848Y-86781901D01*
X147598545Y-87817598D01*
X147604182Y-87823616D01*
X147647166Y-87872630D01*
X147651699Y-87876204D01*
X147651708Y-87876212D01*
X147717076Y-87927743D01*
X147719640Y-87929819D01*
X147783622Y-87983032D01*
X147783626Y-87983035D01*
X147788069Y-87986730D01*
X147793111Y-87989554D01*
X147795732Y-87991355D01*
X147806036Y-87998240D01*
X147808682Y-87999959D01*
X147813219Y-88003535D01*
X147818330Y-88006224D01*
X147818333Y-88006226D01*
X147891984Y-88044976D01*
X147894882Y-88046549D01*
X147957983Y-88081887D01*
X147972556Y-88090048D01*
X147978028Y-88091905D01*
X147980918Y-88093192D01*
X147992340Y-88098099D01*
X147995232Y-88099297D01*
X148000347Y-88101988D01*
X148040560Y-88114475D01*
X148085360Y-88128386D01*
X148088480Y-88129399D01*
X148172781Y-88158015D01*
X148178503Y-88158845D01*
X148181478Y-88159559D01*
X148193797Y-88162347D01*
X148196769Y-88162979D01*
X148202284Y-88164691D01*
X148284374Y-88174407D01*
X148290715Y-88175158D01*
X148293987Y-88175589D01*
X148382040Y-88188356D01*
X148464711Y-88185108D01*
X148469658Y-88185011D01*
X159222452Y-88185011D01*
X159230692Y-88185281D01*
X159295735Y-88189544D01*
X159384180Y-88179075D01*
X159387439Y-88178734D01*
X159424277Y-88175349D01*
X159470295Y-88171121D01*
X159470298Y-88171120D01*
X159476049Y-88170592D01*
X159481611Y-88169023D01*
X159484650Y-88168460D01*
X159496970Y-88166010D01*
X159499983Y-88165369D01*
X159505716Y-88164691D01*
X159511233Y-88162978D01*
X159511237Y-88162977D01*
X159590690Y-88138306D01*
X159593853Y-88137369D01*
X159673996Y-88114767D01*
X159674010Y-88114762D01*
X159679558Y-88113197D01*
X159684733Y-88110645D01*
X159687622Y-88109536D01*
X159699241Y-88104900D01*
X159702136Y-88103701D01*
X159707652Y-88101988D01*
X159768326Y-88070066D01*
X159837924Y-88056050D01*
X159904052Y-88081887D01*
X159945715Y-88139374D01*
X159952422Y-88169607D01*
X159954680Y-88193274D01*
X159976102Y-88417792D01*
X159977187Y-88422226D01*
X159977188Y-88422232D01*
X160040571Y-88681256D01*
X160041657Y-88685694D01*
X160145199Y-88941326D01*
X160147500Y-88945256D01*
X160147503Y-88945262D01*
X160282255Y-89175403D01*
X160282260Y-89175410D01*
X160284558Y-89179335D01*
X160287405Y-89182895D01*
X160372592Y-89289416D01*
X160399516Y-89355109D01*
X160386650Y-89424930D01*
X160376061Y-89442259D01*
X160237213Y-89633016D01*
X160108794Y-89877101D01*
X160016955Y-90137168D01*
X160008195Y-90181611D01*
X159967934Y-90385882D01*
X159963620Y-90407768D01*
X159963393Y-90412322D01*
X159963393Y-90412324D01*
X159955420Y-90572485D01*
X159949906Y-90683233D01*
X159976102Y-90957792D01*
X159977187Y-90962226D01*
X159977188Y-90962232D01*
X160019954Y-91137000D01*
X160041657Y-91225694D01*
X160145199Y-91481326D01*
X160147500Y-91485256D01*
X160147503Y-91485262D01*
X160282255Y-91715403D01*
X160282260Y-91715410D01*
X160284558Y-91719335D01*
X160287405Y-91722895D01*
X160372592Y-91829416D01*
X160399516Y-91895109D01*
X160386650Y-91964930D01*
X160376060Y-91982261D01*
X160265632Y-92133973D01*
X160237213Y-92173016D01*
X160108794Y-92417101D01*
X160016955Y-92677168D01*
X160016075Y-92681634D01*
X159969176Y-92919581D01*
X159963620Y-92947768D01*
X159963393Y-92952322D01*
X159963393Y-92952324D01*
X159951128Y-93198691D01*
X159949906Y-93223233D01*
X159976102Y-93497792D01*
X159977187Y-93502226D01*
X159977188Y-93502232D01*
X160006955Y-93623878D01*
X160041657Y-93765694D01*
X160145199Y-94021326D01*
X160147500Y-94025256D01*
X160147503Y-94025262D01*
X160282255Y-94255403D01*
X160282260Y-94255410D01*
X160284558Y-94259335D01*
X160287405Y-94262895D01*
X160405028Y-94409974D01*
X160456816Y-94474732D01*
X160460157Y-94477853D01*
X160628640Y-94635241D01*
X160658364Y-94663008D01*
X160884979Y-94820216D01*
X160889055Y-94822244D01*
X160889057Y-94822245D01*
X161127827Y-94941032D01*
X161127830Y-94941033D01*
X161131914Y-94943065D01*
X161393998Y-95028980D01*
X161398489Y-95029760D01*
X161398490Y-95029760D01*
X161661957Y-95075506D01*
X161661965Y-95075507D01*
X161665738Y-95076162D01*
X161669575Y-95076353D01*
X161751305Y-95080422D01*
X161751313Y-95080422D01*
X161752876Y-95080500D01*
X162465070Y-95080500D01*
X162467338Y-95080335D01*
X162467350Y-95080335D01*
X162601603Y-95070594D01*
X162670083Y-95065625D01*
X162674538Y-95064641D01*
X162674541Y-95064641D01*
X162934947Y-95007148D01*
X162934950Y-95007147D01*
X162939403Y-95006164D01*
X163197319Y-94908449D01*
X163438428Y-94774525D01*
X163657678Y-94607198D01*
X163660873Y-94603930D01*
X163847283Y-94413242D01*
X163847287Y-94413237D01*
X163850477Y-94409974D01*
X163870723Y-94382159D01*
X163926983Y-94338854D01*
X163957783Y-94331183D01*
X164013675Y-94324567D01*
X164016950Y-94324223D01*
X164036773Y-94322401D01*
X164099806Y-94316610D01*
X164099809Y-94316609D01*
X164105560Y-94316081D01*
X164111122Y-94314512D01*
X164114161Y-94313949D01*
X164126481Y-94311499D01*
X164129494Y-94310858D01*
X164135227Y-94310180D01*
X164140744Y-94308467D01*
X164140748Y-94308466D01*
X164220201Y-94283795D01*
X164223364Y-94282858D01*
X164303507Y-94260256D01*
X164303521Y-94260251D01*
X164309069Y-94258686D01*
X164314244Y-94256134D01*
X164317133Y-94255025D01*
X164328752Y-94250389D01*
X164331646Y-94249190D01*
X164337163Y-94247477D01*
X164415936Y-94206033D01*
X164418867Y-94204539D01*
X164493524Y-94167723D01*
X164493529Y-94167720D01*
X164498710Y-94165165D01*
X164503341Y-94161707D01*
X164506035Y-94160056D01*
X164516618Y-94153379D01*
X164519191Y-94151708D01*
X164524292Y-94149024D01*
X164594215Y-94093902D01*
X164596817Y-94091905D01*
X164663509Y-94042104D01*
X164663510Y-94042103D01*
X164668133Y-94038651D01*
X164724311Y-93977878D01*
X164727740Y-93974313D01*
X168126647Y-90575406D01*
X168132665Y-90569769D01*
X168181679Y-90526785D01*
X168185253Y-90522252D01*
X168185261Y-90522243D01*
X168236792Y-90456875D01*
X168238868Y-90454311D01*
X168292081Y-90390329D01*
X168292084Y-90390325D01*
X168295779Y-90385882D01*
X168298603Y-90380840D01*
X168300404Y-90378219D01*
X168307289Y-90367915D01*
X168309008Y-90365269D01*
X168312584Y-90360732D01*
X168315275Y-90355618D01*
X168354025Y-90281967D01*
X168355598Y-90279069D01*
X168396275Y-90206434D01*
X168399097Y-90201395D01*
X168400954Y-90195923D01*
X168402241Y-90193033D01*
X168407148Y-90181611D01*
X168408346Y-90178719D01*
X168411037Y-90173604D01*
X168437435Y-90088591D01*
X168438453Y-90085456D01*
X168467064Y-90001170D01*
X168467894Y-89995448D01*
X168468608Y-89992473D01*
X168471396Y-89980154D01*
X168472028Y-89977182D01*
X168473740Y-89971667D01*
X168484207Y-89883236D01*
X168484638Y-89879967D01*
X168496576Y-89797626D01*
X168497405Y-89791911D01*
X168494157Y-89709240D01*
X168494060Y-89704293D01*
X168494060Y-77682458D01*
X168514062Y-77614337D01*
X168567718Y-77567844D01*
X168637992Y-77557740D01*
X168662016Y-77563648D01*
X168673898Y-77567844D01*
X168915168Y-77653045D01*
X168982789Y-77666373D01*
X169181296Y-77705499D01*
X169181302Y-77705500D01*
X169185768Y-77706380D01*
X169190322Y-77706607D01*
X169190324Y-77706607D01*
X169456664Y-77719867D01*
X169456670Y-77719867D01*
X169461233Y-77720094D01*
X169735792Y-77693898D01*
X169740226Y-77692813D01*
X169740232Y-77692812D01*
X169999256Y-77629429D01*
X170003694Y-77628343D01*
X170259326Y-77524801D01*
X170263256Y-77522500D01*
X170263262Y-77522497D01*
X170493403Y-77387745D01*
X170493410Y-77387740D01*
X170497335Y-77385442D01*
X170583676Y-77316393D01*
X170607416Y-77297408D01*
X170673109Y-77270484D01*
X170742930Y-77283350D01*
X170760259Y-77293939D01*
X170791108Y-77316393D01*
X170924971Y-77413829D01*
X170951016Y-77432787D01*
X171195101Y-77561206D01*
X171455168Y-77653045D01*
X171522789Y-77666373D01*
X171721296Y-77705499D01*
X171721302Y-77705500D01*
X171725768Y-77706380D01*
X171730322Y-77706607D01*
X171730324Y-77706607D01*
X171996664Y-77719867D01*
X171996670Y-77719867D01*
X172001233Y-77720094D01*
X172275792Y-77693898D01*
X172280226Y-77692813D01*
X172280232Y-77692812D01*
X172539256Y-77629429D01*
X172543694Y-77628343D01*
X172799326Y-77524801D01*
X172803256Y-77522500D01*
X172803262Y-77522497D01*
X173033403Y-77387745D01*
X173033410Y-77387740D01*
X173037335Y-77385442D01*
X173123676Y-77316393D01*
X173147416Y-77297408D01*
X173213109Y-77270484D01*
X173282930Y-77283350D01*
X173300259Y-77293939D01*
X173331108Y-77316393D01*
X173464971Y-77413829D01*
X173491016Y-77432787D01*
X173735101Y-77561206D01*
X173995168Y-77653045D01*
X174062789Y-77666373D01*
X174261296Y-77705499D01*
X174261302Y-77705500D01*
X174265768Y-77706380D01*
X174270322Y-77706607D01*
X174270324Y-77706607D01*
X174536664Y-77719867D01*
X174536670Y-77719867D01*
X174541233Y-77720094D01*
X174815792Y-77693898D01*
X174820226Y-77692813D01*
X174820232Y-77692812D01*
X175079256Y-77629429D01*
X175083694Y-77628343D01*
X175339326Y-77524801D01*
X175343256Y-77522500D01*
X175343262Y-77522497D01*
X175573403Y-77387745D01*
X175573410Y-77387740D01*
X175577335Y-77385442D01*
X175602401Y-77365396D01*
X175789166Y-77216036D01*
X175789167Y-77216035D01*
X175792732Y-77213184D01*
X175981008Y-77011636D01*
X176138216Y-76785021D01*
X176261065Y-76538086D01*
X176346980Y-76276002D01*
X176369011Y-76149116D01*
X176393506Y-76008043D01*
X176393507Y-76008035D01*
X176394162Y-76004262D01*
X176398500Y-75917124D01*
X176398500Y-75244930D01*
X176396289Y-75214446D01*
X176383955Y-75044468D01*
X176383625Y-75039917D01*
X176342578Y-74853998D01*
X176325148Y-74775053D01*
X176325147Y-74775050D01*
X176324164Y-74770597D01*
X176226449Y-74512681D01*
X176192090Y-74450822D01*
X176094743Y-74275565D01*
X176094742Y-74275564D01*
X176092525Y-74271572D01*
X175938793Y-74070135D01*
X175927970Y-74055954D01*
X175927969Y-74055953D01*
X175925198Y-74052322D01*
X175874108Y-74002378D01*
X175731242Y-73862717D01*
X175731237Y-73862713D01*
X175727974Y-73859523D01*
X175724280Y-73856834D01*
X175508676Y-73699900D01*
X175508673Y-73699898D01*
X175504984Y-73697213D01*
X175260899Y-73568794D01*
X175000832Y-73476955D01*
X174901126Y-73457303D01*
X174734704Y-73424501D01*
X174734698Y-73424500D01*
X174730232Y-73423620D01*
X174725678Y-73423393D01*
X174725676Y-73423393D01*
X174459336Y-73410133D01*
X174459330Y-73410133D01*
X174454767Y-73409906D01*
X174180208Y-73436102D01*
X174175774Y-73437187D01*
X174175768Y-73437188D01*
X173916744Y-73500571D01*
X173912306Y-73501657D01*
X173656674Y-73605199D01*
X173652744Y-73607500D01*
X173652738Y-73607503D01*
X173422597Y-73742255D01*
X173422590Y-73742260D01*
X173418665Y-73744558D01*
X173415105Y-73747405D01*
X173308584Y-73832592D01*
X173242891Y-73859516D01*
X173173070Y-73846650D01*
X173155739Y-73836060D01*
X173150975Y-73832592D01*
X173033942Y-73747406D01*
X172968676Y-73699900D01*
X172968673Y-73699898D01*
X172964984Y-73697213D01*
X172720899Y-73568794D01*
X172460832Y-73476955D01*
X172361126Y-73457303D01*
X172194704Y-73424501D01*
X172194698Y-73424500D01*
X172190232Y-73423620D01*
X172185678Y-73423393D01*
X172185676Y-73423393D01*
X171919336Y-73410133D01*
X171919330Y-73410133D01*
X171914767Y-73409906D01*
X171640208Y-73436102D01*
X171635774Y-73437187D01*
X171635768Y-73437188D01*
X171376744Y-73500571D01*
X171372306Y-73501657D01*
X171116674Y-73605199D01*
X171112744Y-73607500D01*
X171112738Y-73607503D01*
X170882597Y-73742255D01*
X170882590Y-73742260D01*
X170878665Y-73744558D01*
X170875105Y-73747405D01*
X170768584Y-73832592D01*
X170702891Y-73859516D01*
X170633070Y-73846650D01*
X170615739Y-73836060D01*
X170610975Y-73832592D01*
X170493942Y-73747406D01*
X170428676Y-73699900D01*
X170428673Y-73699898D01*
X170424984Y-73697213D01*
X170180899Y-73568794D01*
X169920832Y-73476955D01*
X169821126Y-73457303D01*
X169654704Y-73424501D01*
X169654698Y-73424500D01*
X169650232Y-73423620D01*
X169645678Y-73423393D01*
X169645676Y-73423393D01*
X169379336Y-73410133D01*
X169379330Y-73410133D01*
X169374767Y-73409906D01*
X169100208Y-73436102D01*
X169095774Y-73437187D01*
X169095768Y-73437188D01*
X168836744Y-73500571D01*
X168832306Y-73501657D01*
X168576674Y-73605199D01*
X168572744Y-73607500D01*
X168572738Y-73607503D01*
X168342597Y-73742255D01*
X168342590Y-73742260D01*
X168338665Y-73744558D01*
X168335105Y-73747405D01*
X168228584Y-73832592D01*
X168162891Y-73859516D01*
X168093070Y-73846650D01*
X168075739Y-73836060D01*
X168070975Y-73832592D01*
X167953942Y-73747406D01*
X167888676Y-73699900D01*
X167888673Y-73699898D01*
X167884984Y-73697213D01*
X167640899Y-73568794D01*
X167380832Y-73476955D01*
X167281126Y-73457303D01*
X167114704Y-73424501D01*
X167114698Y-73424500D01*
X167110232Y-73423620D01*
X167105678Y-73423393D01*
X167105676Y-73423393D01*
X166839336Y-73410133D01*
X166839330Y-73410133D01*
X166834767Y-73409906D01*
X166560208Y-73436102D01*
X166555774Y-73437187D01*
X166555768Y-73437188D01*
X166296744Y-73500571D01*
X166292306Y-73501657D01*
X166036674Y-73605199D01*
X166032744Y-73607500D01*
X166032738Y-73607503D01*
X165802597Y-73742255D01*
X165802590Y-73742260D01*
X165798665Y-73744558D01*
X165795105Y-73747405D01*
X165688584Y-73832592D01*
X165622891Y-73859516D01*
X165553070Y-73846650D01*
X165535739Y-73836060D01*
X165530975Y-73832592D01*
X165413942Y-73747406D01*
X165348676Y-73699900D01*
X165348673Y-73699898D01*
X165344984Y-73697213D01*
X165100899Y-73568794D01*
X164840832Y-73476955D01*
X164741126Y-73457303D01*
X164574704Y-73424501D01*
X164574698Y-73424500D01*
X164570232Y-73423620D01*
X164565678Y-73423393D01*
X164565676Y-73423393D01*
X164299336Y-73410133D01*
X164299330Y-73410133D01*
X164294767Y-73409906D01*
X164020208Y-73436102D01*
X164015774Y-73437187D01*
X164015768Y-73437188D01*
X163756744Y-73500571D01*
X163752306Y-73501657D01*
X163496674Y-73605199D01*
X163492744Y-73607500D01*
X163492738Y-73607503D01*
X163262597Y-73742255D01*
X163262590Y-73742260D01*
X163258665Y-73744558D01*
X163255105Y-73747405D01*
X163148584Y-73832592D01*
X163082891Y-73859516D01*
X163013070Y-73846650D01*
X162995739Y-73836060D01*
X162990975Y-73832592D01*
X162873942Y-73747406D01*
X162808676Y-73699900D01*
X162808673Y-73699898D01*
X162804984Y-73697213D01*
X162560899Y-73568794D01*
X162300832Y-73476955D01*
X162201126Y-73457303D01*
X162034704Y-73424501D01*
X162034698Y-73424500D01*
X162030232Y-73423620D01*
X162025678Y-73423393D01*
X162025676Y-73423393D01*
X161759336Y-73410133D01*
X161759330Y-73410133D01*
X161754767Y-73409906D01*
X161480208Y-73436102D01*
X161475774Y-73437187D01*
X161475768Y-73437188D01*
X161216744Y-73500571D01*
X161212306Y-73501657D01*
X160956674Y-73605199D01*
X160952744Y-73607500D01*
X160952738Y-73607503D01*
X160722597Y-73742255D01*
X160722590Y-73742260D01*
X160718665Y-73744558D01*
X160715105Y-73747405D01*
X160608584Y-73832592D01*
X160542891Y-73859516D01*
X160473070Y-73846650D01*
X160455739Y-73836060D01*
X160450975Y-73832592D01*
X160333942Y-73747406D01*
X160268676Y-73699900D01*
X160268673Y-73699898D01*
X160264984Y-73697213D01*
X160020899Y-73568794D01*
X159760832Y-73476955D01*
X159661126Y-73457303D01*
X159494704Y-73424501D01*
X159494698Y-73424500D01*
X159490232Y-73423620D01*
X159485678Y-73423393D01*
X159485676Y-73423393D01*
X159219336Y-73410133D01*
X159219330Y-73410133D01*
X159214767Y-73409906D01*
X158940208Y-73436102D01*
X158935774Y-73437187D01*
X158935768Y-73437188D01*
X158676744Y-73500571D01*
X158672306Y-73501657D01*
X158416674Y-73605199D01*
X158412744Y-73607500D01*
X158412738Y-73607503D01*
X158182597Y-73742255D01*
X158182590Y-73742260D01*
X158178665Y-73744558D01*
X158175105Y-73747405D01*
X158068584Y-73832592D01*
X158002891Y-73859516D01*
X157933070Y-73846650D01*
X157915739Y-73836060D01*
X157910975Y-73832592D01*
X157793942Y-73747406D01*
X157728676Y-73699900D01*
X157728673Y-73699898D01*
X157724984Y-73697213D01*
X157480899Y-73568794D01*
X157220832Y-73476955D01*
X157121126Y-73457303D01*
X156954704Y-73424501D01*
X156954698Y-73424500D01*
X156950232Y-73423620D01*
X156945678Y-73423393D01*
X156945676Y-73423393D01*
X156679336Y-73410133D01*
X156679330Y-73410133D01*
X156674767Y-73409906D01*
X156400208Y-73436102D01*
X156395774Y-73437187D01*
X156395768Y-73437188D01*
X156136744Y-73500571D01*
X156132306Y-73501657D01*
X155876674Y-73605199D01*
X155872744Y-73607500D01*
X155872738Y-73607503D01*
X155642597Y-73742255D01*
X155642590Y-73742260D01*
X155638665Y-73744558D01*
X155635105Y-73747405D01*
X155445401Y-73899116D01*
X155423268Y-73916816D01*
X155420147Y-73920157D01*
X155264917Y-74086330D01*
X155234992Y-74118364D01*
X155077784Y-74344979D01*
X155075756Y-74349055D01*
X155075755Y-74349057D01*
X154997231Y-74506897D01*
X154954935Y-74591914D01*
X154869020Y-74853998D01*
X154868240Y-74858489D01*
X154868240Y-74858490D01*
X154835949Y-75044468D01*
X154821838Y-75125738D01*
X154817500Y-75212876D01*
X154817500Y-75885070D01*
X154817665Y-75887338D01*
X154817665Y-75887350D01*
X154825870Y-76000425D01*
X154832375Y-76090083D01*
X154833359Y-76094538D01*
X154833359Y-76094541D01*
X154874379Y-76280335D01*
X154891836Y-76359403D01*
X154989551Y-76617319D01*
X154991765Y-76621306D01*
X154991766Y-76621307D01*
X155121257Y-76854435D01*
X155123475Y-76858428D01*
X155290802Y-77077678D01*
X155294068Y-77080871D01*
X155294070Y-77080873D01*
X155484758Y-77267283D01*
X155484763Y-77267287D01*
X155488026Y-77270477D01*
X155491718Y-77273164D01*
X155491720Y-77273166D01*
X155684971Y-77413829D01*
X155711016Y-77432787D01*
X155955101Y-77561206D01*
X156215168Y-77653045D01*
X156282789Y-77666373D01*
X156481296Y-77705499D01*
X156481302Y-77705500D01*
X156485768Y-77706380D01*
X156490322Y-77706607D01*
X156490324Y-77706607D01*
X156756664Y-77719867D01*
X156756670Y-77719867D01*
X156761233Y-77720094D01*
X157035792Y-77693898D01*
X157040226Y-77692813D01*
X157040232Y-77692812D01*
X157299256Y-77629429D01*
X157303694Y-77628343D01*
X157559326Y-77524801D01*
X157563256Y-77522500D01*
X157563262Y-77522497D01*
X157793403Y-77387745D01*
X157793410Y-77387740D01*
X157797335Y-77385442D01*
X157883676Y-77316393D01*
X157907416Y-77297408D01*
X157973109Y-77270484D01*
X158042930Y-77283350D01*
X158060259Y-77293939D01*
X158091108Y-77316393D01*
X158224971Y-77413829D01*
X158251016Y-77432787D01*
X158495101Y-77561206D01*
X158755168Y-77653045D01*
X158822789Y-77666373D01*
X159021296Y-77705499D01*
X159021302Y-77705500D01*
X159025768Y-77706380D01*
X159030322Y-77706607D01*
X159030324Y-77706607D01*
X159296664Y-77719867D01*
X159296670Y-77719867D01*
X159301233Y-77720094D01*
X159575792Y-77693898D01*
X159580226Y-77692813D01*
X159580232Y-77692812D01*
X159839256Y-77629429D01*
X159843694Y-77628343D01*
X160099326Y-77524801D01*
X160103256Y-77522500D01*
X160103262Y-77522497D01*
X160333403Y-77387745D01*
X160333410Y-77387740D01*
X160337335Y-77385442D01*
X160423676Y-77316393D01*
X160447416Y-77297408D01*
X160513109Y-77270484D01*
X160582930Y-77283350D01*
X160600259Y-77293939D01*
X160610234Y-77301199D01*
X160705616Y-77370626D01*
X160742974Y-77413829D01*
X160771963Y-77468927D01*
X160773461Y-77471867D01*
X160810277Y-77546524D01*
X160810280Y-77546529D01*
X160812835Y-77551710D01*
X160816293Y-77556341D01*
X160817944Y-77559035D01*
X160824621Y-77569618D01*
X160826292Y-77572191D01*
X160828976Y-77577292D01*
X160860677Y-77617504D01*
X160884087Y-77647200D01*
X160886083Y-77649801D01*
X160910469Y-77682458D01*
X160927675Y-77705499D01*
X160939349Y-77721133D01*
X161000121Y-77777310D01*
X161003687Y-77780740D01*
X163357115Y-80134167D01*
X163391140Y-80196479D01*
X163394020Y-80223262D01*
X163394020Y-81634001D01*
X163374018Y-81702122D01*
X163320362Y-81748615D01*
X163250088Y-81758719D01*
X163208478Y-81745045D01*
X163005148Y-81636020D01*
X162995901Y-81631980D01*
X162776029Y-81556273D01*
X162766257Y-81553764D01*
X162536029Y-81513996D01*
X162528157Y-81513141D01*
X162504449Y-81512064D01*
X162501616Y-81512000D01*
X162397115Y-81512000D01*
X162381876Y-81516475D01*
X162380671Y-81517865D01*
X162379000Y-81525548D01*
X162379000Y-83148000D01*
X162358998Y-83216121D01*
X162305342Y-83262614D01*
X162253000Y-83274000D01*
X160384410Y-83274000D01*
X160370324Y-83278136D01*
X160368275Y-83291114D01*
X160370325Y-83308830D01*
X160372285Y-83318727D01*
X160435604Y-83542494D01*
X160439116Y-83551938D01*
X160537399Y-83762705D01*
X160542378Y-83771470D01*
X160654099Y-83935862D01*
X160675845Y-84003447D01*
X160657601Y-84072059D01*
X160626330Y-84106847D01*
X160595956Y-84130028D01*
X160595951Y-84130032D01*
X160592322Y-84132802D01*
X160589129Y-84136068D01*
X160589127Y-84136070D01*
X160402717Y-84326758D01*
X160402713Y-84326763D01*
X160399523Y-84330026D01*
X160396835Y-84333718D01*
X160396834Y-84333720D01*
X160288202Y-84482964D01*
X160245001Y-84520321D01*
X160219075Y-84533962D01*
X160216133Y-84535461D01*
X160141476Y-84572277D01*
X160141471Y-84572280D01*
X160136290Y-84574835D01*
X160131659Y-84578293D01*
X160128965Y-84579944D01*
X160118382Y-84586621D01*
X160115809Y-84588292D01*
X160110708Y-84590976D01*
X160077082Y-84617485D01*
X160040800Y-84646087D01*
X160038199Y-84648083D01*
X159966867Y-84701349D01*
X159910690Y-84762121D01*
X159907260Y-84765687D01*
X159358407Y-85314541D01*
X158825842Y-85847106D01*
X158763530Y-85881131D01*
X158736747Y-85884011D01*
X152551556Y-85884011D01*
X152483435Y-85864009D01*
X152436942Y-85810353D01*
X152426838Y-85740079D01*
X152448166Y-85688807D01*
X152446956Y-85688028D01*
X152587391Y-85469697D01*
X152591838Y-85461506D01*
X152696536Y-85229085D01*
X152699731Y-85220307D01*
X152768923Y-84974968D01*
X152770781Y-84965839D01*
X152803144Y-84711444D01*
X152803625Y-84705158D01*
X152805903Y-84618160D01*
X152805752Y-84611851D01*
X152786747Y-84356110D01*
X152785370Y-84346904D01*
X152729109Y-84098262D01*
X152726385Y-84089351D01*
X152633990Y-83851758D01*
X152629979Y-83843349D01*
X152503482Y-83622027D01*
X152498269Y-83614298D01*
X152458633Y-83564019D01*
X152446709Y-83555549D01*
X152435174Y-83562036D01*
X151112095Y-84885115D01*
X151049783Y-84919141D01*
X150978968Y-84914076D01*
X150933905Y-84885115D01*
X149610119Y-83561329D01*
X149596811Y-83554062D01*
X149586772Y-83561184D01*
X149574433Y-83576020D01*
X149569018Y-83583612D01*
X149436776Y-83801540D01*
X149432538Y-83809857D01*
X149333961Y-84044935D01*
X149331000Y-84053785D01*
X149268255Y-84300849D01*
X149266633Y-84310046D01*
X149241094Y-84563673D01*
X149240849Y-84572999D01*
X149253080Y-84827619D01*
X149254217Y-84836879D01*
X149303947Y-85086894D01*
X149306441Y-85095887D01*
X149392578Y-85335797D01*
X149396378Y-85344332D01*
X149517031Y-85568877D01*
X149522042Y-85576744D01*
X149601105Y-85682622D01*
X149625837Y-85749172D01*
X149610663Y-85818528D01*
X149560401Y-85868670D01*
X149500147Y-85884011D01*
X148971254Y-85884011D01*
X148903133Y-85864009D01*
X148882159Y-85847106D01*
X148187268Y-85152215D01*
X148153242Y-85089903D01*
X148153543Y-85034990D01*
X148170830Y-84959514D01*
X148170831Y-84959509D01*
X148171787Y-84955334D01*
X148198095Y-84660562D01*
X148198572Y-84615000D01*
X148195709Y-84572999D01*
X148178735Y-84324018D01*
X148178734Y-84324012D01*
X148178443Y-84319741D01*
X148174657Y-84301456D01*
X148119299Y-84034143D01*
X148118430Y-84029946D01*
X148019641Y-83750976D01*
X148010795Y-83733836D01*
X147885872Y-83491802D01*
X147885872Y-83491801D01*
X147883907Y-83487995D01*
X147745537Y-83291114D01*
X147716204Y-83249378D01*
X147716203Y-83249377D01*
X147713737Y-83245868D01*
X147661224Y-83189357D01*
X149961770Y-83189357D01*
X149966343Y-83199133D01*
X151010188Y-84242978D01*
X151024132Y-84250592D01*
X151025965Y-84250461D01*
X151032580Y-84246210D01*
X152075790Y-83203000D01*
X152082174Y-83191310D01*
X152072762Y-83179199D01*
X151931776Y-83081392D01*
X151923741Y-83076659D01*
X151695106Y-82963909D01*
X151686473Y-82960421D01*
X151443675Y-82882701D01*
X151434624Y-82880528D01*
X151183009Y-82839550D01*
X151173720Y-82838738D01*
X150918828Y-82835401D01*
X150909517Y-82835971D01*
X150656927Y-82870347D01*
X150647808Y-82872285D01*
X150403084Y-82943616D01*
X150394331Y-82946888D01*
X150162837Y-83053608D01*
X150154682Y-83058128D01*
X149970907Y-83178616D01*
X149961770Y-83189357D01*
X147661224Y-83189357D01*
X147539279Y-83058128D01*
X147515199Y-83032215D01*
X147515198Y-83032214D01*
X147512282Y-83029076D01*
X147506582Y-83024410D01*
X147286586Y-82844347D01*
X147283268Y-82841631D01*
X147230807Y-82809483D01*
X147130908Y-82748264D01*
X160371179Y-82748264D01*
X160372302Y-82762325D01*
X160382410Y-82766000D01*
X161852885Y-82766000D01*
X161868124Y-82761525D01*
X161869329Y-82760135D01*
X161871000Y-82752452D01*
X161871000Y-81530115D01*
X161866525Y-81514876D01*
X161865135Y-81513671D01*
X161857452Y-81512000D01*
X161796544Y-81512000D01*
X161791512Y-81512202D01*
X161618157Y-81526150D01*
X161608204Y-81527762D01*
X161382367Y-81583233D01*
X161372797Y-81586416D01*
X161158735Y-81677280D01*
X161149793Y-81681955D01*
X160953013Y-81805874D01*
X160944940Y-81811914D01*
X160770500Y-81965703D01*
X160763496Y-81972956D01*
X160615890Y-82152654D01*
X160610134Y-82160936D01*
X160493159Y-82361919D01*
X160488797Y-82371024D01*
X160405463Y-82588115D01*
X160402612Y-82597804D01*
X160371179Y-82748264D01*
X147130908Y-82748264D01*
X147034584Y-82689236D01*
X147034576Y-82689232D01*
X147030934Y-82687000D01*
X147027017Y-82685281D01*
X147027014Y-82685279D01*
X146863214Y-82613376D01*
X146759949Y-82568046D01*
X146755821Y-82566870D01*
X146755818Y-82566869D01*
X146560796Y-82511316D01*
X146475327Y-82486969D01*
X146255528Y-82455688D01*
X146186587Y-82445876D01*
X146186585Y-82445876D01*
X146182335Y-82445271D01*
X146178046Y-82445249D01*
X146178039Y-82445248D01*
X145890681Y-82443743D01*
X145890674Y-82443743D01*
X145886395Y-82443721D01*
X145882151Y-82444280D01*
X145882147Y-82444280D01*
X145597232Y-82481789D01*
X145597225Y-82481790D01*
X145596339Y-82481907D01*
X145596338Y-82481907D01*
X145592982Y-82482349D01*
X145592884Y-82481607D01*
X145525825Y-82475781D01*
X145482560Y-82447507D01*
X144597446Y-81562394D01*
X144591809Y-81556375D01*
X144565302Y-81526150D01*
X144548825Y-81507361D01*
X144478853Y-81452200D01*
X144476362Y-81450182D01*
X144412370Y-81396959D01*
X144412360Y-81396952D01*
X144407922Y-81393261D01*
X144402881Y-81390438D01*
X144400259Y-81388636D01*
X144389955Y-81381751D01*
X144387309Y-81380032D01*
X144382772Y-81376456D01*
X144377661Y-81373767D01*
X144377658Y-81373765D01*
X144304007Y-81335015D01*
X144301109Y-81333442D01*
X144228474Y-81292765D01*
X144223435Y-81289943D01*
X144217963Y-81288086D01*
X144215073Y-81286799D01*
X144203651Y-81281892D01*
X144200758Y-81280694D01*
X144195644Y-81278003D01*
X144141951Y-81261331D01*
X144110647Y-81251610D01*
X144107513Y-81250592D01*
X144028671Y-81223830D01*
X144028670Y-81223830D01*
X144023209Y-81221976D01*
X144017497Y-81221148D01*
X144014570Y-81220445D01*
X144002194Y-81217644D01*
X143999222Y-81217012D01*
X143993707Y-81215300D01*
X143905269Y-81204832D01*
X143902066Y-81204410D01*
X143835165Y-81194710D01*
X143819662Y-81192462D01*
X143819660Y-81192462D01*
X143813950Y-81191634D01*
X143731264Y-81194883D01*
X143726317Y-81194980D01*
X138772568Y-81194980D01*
X138764327Y-81194710D01*
X138705044Y-81190824D01*
X138705042Y-81190824D01*
X138699274Y-81190446D01*
X138610847Y-81200913D01*
X138607584Y-81201256D01*
X138518960Y-81209399D01*
X138513395Y-81210969D01*
X138510236Y-81211554D01*
X138498127Y-81213962D01*
X138495024Y-81214622D01*
X138489293Y-81215300D01*
X138457402Y-81225203D01*
X138404319Y-81241685D01*
X138401156Y-81242622D01*
X138321013Y-81265224D01*
X138320999Y-81265229D01*
X138315451Y-81266794D01*
X138310276Y-81269346D01*
X138307387Y-81270455D01*
X138295768Y-81275091D01*
X138292874Y-81276290D01*
X138287357Y-81278003D01*
X138282245Y-81280693D01*
X138282244Y-81280693D01*
X138208593Y-81319443D01*
X138205653Y-81320941D01*
X138130996Y-81357757D01*
X138130991Y-81357760D01*
X138125810Y-81360315D01*
X138121179Y-81363773D01*
X138118485Y-81365424D01*
X138107902Y-81372101D01*
X138105329Y-81373772D01*
X138100228Y-81376456D01*
X138095697Y-81380028D01*
X138030320Y-81431567D01*
X138027719Y-81433563D01*
X137956387Y-81486829D01*
X137931575Y-81513671D01*
X137900210Y-81547601D01*
X137896780Y-81551167D01*
X136870906Y-82577041D01*
X136808594Y-82611067D01*
X136793779Y-82613376D01*
X136790742Y-82613666D01*
X136769762Y-82615667D01*
X136769756Y-82615668D01*
X136765208Y-82616102D01*
X136497306Y-82681657D01*
X136241674Y-82785199D01*
X136237744Y-82787500D01*
X136237738Y-82787503D01*
X136007597Y-82922255D01*
X136007590Y-82922260D01*
X136003665Y-82924558D01*
X136000105Y-82927405D01*
X135807555Y-83081392D01*
X135788268Y-83096816D01*
X135785147Y-83100157D01*
X135620804Y-83276085D01*
X135559686Y-83312211D01*
X135488739Y-83309559D01*
X135448753Y-83287437D01*
X135410348Y-83255891D01*
X135402067Y-83250135D01*
X135201081Y-83133159D01*
X135191976Y-83128797D01*
X134974885Y-83045463D01*
X134965196Y-83042612D01*
X134814736Y-83011179D01*
X134800675Y-83012302D01*
X134797000Y-83022410D01*
X134797000Y-86505590D01*
X134801136Y-86519676D01*
X134814114Y-86521725D01*
X134831830Y-86519675D01*
X134841727Y-86517715D01*
X135065494Y-86454396D01*
X135074938Y-86450884D01*
X135285705Y-86352601D01*
X135294470Y-86347622D01*
X135458862Y-86235901D01*
X135526447Y-86214155D01*
X135595059Y-86232399D01*
X135629847Y-86263670D01*
X135653028Y-86294044D01*
X135653030Y-86294046D01*
X135655802Y-86297678D01*
X135659068Y-86300871D01*
X135659070Y-86300873D01*
X135849758Y-86487283D01*
X135849763Y-86487287D01*
X135853026Y-86490477D01*
X135856718Y-86493165D01*
X135856720Y-86493166D01*
X135880650Y-86510584D01*
X135923955Y-86566844D01*
X135932500Y-86612455D01*
X135932500Y-90761257D01*
X135912498Y-90829378D01*
X135895595Y-90850352D01*
X135847435Y-90898512D01*
X135785123Y-90932538D01*
X135740589Y-90934160D01*
X135545957Y-90906460D01*
X135471587Y-90895876D01*
X135471585Y-90895876D01*
X135467335Y-90895271D01*
X135463046Y-90895249D01*
X135463039Y-90895248D01*
X135175681Y-90893743D01*
X135175674Y-90893743D01*
X135171395Y-90893721D01*
X135167151Y-90894280D01*
X135167147Y-90894280D01*
X135038305Y-90911242D01*
X134877982Y-90932349D01*
X134873842Y-90933482D01*
X134873840Y-90933482D01*
X134596672Y-91009307D01*
X134592527Y-91010441D01*
X134570653Y-91019771D01*
X134324253Y-91124869D01*
X134324246Y-91124873D01*
X134320311Y-91126551D01*
X134166808Y-91218421D01*
X134070054Y-91276327D01*
X134070050Y-91276330D01*
X134066372Y-91278531D01*
X133835408Y-91463568D01*
X133832464Y-91466670D01*
X133832460Y-91466674D01*
X133758399Y-91544718D01*
X133631693Y-91678238D01*
X133458997Y-91918570D01*
X133320516Y-92180115D01*
X133319041Y-92184146D01*
X133232220Y-92421397D01*
X133218812Y-92458035D01*
X133155767Y-92747186D01*
X133132547Y-93042218D01*
X133149583Y-93337671D01*
X133150408Y-93341876D01*
X133150409Y-93341884D01*
X133181869Y-93502232D01*
X133206559Y-93628079D01*
X133207946Y-93632130D01*
X133240273Y-93726549D01*
X133302420Y-93908068D01*
X133435394Y-94172456D01*
X133486954Y-94247477D01*
X133598635Y-94409974D01*
X133603018Y-94416352D01*
X133802193Y-94635241D01*
X133805482Y-94637991D01*
X134025939Y-94822323D01*
X134025944Y-94822327D01*
X134029231Y-94825075D01*
X134072890Y-94852462D01*
X134098456Y-94868500D01*
X134145534Y-94921643D01*
X134157500Y-94975237D01*
X134157500Y-94976843D01*
X134157230Y-94985083D01*
X134152967Y-95050126D01*
X134163434Y-95138555D01*
X134163778Y-95141837D01*
X134169357Y-95202552D01*
X134171919Y-95230440D01*
X134173488Y-95236002D01*
X134174051Y-95239041D01*
X134176501Y-95251361D01*
X134177142Y-95254374D01*
X134177820Y-95260107D01*
X134179533Y-95265624D01*
X134179534Y-95265628D01*
X134204205Y-95345081D01*
X134205142Y-95348244D01*
X134227744Y-95428387D01*
X134227749Y-95428401D01*
X134229314Y-95433949D01*
X134231866Y-95439124D01*
X134232975Y-95442013D01*
X134237611Y-95453632D01*
X134238810Y-95456526D01*
X134240523Y-95462043D01*
X134243213Y-95467155D01*
X134243213Y-95467156D01*
X134281963Y-95540807D01*
X134283461Y-95543747D01*
X134320277Y-95618404D01*
X134320280Y-95618409D01*
X134322835Y-95623590D01*
X134326293Y-95628221D01*
X134327944Y-95630915D01*
X134334621Y-95641498D01*
X134336292Y-95644071D01*
X134338976Y-95649172D01*
X134342548Y-95653703D01*
X134394087Y-95719080D01*
X134396083Y-95721681D01*
X134449349Y-95793013D01*
X134510121Y-95849190D01*
X134513687Y-95852620D01*
X136295472Y-97634405D01*
X136329498Y-97696717D01*
X136324433Y-97767532D01*
X136281886Y-97824368D01*
X136215366Y-97849179D01*
X136206377Y-97849500D01*
X134779046Y-97849501D01*
X134764980Y-97849501D01*
X134716057Y-97853351D01*
X134692109Y-97855235D01*
X134692107Y-97855235D01*
X134686355Y-97855688D01*
X134571408Y-97886488D01*
X134520083Y-97900240D01*
X134503512Y-97904680D01*
X134462743Y-97925453D01*
X134340732Y-97987620D01*
X134340729Y-97987622D01*
X134334851Y-97990617D01*
X134329722Y-97994770D01*
X134329718Y-97994773D01*
X134293915Y-98023766D01*
X134187743Y-98109743D01*
X134183588Y-98114874D01*
X134072773Y-98251718D01*
X134072770Y-98251722D01*
X134068617Y-98256851D01*
X134065622Y-98262729D01*
X134065620Y-98262732D01*
X134061862Y-98270108D01*
X133982680Y-98425512D01*
X133980972Y-98431885D01*
X133980972Y-98431886D01*
X133935182Y-98602777D01*
X133935181Y-98602783D01*
X133933688Y-98608355D01*
X133933235Y-98614111D01*
X133928475Y-98674597D01*
X133927500Y-98686979D01*
X133927501Y-100813020D01*
X133933688Y-100891645D01*
X133982680Y-101074488D01*
X133985676Y-101080368D01*
X133992605Y-101093967D01*
X134005709Y-101163744D01*
X133982209Y-101225320D01*
X133943892Y-101277962D01*
X133940213Y-101283016D01*
X133811794Y-101527101D01*
X133769223Y-101647654D01*
X133766260Y-101656044D01*
X133724716Y-101713617D01*
X133658641Y-101739590D01*
X133589013Y-101725717D01*
X133558355Y-101703183D01*
X132542582Y-100687410D01*
X132536945Y-100681392D01*
X132497766Y-100636717D01*
X132493954Y-100632370D01*
X132423982Y-100577209D01*
X132421491Y-100575191D01*
X132357499Y-100521968D01*
X132357489Y-100521961D01*
X132353051Y-100518270D01*
X132348010Y-100515447D01*
X132345388Y-100513645D01*
X132335084Y-100506760D01*
X132332438Y-100505041D01*
X132327901Y-100501465D01*
X132322790Y-100498776D01*
X132322787Y-100498774D01*
X132249136Y-100460024D01*
X132246238Y-100458451D01*
X132173603Y-100417774D01*
X132168564Y-100414952D01*
X132163092Y-100413095D01*
X132160202Y-100411808D01*
X132148780Y-100406901D01*
X132145887Y-100405703D01*
X132140773Y-100403012D01*
X132087080Y-100386340D01*
X132055776Y-100376619D01*
X132052642Y-100375601D01*
X131973800Y-100348839D01*
X131973799Y-100348839D01*
X131968338Y-100346985D01*
X131962626Y-100346157D01*
X131959699Y-100345454D01*
X131947323Y-100342653D01*
X131944351Y-100342021D01*
X131938836Y-100340309D01*
X131850398Y-100329841D01*
X131847195Y-100329419D01*
X131780294Y-100319719D01*
X131764791Y-100317471D01*
X131764789Y-100317471D01*
X131759079Y-100316643D01*
X131676393Y-100319892D01*
X131671446Y-100319989D01*
X126907498Y-100319989D01*
X126839377Y-100299987D01*
X126792884Y-100246331D01*
X126782780Y-100176057D01*
X126796767Y-100133867D01*
X126924061Y-99899422D01*
X126924064Y-99899415D01*
X126926109Y-99895649D01*
X127030717Y-99618809D01*
X127073455Y-99432208D01*
X127095830Y-99334514D01*
X127095831Y-99334509D01*
X127096787Y-99330334D01*
X127123095Y-99035562D01*
X127123572Y-98990000D01*
X127123403Y-98987519D01*
X127103735Y-98699018D01*
X127103734Y-98699012D01*
X127103443Y-98694741D01*
X127099657Y-98676456D01*
X127066585Y-98516758D01*
X127043430Y-98404946D01*
X126944641Y-98125976D01*
X126935955Y-98109146D01*
X126810872Y-97866802D01*
X126810872Y-97866801D01*
X126808907Y-97862995D01*
X126803454Y-97855235D01*
X126641204Y-97624378D01*
X126641203Y-97624377D01*
X126638737Y-97620868D01*
X126437282Y-97404076D01*
X126208268Y-97216631D01*
X126204621Y-97214396D01*
X126204604Y-97214384D01*
X126158665Y-97186233D01*
X126111034Y-97133586D01*
X126098500Y-97078801D01*
X126098500Y-96333743D01*
X126118502Y-96265622D01*
X126135405Y-96244648D01*
X127149631Y-95230422D01*
X127211943Y-95196396D01*
X127257785Y-95194967D01*
X127452000Y-95224686D01*
X127505953Y-95232942D01*
X127656665Y-95235309D01*
X127797570Y-95237523D01*
X127797576Y-95237523D01*
X127801861Y-95237590D01*
X128095662Y-95202037D01*
X128381919Y-95126938D01*
X128655336Y-95013685D01*
X128711332Y-94980964D01*
X128907145Y-94866540D01*
X128907147Y-94866538D01*
X128910853Y-94864373D01*
X129143742Y-94681765D01*
X129147968Y-94677405D01*
X129346710Y-94472318D01*
X129349693Y-94469240D01*
X129352226Y-94465792D01*
X129352230Y-94465787D01*
X129522358Y-94234185D01*
X129524896Y-94230730D01*
X129565424Y-94156088D01*
X129664061Y-93974421D01*
X129666109Y-93970649D01*
X129720761Y-93826015D01*
X129769202Y-93697819D01*
X129769203Y-93697816D01*
X129770717Y-93693809D01*
X129817841Y-93488055D01*
X129835830Y-93409514D01*
X129835831Y-93409509D01*
X129836787Y-93405334D01*
X129863095Y-93110562D01*
X129863572Y-93065000D01*
X129861728Y-93037948D01*
X129843735Y-92774018D01*
X129843734Y-92774012D01*
X129843443Y-92769741D01*
X129839657Y-92751456D01*
X129802580Y-92572417D01*
X129783430Y-92479946D01*
X129684641Y-92200976D01*
X129675955Y-92184146D01*
X129550872Y-91941802D01*
X129550872Y-91941801D01*
X129548907Y-91937995D01*
X129544137Y-91931207D01*
X129381204Y-91699378D01*
X129381203Y-91699377D01*
X129378737Y-91695868D01*
X129177282Y-91479076D01*
X129131740Y-91441800D01*
X129027137Y-91356184D01*
X128948268Y-91291631D01*
X128895807Y-91259483D01*
X128699584Y-91139236D01*
X128699576Y-91139232D01*
X128695934Y-91137000D01*
X128692017Y-91135281D01*
X128692014Y-91135279D01*
X128572616Y-91082867D01*
X128424949Y-91018046D01*
X128420821Y-91016870D01*
X128420818Y-91016869D01*
X128213426Y-90957792D01*
X128140327Y-90936969D01*
X127920528Y-90905688D01*
X127851587Y-90895876D01*
X127851585Y-90895876D01*
X127847335Y-90895271D01*
X127843046Y-90895249D01*
X127843039Y-90895248D01*
X127555681Y-90893743D01*
X127555674Y-90893743D01*
X127551395Y-90893721D01*
X127547151Y-90894280D01*
X127547147Y-90894280D01*
X127418305Y-90911242D01*
X127257982Y-90932349D01*
X127253842Y-90933482D01*
X127253840Y-90933482D01*
X126976672Y-91009307D01*
X126972527Y-91010441D01*
X126950653Y-91019771D01*
X126704253Y-91124869D01*
X126704246Y-91124873D01*
X126700311Y-91126551D01*
X126546808Y-91218421D01*
X126450054Y-91276327D01*
X126450050Y-91276330D01*
X126446372Y-91278531D01*
X126215408Y-91463568D01*
X126212464Y-91466670D01*
X126212460Y-91466674D01*
X126138399Y-91544718D01*
X126011693Y-91678238D01*
X125838997Y-91918570D01*
X125700516Y-92180115D01*
X125699041Y-92184146D01*
X125612220Y-92421397D01*
X125598812Y-92458035D01*
X125535767Y-92747186D01*
X125512547Y-93042218D01*
X125529583Y-93337671D01*
X125530408Y-93341876D01*
X125530409Y-93341884D01*
X125559087Y-93488055D01*
X125552574Y-93558753D01*
X125524539Y-93601408D01*
X124164921Y-94961027D01*
X124158903Y-94966664D01*
X124109881Y-95009655D01*
X124054720Y-95079627D01*
X124052702Y-95082118D01*
X123999479Y-95146110D01*
X123999472Y-95146120D01*
X123995781Y-95150558D01*
X123992958Y-95155599D01*
X123991156Y-95158221D01*
X123984271Y-95168525D01*
X123982552Y-95171171D01*
X123978976Y-95175708D01*
X123976287Y-95180819D01*
X123976285Y-95180822D01*
X123937535Y-95254473D01*
X123935962Y-95257371D01*
X123934430Y-95260107D01*
X123892463Y-95335045D01*
X123890606Y-95340517D01*
X123889319Y-95343407D01*
X123884412Y-95354829D01*
X123883214Y-95357722D01*
X123880523Y-95362836D01*
X123878810Y-95368354D01*
X123854130Y-95447833D01*
X123853112Y-95450967D01*
X123847617Y-95467156D01*
X123824496Y-95535271D01*
X123823668Y-95540983D01*
X123822965Y-95543910D01*
X123820164Y-95556286D01*
X123819532Y-95559258D01*
X123817820Y-95564773D01*
X123807356Y-95653183D01*
X123806930Y-95656414D01*
X123794154Y-95744530D01*
X123796059Y-95793013D01*
X123797403Y-95827216D01*
X123797500Y-95832163D01*
X123797500Y-97077560D01*
X123777498Y-97145681D01*
X123736207Y-97185675D01*
X123706372Y-97203531D01*
X123475408Y-97388568D01*
X123472464Y-97391670D01*
X123472460Y-97391674D01*
X123274643Y-97600129D01*
X123271693Y-97603238D01*
X123098997Y-97843570D01*
X122960516Y-98105115D01*
X122858812Y-98383035D01*
X122795767Y-98672186D01*
X122772547Y-98967218D01*
X122789583Y-99262671D01*
X122790408Y-99266876D01*
X122790409Y-99266884D01*
X122802019Y-99326060D01*
X122846559Y-99553079D01*
X122942420Y-99833068D01*
X123075394Y-100097456D01*
X123077824Y-100100991D01*
X123092690Y-100122622D01*
X123114790Y-100190092D01*
X123096904Y-100258798D01*
X123044712Y-100306929D01*
X122988850Y-100319989D01*
X121860548Y-100319989D01*
X121852307Y-100319719D01*
X121787265Y-100315456D01*
X121698820Y-100325925D01*
X121695561Y-100326266D01*
X121675738Y-100328088D01*
X121612705Y-100333879D01*
X121612702Y-100333880D01*
X121606951Y-100334408D01*
X121601389Y-100335977D01*
X121598350Y-100336540D01*
X121586030Y-100338990D01*
X121583017Y-100339631D01*
X121577284Y-100340309D01*
X121571767Y-100342022D01*
X121571763Y-100342023D01*
X121492310Y-100366694D01*
X121489147Y-100367631D01*
X121409004Y-100390233D01*
X121408990Y-100390238D01*
X121403442Y-100391803D01*
X121398267Y-100394355D01*
X121395378Y-100395464D01*
X121383759Y-100400100D01*
X121380865Y-100401299D01*
X121375348Y-100403012D01*
X121370236Y-100405702D01*
X121370235Y-100405702D01*
X121296584Y-100444452D01*
X121293644Y-100445950D01*
X121218987Y-100482766D01*
X121218982Y-100482769D01*
X121213801Y-100485324D01*
X121209170Y-100488782D01*
X121206476Y-100490433D01*
X121195893Y-100497110D01*
X121193320Y-100498781D01*
X121188219Y-100501465D01*
X121179165Y-100508603D01*
X121118311Y-100556576D01*
X121115710Y-100558572D01*
X121063210Y-100597776D01*
X121051172Y-100606765D01*
X121044378Y-100611838D01*
X120988201Y-100672610D01*
X120984771Y-100676176D01*
X119937435Y-101723512D01*
X119875123Y-101757538D01*
X119830589Y-101759160D01*
X119635957Y-101731460D01*
X119561587Y-101720876D01*
X119561585Y-101720876D01*
X119557335Y-101720271D01*
X119553046Y-101720249D01*
X119553039Y-101720248D01*
X119265681Y-101718743D01*
X119265674Y-101718743D01*
X119261395Y-101718721D01*
X119257151Y-101719280D01*
X119257147Y-101719280D01*
X118972232Y-101756789D01*
X118972225Y-101756790D01*
X118971339Y-101756907D01*
X118971338Y-101756907D01*
X118967982Y-101757349D01*
X118967884Y-101756607D01*
X118900825Y-101750781D01*
X118857560Y-101722507D01*
X118515405Y-101380353D01*
X118481380Y-101318040D01*
X118478500Y-101291257D01*
X118478500Y-100903960D01*
X118498502Y-100835839D01*
X118540930Y-100795172D01*
X118547145Y-100791541D01*
X118547158Y-100791532D01*
X118550853Y-100789373D01*
X118783742Y-100606765D01*
X118813337Y-100576226D01*
X118927468Y-100458451D01*
X118989693Y-100394240D01*
X118992226Y-100390792D01*
X118992230Y-100390787D01*
X119162358Y-100159185D01*
X119164896Y-100155730D01*
X119306109Y-99895649D01*
X119410717Y-99618809D01*
X119453455Y-99432208D01*
X119475830Y-99334514D01*
X119475831Y-99334509D01*
X119476787Y-99330334D01*
X119503095Y-99035562D01*
X119503572Y-98990000D01*
X119503403Y-98987519D01*
X119483735Y-98699018D01*
X119483734Y-98699012D01*
X119483443Y-98694741D01*
X119479657Y-98676456D01*
X119446585Y-98516758D01*
X119423430Y-98404946D01*
X119324641Y-98125976D01*
X119315955Y-98109146D01*
X119190872Y-97866802D01*
X119190872Y-97866801D01*
X119188907Y-97862995D01*
X119183454Y-97855235D01*
X119021204Y-97624378D01*
X119021203Y-97624377D01*
X119018737Y-97620868D01*
X118817282Y-97404076D01*
X118588268Y-97216631D01*
X118535807Y-97184483D01*
X118339584Y-97064236D01*
X118339576Y-97064232D01*
X118335934Y-97062000D01*
X118332017Y-97060281D01*
X118332014Y-97060279D01*
X118212616Y-97007867D01*
X118064949Y-96943046D01*
X118060821Y-96941870D01*
X118060818Y-96941869D01*
X117784455Y-96863145D01*
X117784456Y-96863145D01*
X117780327Y-96861969D01*
X117560528Y-96830688D01*
X117491587Y-96820876D01*
X117491585Y-96820876D01*
X117487335Y-96820271D01*
X117483046Y-96820249D01*
X117483039Y-96820248D01*
X117195681Y-96818743D01*
X117195674Y-96818743D01*
X117191395Y-96818721D01*
X117187151Y-96819280D01*
X117187147Y-96819280D01*
X117058305Y-96836242D01*
X116897982Y-96857349D01*
X116612527Y-96935441D01*
X116590653Y-96944771D01*
X116344253Y-97049869D01*
X116344246Y-97049873D01*
X116340311Y-97051551D01*
X116294780Y-97078801D01*
X116090054Y-97201327D01*
X116090050Y-97201330D01*
X116086372Y-97203531D01*
X115855408Y-97388568D01*
X115852464Y-97391670D01*
X115852460Y-97391674D01*
X115654643Y-97600129D01*
X115651693Y-97603238D01*
X115478997Y-97843570D01*
X115340516Y-98105115D01*
X115238812Y-98383035D01*
X115175767Y-98672186D01*
X115152547Y-98967218D01*
X115169583Y-99262671D01*
X115170408Y-99266876D01*
X115170409Y-99266884D01*
X115182019Y-99326060D01*
X115226559Y-99553079D01*
X115322420Y-99833068D01*
X115455394Y-100097456D01*
X115497819Y-100159185D01*
X115619711Y-100336540D01*
X115623018Y-100341352D01*
X115822193Y-100560241D01*
X115825482Y-100562991D01*
X116045939Y-100747323D01*
X116045944Y-100747327D01*
X116049231Y-100750075D01*
X116092890Y-100777462D01*
X116118456Y-100793500D01*
X116165534Y-100846643D01*
X116177500Y-100900237D01*
X116177500Y-101776963D01*
X116177230Y-101785203D01*
X116172967Y-101850246D01*
X116173646Y-101855979D01*
X116183434Y-101938675D01*
X116183777Y-101941950D01*
X116191919Y-102030560D01*
X116193488Y-102036122D01*
X116194051Y-102039161D01*
X116196501Y-102051481D01*
X116197142Y-102054494D01*
X116197820Y-102060227D01*
X116199533Y-102065744D01*
X116199534Y-102065748D01*
X116224205Y-102145201D01*
X116225142Y-102148364D01*
X116247744Y-102228507D01*
X116247749Y-102228521D01*
X116249314Y-102234069D01*
X116251866Y-102239244D01*
X116252975Y-102242133D01*
X116257611Y-102253752D01*
X116258810Y-102256646D01*
X116260523Y-102262163D01*
X116263213Y-102267275D01*
X116263213Y-102267276D01*
X116301963Y-102340927D01*
X116303461Y-102343867D01*
X116340277Y-102418524D01*
X116340280Y-102418529D01*
X116342835Y-102423710D01*
X116346293Y-102428341D01*
X116347944Y-102431035D01*
X116354621Y-102441618D01*
X116356292Y-102444191D01*
X116358976Y-102449292D01*
X116362548Y-102453823D01*
X116414087Y-102519200D01*
X116416083Y-102521801D01*
X116469349Y-102593133D01*
X116530108Y-102649298D01*
X116533674Y-102652727D01*
X117234209Y-103353261D01*
X117268234Y-103415574D01*
X117268222Y-103469198D01*
X117245767Y-103572186D01*
X117222547Y-103867218D01*
X117239583Y-104162671D01*
X117240408Y-104166876D01*
X117240409Y-104166884D01*
X117248817Y-104209738D01*
X117296559Y-104453079D01*
X117297946Y-104457130D01*
X117350558Y-104610797D01*
X117392420Y-104733068D01*
X117525394Y-104997456D01*
X117596527Y-105100956D01*
X117625587Y-105143238D01*
X117693018Y-105241352D01*
X117892193Y-105460241D01*
X117895480Y-105462990D01*
X117895488Y-105462997D01*
X118017175Y-105564744D01*
X118056604Y-105623785D01*
X118057854Y-105694770D01*
X118025447Y-105750501D01*
X117527436Y-106248512D01*
X117465124Y-106282538D01*
X117420589Y-106284160D01*
X117248805Y-106259712D01*
X117151587Y-106245876D01*
X117151585Y-106245876D01*
X117147335Y-106245271D01*
X117143046Y-106245249D01*
X117143039Y-106245248D01*
X116855681Y-106243743D01*
X116855674Y-106243743D01*
X116851395Y-106243721D01*
X116847151Y-106244280D01*
X116847147Y-106244280D01*
X116718305Y-106261242D01*
X116557982Y-106282349D01*
X116553842Y-106283482D01*
X116553840Y-106283482D01*
X116277692Y-106359028D01*
X116272527Y-106360441D01*
X116266490Y-106363016D01*
X116004253Y-106474869D01*
X116004246Y-106474873D01*
X116000311Y-106476551D01*
X115870815Y-106554053D01*
X115750054Y-106626327D01*
X115750050Y-106626330D01*
X115746372Y-106628531D01*
X115515408Y-106813568D01*
X115512464Y-106816670D01*
X115512460Y-106816674D01*
X115335643Y-107003000D01*
X115311693Y-107028238D01*
X115138997Y-107268570D01*
X115000516Y-107530115D01*
X114898812Y-107808035D01*
X114835767Y-108097186D01*
X114829544Y-108176256D01*
X114816369Y-108343662D01*
X114812547Y-108392218D01*
X114829583Y-108687671D01*
X114830408Y-108691876D01*
X114830409Y-108691884D01*
X114865057Y-108868482D01*
X114886559Y-108978079D01*
X114887946Y-108982130D01*
X114974053Y-109233629D01*
X114982420Y-109258068D01*
X115115394Y-109522456D01*
X115283018Y-109766352D01*
X115482193Y-109985241D01*
X115485482Y-109987991D01*
X115705939Y-110172323D01*
X115705944Y-110172327D01*
X115709231Y-110175075D01*
X115813298Y-110240356D01*
X115956292Y-110330056D01*
X115956296Y-110330058D01*
X115959932Y-110332339D01*
X115963842Y-110334104D01*
X115963843Y-110334105D01*
X116225744Y-110452358D01*
X116225748Y-110452360D01*
X116229656Y-110454124D01*
X116297941Y-110474351D01*
X116509301Y-110536959D01*
X116509305Y-110536960D01*
X116513414Y-110538177D01*
X116517648Y-110538825D01*
X116517653Y-110538826D01*
X116776964Y-110578506D01*
X116805953Y-110582942D01*
X116956665Y-110585309D01*
X117097570Y-110587523D01*
X117097576Y-110587523D01*
X117101861Y-110587590D01*
X117395662Y-110552037D01*
X117681919Y-110476938D01*
X117955336Y-110363685D01*
X118005957Y-110334105D01*
X118207145Y-110216540D01*
X118207147Y-110216538D01*
X118210853Y-110214373D01*
X118443742Y-110031765D01*
X118448775Y-110026572D01*
X118631085Y-109838442D01*
X123549303Y-109838442D01*
X123558017Y-109849962D01*
X123659394Y-109924296D01*
X123667293Y-109929232D01*
X123892901Y-110047930D01*
X123901450Y-110051647D01*
X124142113Y-110135690D01*
X124151122Y-110138104D01*
X124401572Y-110185654D01*
X124410827Y-110186708D01*
X124665557Y-110196717D01*
X124674871Y-110196391D01*
X124828061Y-110179614D01*
X124897954Y-110192081D01*
X124950012Y-110240356D01*
X124967706Y-110309112D01*
X124957975Y-110353590D01*
X124925963Y-110429930D01*
X124923000Y-110438785D01*
X124860255Y-110685849D01*
X124858633Y-110695046D01*
X124833094Y-110948673D01*
X124832849Y-110957999D01*
X124845080Y-111212619D01*
X124846217Y-111221879D01*
X124895947Y-111471894D01*
X124898441Y-111480887D01*
X124984578Y-111720797D01*
X124988378Y-111729332D01*
X125109031Y-111953877D01*
X125114045Y-111961748D01*
X125180154Y-112050279D01*
X125191414Y-112058729D01*
X125203832Y-112051958D01*
X127667790Y-109588000D01*
X127674174Y-109576310D01*
X127664762Y-109564199D01*
X127523776Y-109466392D01*
X127515741Y-109461659D01*
X127287106Y-109348909D01*
X127278473Y-109345421D01*
X127035675Y-109267701D01*
X127026624Y-109265528D01*
X126775009Y-109224550D01*
X126765720Y-109223738D01*
X126510828Y-109220401D01*
X126501517Y-109220971D01*
X126400320Y-109234743D01*
X126330124Y-109224110D01*
X126276821Y-109177214D01*
X126257333Y-109108944D01*
X126268447Y-109058144D01*
X126281534Y-109029091D01*
X126284731Y-109020307D01*
X126353923Y-108774968D01*
X126355781Y-108765839D01*
X126388144Y-108511444D01*
X126388625Y-108505158D01*
X126390903Y-108418160D01*
X126390752Y-108411851D01*
X126371747Y-108156110D01*
X126370370Y-108146904D01*
X126314109Y-107898262D01*
X126311385Y-107889351D01*
X126218990Y-107651758D01*
X126214979Y-107643349D01*
X126088482Y-107422027D01*
X126083269Y-107414298D01*
X126043633Y-107364019D01*
X126031709Y-107355549D01*
X126020174Y-107362036D01*
X123555961Y-109826249D01*
X123549303Y-109838442D01*
X118631085Y-109838442D01*
X118646710Y-109822318D01*
X118649693Y-109819240D01*
X118652226Y-109815792D01*
X118652230Y-109815787D01*
X118822358Y-109584185D01*
X118824896Y-109580730D01*
X118940363Y-109368068D01*
X118964061Y-109324421D01*
X118966109Y-109320649D01*
X119049588Y-109099725D01*
X119069202Y-109047819D01*
X119069203Y-109047816D01*
X119070717Y-109043809D01*
X119103398Y-108901117D01*
X119135830Y-108759514D01*
X119135831Y-108759509D01*
X119136787Y-108755334D01*
X119163095Y-108460562D01*
X119163572Y-108415000D01*
X119160709Y-108372999D01*
X122825849Y-108372999D01*
X122838080Y-108627619D01*
X122839217Y-108636879D01*
X122888947Y-108886894D01*
X122891441Y-108895887D01*
X122977578Y-109135797D01*
X122981378Y-109144332D01*
X123102031Y-109368877D01*
X123107045Y-109376748D01*
X123173154Y-109465279D01*
X123184414Y-109473729D01*
X123196832Y-109466958D01*
X124235978Y-108427812D01*
X124243592Y-108413868D01*
X124243461Y-108412035D01*
X124239210Y-108405420D01*
X123195119Y-107361329D01*
X123181811Y-107354062D01*
X123171772Y-107361184D01*
X123159433Y-107376020D01*
X123154018Y-107383612D01*
X123021776Y-107601540D01*
X123017538Y-107609857D01*
X122918961Y-107844935D01*
X122916000Y-107853785D01*
X122853255Y-108100849D01*
X122851633Y-108110046D01*
X122826094Y-108363673D01*
X122825849Y-108372999D01*
X119160709Y-108372999D01*
X119149687Y-108211326D01*
X119143735Y-108124018D01*
X119143734Y-108124012D01*
X119143443Y-108119741D01*
X119117233Y-107993177D01*
X119123005Y-107922417D01*
X119151520Y-107878532D01*
X120040695Y-106989357D01*
X123546770Y-106989357D01*
X123551343Y-106999133D01*
X124595188Y-108042978D01*
X124609132Y-108050592D01*
X124610965Y-108050461D01*
X124617580Y-108046210D01*
X125660790Y-107003000D01*
X125667174Y-106991310D01*
X125657762Y-106979199D01*
X125516776Y-106881392D01*
X125508741Y-106876659D01*
X125280106Y-106763909D01*
X125271473Y-106760421D01*
X125028675Y-106682701D01*
X125019624Y-106680528D01*
X124768009Y-106639550D01*
X124758720Y-106638738D01*
X124503828Y-106635401D01*
X124494517Y-106635971D01*
X124241927Y-106670347D01*
X124232808Y-106672285D01*
X123988084Y-106743616D01*
X123979331Y-106746888D01*
X123747837Y-106853608D01*
X123739682Y-106858128D01*
X123555907Y-106978616D01*
X123546770Y-106989357D01*
X120040695Y-106989357D01*
X120181079Y-106848973D01*
X120187097Y-106843336D01*
X120222919Y-106811921D01*
X120236119Y-106800345D01*
X120291280Y-106730373D01*
X120293298Y-106727882D01*
X120346521Y-106663890D01*
X120346528Y-106663880D01*
X120350219Y-106659442D01*
X120353042Y-106654401D01*
X120354844Y-106651779D01*
X120361729Y-106641475D01*
X120363448Y-106638829D01*
X120367024Y-106634292D01*
X120371215Y-106626327D01*
X120408465Y-106555527D01*
X120410038Y-106552629D01*
X120450715Y-106479994D01*
X120453537Y-106474955D01*
X120455394Y-106469483D01*
X120456681Y-106466593D01*
X120461588Y-106455171D01*
X120462786Y-106452279D01*
X120465477Y-106447164D01*
X120486354Y-106379930D01*
X120491871Y-106362164D01*
X120492890Y-106359028D01*
X120518027Y-106284974D01*
X120521505Y-106274729D01*
X120522334Y-106269012D01*
X120523075Y-106265925D01*
X120525798Y-106253892D01*
X120526468Y-106250740D01*
X120528180Y-106245227D01*
X120538646Y-106156805D01*
X120539073Y-106153563D01*
X120551846Y-106065470D01*
X120548597Y-105982783D01*
X120548500Y-105977837D01*
X120548500Y-105803960D01*
X120568502Y-105735839D01*
X120610930Y-105695172D01*
X120617145Y-105691541D01*
X120617158Y-105691532D01*
X120620853Y-105689373D01*
X120853742Y-105506765D01*
X121041085Y-105313442D01*
X123339303Y-105313442D01*
X123348017Y-105324962D01*
X123449394Y-105399296D01*
X123457293Y-105404232D01*
X123682901Y-105522930D01*
X123691450Y-105526647D01*
X123932113Y-105610690D01*
X123941122Y-105613104D01*
X124191572Y-105660654D01*
X124200827Y-105661708D01*
X124455557Y-105671717D01*
X124464871Y-105671391D01*
X124718270Y-105643640D01*
X124727447Y-105641939D01*
X124973960Y-105577037D01*
X124982780Y-105574000D01*
X125216997Y-105473373D01*
X125225269Y-105469066D01*
X125442036Y-105334927D01*
X125449579Y-105329447D01*
X125451272Y-105328014D01*
X125459710Y-105315211D01*
X125453645Y-105304855D01*
X124410812Y-104262022D01*
X124396868Y-104254408D01*
X124395035Y-104254539D01*
X124388420Y-104258790D01*
X123345961Y-105301249D01*
X123339303Y-105313442D01*
X121041085Y-105313442D01*
X121059693Y-105294240D01*
X121062226Y-105290792D01*
X121062230Y-105290787D01*
X121232358Y-105059185D01*
X121234896Y-105055730D01*
X121331511Y-104877789D01*
X121374061Y-104799421D01*
X121376109Y-104795649D01*
X121465514Y-104559043D01*
X121479202Y-104522819D01*
X121479203Y-104522816D01*
X121480717Y-104518809D01*
X121525592Y-104322876D01*
X121545830Y-104234514D01*
X121545831Y-104234509D01*
X121546787Y-104230334D01*
X121573095Y-103935562D01*
X121573572Y-103890000D01*
X121569281Y-103827054D01*
X121553735Y-103599018D01*
X121553734Y-103599012D01*
X121553443Y-103594741D01*
X121527233Y-103468177D01*
X121533005Y-103397418D01*
X121561520Y-103353533D01*
X122257159Y-102657894D01*
X122319471Y-102623868D01*
X122346254Y-102620989D01*
X122872072Y-102620989D01*
X122940193Y-102640991D01*
X122986686Y-102694647D01*
X122996790Y-102764921D01*
X122968946Y-102827558D01*
X122949433Y-102851020D01*
X122944018Y-102858612D01*
X122811776Y-103076540D01*
X122807538Y-103084857D01*
X122708961Y-103319935D01*
X122706000Y-103328785D01*
X122643255Y-103575849D01*
X122641633Y-103585046D01*
X122616094Y-103838673D01*
X122615849Y-103847999D01*
X122628080Y-104102619D01*
X122629217Y-104111879D01*
X122678947Y-104361894D01*
X122681441Y-104370887D01*
X122767578Y-104610797D01*
X122771378Y-104619332D01*
X122892031Y-104843877D01*
X122897045Y-104851748D01*
X122963154Y-104940279D01*
X122974414Y-104948729D01*
X122986832Y-104941958D01*
X124308905Y-103619885D01*
X124371217Y-103585859D01*
X124442032Y-103590924D01*
X124487095Y-103619885D01*
X125812386Y-104945176D01*
X125824766Y-104951936D01*
X125833107Y-104945692D01*
X125962391Y-104744697D01*
X125966838Y-104736506D01*
X126071536Y-104504085D01*
X126074731Y-104495307D01*
X126143923Y-104249968D01*
X126145781Y-104240839D01*
X126178144Y-103986444D01*
X126178625Y-103980158D01*
X126180903Y-103893160D01*
X126180752Y-103886851D01*
X126161747Y-103631110D01*
X126160370Y-103621904D01*
X126104109Y-103373262D01*
X126101385Y-103364351D01*
X126008990Y-103126758D01*
X126004979Y-103118349D01*
X125878481Y-102897025D01*
X125873270Y-102889299D01*
X125822577Y-102824995D01*
X125796112Y-102759116D01*
X125809465Y-102689386D01*
X125858397Y-102637945D01*
X125921527Y-102620989D01*
X131169866Y-102620989D01*
X131237987Y-102640991D01*
X131258961Y-102657894D01*
X133639712Y-105038644D01*
X133673737Y-105100956D01*
X133676047Y-105115772D01*
X133678667Y-105143238D01*
X133678668Y-105143245D01*
X133679102Y-105147792D01*
X133680189Y-105152234D01*
X133724894Y-105334927D01*
X133744657Y-105415694D01*
X133848199Y-105671326D01*
X133850500Y-105675256D01*
X133850503Y-105675262D01*
X133985255Y-105905403D01*
X133985260Y-105905410D01*
X133987558Y-105909335D01*
X133990405Y-105912895D01*
X134128129Y-106085109D01*
X134159816Y-106124732D01*
X134333490Y-106286969D01*
X134339085Y-106292196D01*
X134375211Y-106353314D01*
X134372559Y-106424261D01*
X134350437Y-106464247D01*
X134318891Y-106502652D01*
X134313135Y-106510933D01*
X134196159Y-106711919D01*
X134191797Y-106721024D01*
X134108463Y-106938115D01*
X134105612Y-106947804D01*
X134074179Y-107098264D01*
X134075302Y-107112325D01*
X134085410Y-107116000D01*
X135956000Y-107116000D01*
X136024121Y-107136002D01*
X136070614Y-107189658D01*
X136082000Y-107242000D01*
X136082000Y-107498000D01*
X136061998Y-107566121D01*
X136008342Y-107612614D01*
X135956000Y-107624000D01*
X134087410Y-107624000D01*
X134073324Y-107628136D01*
X134071275Y-107641114D01*
X134073325Y-107658830D01*
X134075285Y-107668727D01*
X134138604Y-107892494D01*
X134142116Y-107901938D01*
X134240399Y-108112705D01*
X134245378Y-108121471D01*
X134376087Y-108313802D01*
X134382419Y-108321677D01*
X134542186Y-108490626D01*
X134549695Y-108497387D01*
X134737304Y-108640825D01*
X134779272Y-108698090D01*
X134783617Y-108768953D01*
X134748961Y-108830917D01*
X134686307Y-108864307D01*
X134643024Y-108865664D01*
X134461224Y-108839791D01*
X134398587Y-108830876D01*
X134398585Y-108830876D01*
X134394335Y-108830271D01*
X134390046Y-108830249D01*
X134390039Y-108830248D01*
X134102681Y-108828743D01*
X134102674Y-108828743D01*
X134098395Y-108828721D01*
X134094151Y-108829280D01*
X134094147Y-108829280D01*
X133965305Y-108846242D01*
X133804982Y-108867349D01*
X133800842Y-108868482D01*
X133800840Y-108868482D01*
X133612779Y-108919930D01*
X133519527Y-108945441D01*
X133453662Y-108973535D01*
X133251253Y-109059869D01*
X133251246Y-109059873D01*
X133247311Y-109061551D01*
X133108995Y-109144332D01*
X132997054Y-109211327D01*
X132997050Y-109211330D01*
X132993372Y-109213531D01*
X132762408Y-109398568D01*
X132759464Y-109401670D01*
X132759460Y-109401674D01*
X132589542Y-109580730D01*
X132558693Y-109613238D01*
X132467600Y-109740008D01*
X132426628Y-109797026D01*
X132370633Y-109840674D01*
X132324305Y-109849500D01*
X130723049Y-109849500D01*
X130714808Y-109849230D01*
X130703916Y-109848516D01*
X130649755Y-109844966D01*
X130561300Y-109855436D01*
X130558033Y-109855778D01*
X130538066Y-109857613D01*
X130475194Y-109863390D01*
X130475191Y-109863391D01*
X130469440Y-109863919D01*
X130463885Y-109865486D01*
X130460797Y-109866058D01*
X130448590Y-109868487D01*
X130445515Y-109869141D01*
X130439774Y-109869820D01*
X130354706Y-109896234D01*
X130351595Y-109897154D01*
X130265931Y-109921314D01*
X130260742Y-109923873D01*
X130257780Y-109925010D01*
X130246243Y-109929612D01*
X130243352Y-109930810D01*
X130237837Y-109932522D01*
X130210251Y-109947036D01*
X130159077Y-109973960D01*
X130156140Y-109975457D01*
X130076290Y-110014835D01*
X130071656Y-110018295D01*
X130069005Y-110019920D01*
X130058461Y-110026572D01*
X130055820Y-110028287D01*
X130050709Y-110030976D01*
X130046175Y-110034551D01*
X130046174Y-110034551D01*
X129980819Y-110086073D01*
X129978218Y-110088069D01*
X129906867Y-110141349D01*
X129865912Y-110185654D01*
X129850678Y-110202134D01*
X129847248Y-110205700D01*
X128571917Y-111481031D01*
X128509605Y-111515057D01*
X128438790Y-111509992D01*
X128381954Y-111467445D01*
X128357143Y-111400925D01*
X128360841Y-111364718D01*
X128359992Y-111364545D01*
X128362781Y-111350839D01*
X128395144Y-111096444D01*
X128395625Y-111090158D01*
X128397903Y-111003160D01*
X128397752Y-110996851D01*
X128378747Y-110741110D01*
X128377370Y-110731904D01*
X128321109Y-110483262D01*
X128318385Y-110474351D01*
X128225990Y-110236758D01*
X128221979Y-110228349D01*
X128095482Y-110007027D01*
X128090269Y-109999298D01*
X128050633Y-109949019D01*
X128038709Y-109940549D01*
X128027174Y-109947036D01*
X125562961Y-112411249D01*
X125556303Y-112423442D01*
X125565017Y-112434962D01*
X125666394Y-112509296D01*
X125674293Y-112514232D01*
X125899901Y-112632930D01*
X125908450Y-112636646D01*
X125937855Y-112646915D01*
X125995572Y-112688257D01*
X126021776Y-112754241D01*
X126008147Y-112823917D01*
X125959011Y-112875164D01*
X125945748Y-112881768D01*
X125821253Y-112934869D01*
X125821246Y-112934873D01*
X125817311Y-112936551D01*
X125736543Y-112984890D01*
X125567054Y-113086327D01*
X125567050Y-113086330D01*
X125563372Y-113088531D01*
X125332408Y-113273568D01*
X125329464Y-113276670D01*
X125329460Y-113276674D01*
X125133819Y-113482836D01*
X125128693Y-113488238D01*
X124955997Y-113728570D01*
X124817516Y-113990115D01*
X124715812Y-114268035D01*
X124652767Y-114557186D01*
X124629547Y-114852218D01*
X124646583Y-115147671D01*
X124647408Y-115151876D01*
X124647409Y-115151884D01*
X124672751Y-115281050D01*
X124703559Y-115438079D01*
X124704946Y-115442130D01*
X124744241Y-115556901D01*
X124799420Y-115718068D01*
X124932394Y-115982456D01*
X124986711Y-116061488D01*
X125095542Y-116219839D01*
X125100018Y-116226352D01*
X125299193Y-116445241D01*
X125302482Y-116447991D01*
X125522939Y-116632323D01*
X125522944Y-116632327D01*
X125526231Y-116635075D01*
X125537121Y-116641906D01*
X125773292Y-116790056D01*
X125773296Y-116790058D01*
X125776932Y-116792339D01*
X125780842Y-116794104D01*
X125780843Y-116794105D01*
X126042744Y-116912358D01*
X126042748Y-116912360D01*
X126046656Y-116914124D01*
X126050775Y-116915344D01*
X126326301Y-116996959D01*
X126326305Y-116996960D01*
X126330414Y-116998177D01*
X126334648Y-116998825D01*
X126334653Y-116998826D01*
X126593964Y-117038506D01*
X126622953Y-117042942D01*
X126773665Y-117045309D01*
X126914570Y-117047523D01*
X126914576Y-117047523D01*
X126918861Y-117047590D01*
X127083365Y-117027683D01*
X127153394Y-117039357D01*
X127205996Y-117087039D01*
X127224500Y-117152771D01*
X127224500Y-117387560D01*
X127204498Y-117455681D01*
X127163207Y-117495675D01*
X127133372Y-117513531D01*
X126902408Y-117698568D01*
X126899464Y-117701670D01*
X126899460Y-117701674D01*
X126701643Y-117910129D01*
X126698693Y-117913238D01*
X126525997Y-118153570D01*
X126387516Y-118415115D01*
X126386041Y-118419146D01*
X126293782Y-118671257D01*
X126285812Y-118693035D01*
X126222767Y-118982186D01*
X126199547Y-119277218D01*
X126216583Y-119572671D01*
X126217408Y-119576876D01*
X126217409Y-119576884D01*
X126245956Y-119722387D01*
X126273559Y-119863079D01*
X126280145Y-119882315D01*
X126356040Y-120103987D01*
X126369420Y-120143068D01*
X126502394Y-120407456D01*
X126565439Y-120499187D01*
X126644359Y-120614017D01*
X126670018Y-120651352D01*
X126869193Y-120870241D01*
X126872482Y-120872991D01*
X127092939Y-121057323D01*
X127092944Y-121057327D01*
X127096231Y-121060075D01*
X127191589Y-121119893D01*
X127343292Y-121215056D01*
X127343296Y-121215058D01*
X127346932Y-121217339D01*
X127350842Y-121219104D01*
X127350843Y-121219105D01*
X127612744Y-121337358D01*
X127612748Y-121337360D01*
X127616656Y-121339124D01*
X127687345Y-121360063D01*
X127896301Y-121421959D01*
X127896305Y-121421960D01*
X127900414Y-121423177D01*
X127904648Y-121423825D01*
X127904653Y-121423826D01*
X128163964Y-121463506D01*
X128192953Y-121467942D01*
X128343665Y-121470309D01*
X128484570Y-121472523D01*
X128484576Y-121472523D01*
X128488861Y-121472590D01*
X128782662Y-121437037D01*
X129068919Y-121361938D01*
X129342336Y-121248685D01*
X129372281Y-121231187D01*
X129594145Y-121101540D01*
X129594147Y-121101538D01*
X129597853Y-121099373D01*
X129830742Y-120916765D01*
X129850969Y-120895893D01*
X130033710Y-120707318D01*
X130036693Y-120704240D01*
X130039226Y-120700792D01*
X130039230Y-120700787D01*
X130209358Y-120469185D01*
X130211896Y-120465730D01*
X130221135Y-120448715D01*
X130351061Y-120209421D01*
X130353109Y-120205649D01*
X130440969Y-119973133D01*
X130456202Y-119932819D01*
X130456203Y-119932816D01*
X130457717Y-119928809D01*
X130495575Y-119763512D01*
X130522830Y-119644514D01*
X130522831Y-119644509D01*
X130523787Y-119640334D01*
X130550095Y-119345562D01*
X130550572Y-119300000D01*
X130546613Y-119241921D01*
X130530735Y-119009018D01*
X130530734Y-119009012D01*
X130530443Y-119004741D01*
X130526657Y-118986456D01*
X130471299Y-118719143D01*
X130470430Y-118714946D01*
X130371641Y-118435976D01*
X130366867Y-118426725D01*
X130237872Y-118176802D01*
X130237872Y-118176801D01*
X130235907Y-118172995D01*
X130224929Y-118157374D01*
X130068204Y-117934378D01*
X130068203Y-117934377D01*
X130065737Y-117930868D01*
X129864282Y-117714076D01*
X129852081Y-117704089D01*
X129729001Y-117603350D01*
X129635268Y-117526631D01*
X129631621Y-117524396D01*
X129631604Y-117524384D01*
X129585665Y-117496233D01*
X129538034Y-117443586D01*
X129525500Y-117388801D01*
X129525500Y-116488037D01*
X129525770Y-116479796D01*
X129529655Y-116420520D01*
X129530033Y-116414754D01*
X129519564Y-116326309D01*
X129519222Y-116323043D01*
X129511610Y-116240194D01*
X129511609Y-116240191D01*
X129511081Y-116234440D01*
X129509512Y-116228878D01*
X129508949Y-116225839D01*
X129506499Y-116213519D01*
X129505858Y-116210506D01*
X129505180Y-116204773D01*
X129503466Y-116199252D01*
X129478795Y-116119799D01*
X129477858Y-116116636D01*
X129455256Y-116036493D01*
X129455251Y-116036479D01*
X129453686Y-116030931D01*
X129451134Y-116025756D01*
X129450025Y-116022867D01*
X129445389Y-116011248D01*
X129444190Y-116008354D01*
X129442477Y-116002837D01*
X129401033Y-115924064D01*
X129399539Y-115921133D01*
X129397459Y-115916914D01*
X129369612Y-115860446D01*
X129362723Y-115846476D01*
X129362720Y-115846471D01*
X129360165Y-115841290D01*
X129356707Y-115836659D01*
X129355056Y-115833965D01*
X129348379Y-115823382D01*
X129346708Y-115820809D01*
X129344024Y-115815708D01*
X129288902Y-115745785D01*
X129286905Y-115743183D01*
X129284463Y-115739912D01*
X129233651Y-115671867D01*
X129172878Y-115615689D01*
X129169313Y-115612260D01*
X128969268Y-115412215D01*
X128935242Y-115349903D01*
X128935543Y-115294990D01*
X128939302Y-115278581D01*
X128953787Y-115215334D01*
X128980095Y-114920562D01*
X128980572Y-114875000D01*
X128977711Y-114833035D01*
X128960735Y-114584018D01*
X128960734Y-114584012D01*
X128960443Y-114579741D01*
X128934233Y-114453177D01*
X128940005Y-114382418D01*
X128968520Y-114338533D01*
X131119648Y-112187405D01*
X131181960Y-112153379D01*
X131208743Y-112150500D01*
X132325685Y-112150500D01*
X132393806Y-112170502D01*
X132429525Y-112205133D01*
X132521542Y-112339019D01*
X132530018Y-112351352D01*
X132729193Y-112570241D01*
X132746673Y-112584857D01*
X132952939Y-112757323D01*
X132952944Y-112757327D01*
X132956231Y-112760075D01*
X133120061Y-112862845D01*
X133163369Y-112890012D01*
X133210447Y-112943155D01*
X133221319Y-113013314D01*
X133192535Y-113078214D01*
X133175195Y-113095082D01*
X132952408Y-113273568D01*
X132949464Y-113276670D01*
X132949460Y-113276674D01*
X132753819Y-113482836D01*
X132748693Y-113488238D01*
X132575997Y-113728570D01*
X132437516Y-113990115D01*
X132335812Y-114268035D01*
X132272767Y-114557186D01*
X132249547Y-114852218D01*
X132266583Y-115147671D01*
X132267408Y-115151876D01*
X132267409Y-115151884D01*
X132292751Y-115281050D01*
X132323559Y-115438079D01*
X132324946Y-115442130D01*
X132364241Y-115556901D01*
X132419420Y-115718068D01*
X132552394Y-115982456D01*
X132606711Y-116061488D01*
X132715542Y-116219839D01*
X132720018Y-116226352D01*
X132919193Y-116445241D01*
X132922482Y-116447991D01*
X133142939Y-116632323D01*
X133142944Y-116632327D01*
X133146231Y-116635075D01*
X133157121Y-116641906D01*
X133393292Y-116790056D01*
X133393296Y-116790058D01*
X133396932Y-116792339D01*
X133400842Y-116794104D01*
X133400843Y-116794105D01*
X133662744Y-116912358D01*
X133662748Y-116912360D01*
X133666656Y-116914124D01*
X133670775Y-116915344D01*
X133946301Y-116996959D01*
X133946305Y-116996960D01*
X133950414Y-116998177D01*
X133954648Y-116998825D01*
X133954653Y-116998826D01*
X134213964Y-117038506D01*
X134242953Y-117042942D01*
X134393665Y-117045309D01*
X134534570Y-117047523D01*
X134534576Y-117047523D01*
X134538861Y-117047590D01*
X134583367Y-117042204D01*
X134653394Y-117053878D01*
X134705996Y-117101560D01*
X134724500Y-117167292D01*
X134724500Y-117387560D01*
X134704498Y-117455681D01*
X134663207Y-117495675D01*
X134633372Y-117513531D01*
X134402408Y-117698568D01*
X134399464Y-117701670D01*
X134399460Y-117701674D01*
X134201643Y-117910129D01*
X134198693Y-117913238D01*
X134025997Y-118153570D01*
X133887516Y-118415115D01*
X133886041Y-118419146D01*
X133793782Y-118671257D01*
X133785812Y-118693035D01*
X133722767Y-118982186D01*
X133699547Y-119277218D01*
X133716583Y-119572671D01*
X133717408Y-119576876D01*
X133717409Y-119576884D01*
X133745956Y-119722387D01*
X133773559Y-119863079D01*
X133780145Y-119882315D01*
X133856040Y-120103987D01*
X133869420Y-120143068D01*
X134002394Y-120407456D01*
X134065439Y-120499187D01*
X134144359Y-120614017D01*
X134170018Y-120651352D01*
X134369193Y-120870241D01*
X134372482Y-120872991D01*
X134592939Y-121057323D01*
X134592944Y-121057327D01*
X134596231Y-121060075D01*
X134691589Y-121119893D01*
X134843292Y-121215056D01*
X134843296Y-121215058D01*
X134846932Y-121217339D01*
X134850842Y-121219104D01*
X134850843Y-121219105D01*
X135112744Y-121337358D01*
X135112748Y-121337360D01*
X135116656Y-121339124D01*
X135187345Y-121360063D01*
X135396301Y-121421959D01*
X135396305Y-121421960D01*
X135400414Y-121423177D01*
X135404648Y-121423825D01*
X135404653Y-121423826D01*
X135663964Y-121463506D01*
X135692953Y-121467942D01*
X135843665Y-121470309D01*
X135984570Y-121472523D01*
X135984576Y-121472523D01*
X135988861Y-121472590D01*
X136282662Y-121437037D01*
X136568919Y-121361938D01*
X136842336Y-121248685D01*
X136872281Y-121231187D01*
X137094145Y-121101540D01*
X137094147Y-121101538D01*
X137097853Y-121099373D01*
X137330742Y-120916765D01*
X137350969Y-120895893D01*
X137533710Y-120707318D01*
X137536693Y-120704240D01*
X137539226Y-120700792D01*
X137539230Y-120700787D01*
X137709358Y-120469185D01*
X137711896Y-120465730D01*
X137721135Y-120448715D01*
X137851061Y-120209421D01*
X137853109Y-120205649D01*
X137940969Y-119973133D01*
X137956202Y-119932819D01*
X137956203Y-119932816D01*
X137957717Y-119928809D01*
X137995576Y-119763511D01*
X138030280Y-119701576D01*
X138092961Y-119668235D01*
X138163717Y-119674074D01*
X138220084Y-119717241D01*
X138231400Y-119735910D01*
X138264835Y-119803710D01*
X138268294Y-119808342D01*
X138269944Y-119811035D01*
X138276621Y-119821618D01*
X138278292Y-119824191D01*
X138280976Y-119829292D01*
X138333172Y-119895502D01*
X138336087Y-119899200D01*
X138338083Y-119901801D01*
X138391349Y-119973133D01*
X138448343Y-120025818D01*
X138452121Y-120029310D01*
X138455687Y-120032740D01*
X139231034Y-120808087D01*
X139236671Y-120814105D01*
X139279655Y-120863119D01*
X139284188Y-120866693D01*
X139284197Y-120866701D01*
X139349565Y-120918232D01*
X139352129Y-120920308D01*
X139416111Y-120973521D01*
X139416115Y-120973524D01*
X139420558Y-120977219D01*
X139425600Y-120980043D01*
X139428221Y-120981844D01*
X139438525Y-120988729D01*
X139441171Y-120990448D01*
X139445708Y-120994024D01*
X139450819Y-120996713D01*
X139450822Y-120996715D01*
X139524473Y-121035465D01*
X139527371Y-121037038D01*
X139563593Y-121057323D01*
X139605045Y-121080537D01*
X139610517Y-121082394D01*
X139613407Y-121083681D01*
X139624829Y-121088588D01*
X139627721Y-121089786D01*
X139632836Y-121092477D01*
X139673049Y-121104964D01*
X139717849Y-121118875D01*
X139720969Y-121119888D01*
X139805270Y-121148504D01*
X139810992Y-121149334D01*
X139813967Y-121150048D01*
X139826286Y-121152836D01*
X139829260Y-121153468D01*
X139834773Y-121155180D01*
X139840501Y-121155858D01*
X139840506Y-121155859D01*
X139892931Y-121162064D01*
X139923220Y-121165649D01*
X139926443Y-121166073D01*
X140014530Y-121178845D01*
X140097200Y-121175597D01*
X140102147Y-121175500D01*
X146285257Y-121175500D01*
X146353378Y-121195502D01*
X146374352Y-121212405D01*
X146617270Y-121455323D01*
X146651296Y-121517635D01*
X146646231Y-121588450D01*
X146603684Y-121645286D01*
X146537164Y-121670097D01*
X146521915Y-121670262D01*
X146514767Y-121669906D01*
X146240208Y-121696102D01*
X146235774Y-121697187D01*
X146235768Y-121697188D01*
X145976744Y-121760571D01*
X145972306Y-121761657D01*
X145716674Y-121865199D01*
X145712744Y-121867500D01*
X145712738Y-121867503D01*
X145482597Y-122002255D01*
X145482590Y-122002260D01*
X145478665Y-122004558D01*
X145475105Y-122007405D01*
X145368584Y-122092592D01*
X145302891Y-122119516D01*
X145233070Y-122106650D01*
X145215739Y-122096060D01*
X145210975Y-122092592D01*
X145139398Y-122040493D01*
X145028676Y-121959900D01*
X145028673Y-121959898D01*
X145024984Y-121957213D01*
X144780899Y-121828794D01*
X144520832Y-121736955D01*
X144421126Y-121717303D01*
X144254704Y-121684501D01*
X144254698Y-121684500D01*
X144250232Y-121683620D01*
X144245678Y-121683393D01*
X144245676Y-121683393D01*
X143979336Y-121670133D01*
X143979330Y-121670133D01*
X143974767Y-121669906D01*
X143700208Y-121696102D01*
X143695774Y-121697187D01*
X143695768Y-121697188D01*
X143436744Y-121760571D01*
X143432306Y-121761657D01*
X143176674Y-121865199D01*
X143172744Y-121867500D01*
X143172738Y-121867503D01*
X142942597Y-122002255D01*
X142942590Y-122002260D01*
X142938665Y-122004558D01*
X142935105Y-122007405D01*
X142828584Y-122092592D01*
X142762891Y-122119516D01*
X142693070Y-122106650D01*
X142675739Y-122096060D01*
X142670975Y-122092592D01*
X142599398Y-122040493D01*
X142488676Y-121959900D01*
X142488673Y-121959898D01*
X142484984Y-121957213D01*
X142240899Y-121828794D01*
X141980832Y-121736955D01*
X141881126Y-121717303D01*
X141714704Y-121684501D01*
X141714698Y-121684500D01*
X141710232Y-121683620D01*
X141705678Y-121683393D01*
X141705676Y-121683393D01*
X141439336Y-121670133D01*
X141439330Y-121670133D01*
X141434767Y-121669906D01*
X141160208Y-121696102D01*
X141155774Y-121697187D01*
X141155768Y-121697188D01*
X140896744Y-121760571D01*
X140892306Y-121761657D01*
X140636674Y-121865199D01*
X140632744Y-121867500D01*
X140632738Y-121867503D01*
X140402597Y-122002255D01*
X140402590Y-122002260D01*
X140398665Y-122004558D01*
X140395105Y-122007405D01*
X140288584Y-122092592D01*
X140222891Y-122119516D01*
X140153070Y-122106650D01*
X140135739Y-122096060D01*
X140130975Y-122092592D01*
X140059398Y-122040493D01*
X139948676Y-121959900D01*
X139948673Y-121959898D01*
X139944984Y-121957213D01*
X139700899Y-121828794D01*
X139440832Y-121736955D01*
X139341126Y-121717303D01*
X139174704Y-121684501D01*
X139174698Y-121684500D01*
X139170232Y-121683620D01*
X139165678Y-121683393D01*
X139165676Y-121683393D01*
X138899336Y-121670133D01*
X138899330Y-121670133D01*
X138894767Y-121669906D01*
X138620208Y-121696102D01*
X138615774Y-121697187D01*
X138615768Y-121697188D01*
X138356744Y-121760571D01*
X138352306Y-121761657D01*
X138096674Y-121865199D01*
X138092744Y-121867500D01*
X138092738Y-121867503D01*
X137862597Y-122002255D01*
X137862590Y-122002260D01*
X137858665Y-122004558D01*
X137855105Y-122007405D01*
X137665401Y-122159116D01*
X137643268Y-122176816D01*
X137640147Y-122180157D01*
X137484917Y-122346330D01*
X137454992Y-122378364D01*
X137297784Y-122604979D01*
X137295756Y-122609055D01*
X137295755Y-122609057D01*
X137187517Y-122826624D01*
X137174935Y-122851914D01*
X137089020Y-123113998D01*
X137088240Y-123118489D01*
X137088240Y-123118490D01*
X137055949Y-123304468D01*
X137041838Y-123385738D01*
X137037500Y-123472876D01*
X137037500Y-124145070D01*
X137037665Y-124147338D01*
X137037665Y-124147350D01*
X137045870Y-124260425D01*
X137052375Y-124350083D01*
X137053359Y-124354538D01*
X137053359Y-124354541D01*
X137094379Y-124540335D01*
X137111836Y-124619403D01*
X137209551Y-124877319D01*
X137211765Y-124881306D01*
X137211766Y-124881307D01*
X137323969Y-125083311D01*
X137343475Y-125118428D01*
X137346247Y-125122060D01*
X137508029Y-125334044D01*
X137510802Y-125337678D01*
X137514068Y-125340871D01*
X137514070Y-125340873D01*
X137704758Y-125527283D01*
X137704763Y-125527287D01*
X137708026Y-125530477D01*
X137711718Y-125533164D01*
X137711720Y-125533166D01*
X137862060Y-125642595D01*
X137931016Y-125692787D01*
X138175101Y-125821206D01*
X138435168Y-125913045D01*
X138534874Y-125932697D01*
X138701296Y-125965499D01*
X138701302Y-125965500D01*
X138705768Y-125966380D01*
X138710322Y-125966607D01*
X138710324Y-125966607D01*
X138976664Y-125979867D01*
X138976670Y-125979867D01*
X138981233Y-125980094D01*
X139255792Y-125953898D01*
X139260226Y-125952813D01*
X139260232Y-125952812D01*
X139519256Y-125889429D01*
X139523694Y-125888343D01*
X139779326Y-125784801D01*
X139783256Y-125782500D01*
X139783262Y-125782497D01*
X140013403Y-125647745D01*
X140013410Y-125647740D01*
X140017335Y-125645442D01*
X140127416Y-125557408D01*
X140193109Y-125530484D01*
X140262930Y-125543350D01*
X140280259Y-125553939D01*
X140288140Y-125559675D01*
X140402060Y-125642595D01*
X140471016Y-125692787D01*
X140715101Y-125821206D01*
X140975168Y-125913045D01*
X141074874Y-125932697D01*
X141241296Y-125965499D01*
X141241302Y-125965500D01*
X141245768Y-125966380D01*
X141250322Y-125966607D01*
X141250324Y-125966607D01*
X141516664Y-125979867D01*
X141516670Y-125979867D01*
X141521233Y-125980094D01*
X141795792Y-125953898D01*
X141800226Y-125952813D01*
X141800232Y-125952812D01*
X142059256Y-125889429D01*
X142063694Y-125888343D01*
X142319326Y-125784801D01*
X142323256Y-125782500D01*
X142323262Y-125782497D01*
X142553403Y-125647745D01*
X142553410Y-125647740D01*
X142557335Y-125645442D01*
X142667416Y-125557408D01*
X142733109Y-125530484D01*
X142802930Y-125543350D01*
X142820259Y-125553939D01*
X142828140Y-125559675D01*
X142942060Y-125642595D01*
X143011016Y-125692787D01*
X143255101Y-125821206D01*
X143515168Y-125913045D01*
X143614874Y-125932697D01*
X143781296Y-125965499D01*
X143781302Y-125965500D01*
X143785768Y-125966380D01*
X143790322Y-125966607D01*
X143790324Y-125966607D01*
X144056664Y-125979867D01*
X144056670Y-125979867D01*
X144061233Y-125980094D01*
X144335792Y-125953898D01*
X144340226Y-125952813D01*
X144340232Y-125952812D01*
X144599256Y-125889429D01*
X144603694Y-125888343D01*
X144859326Y-125784801D01*
X144863256Y-125782500D01*
X144863262Y-125782497D01*
X145093403Y-125647745D01*
X145093410Y-125647740D01*
X145097335Y-125645442D01*
X145207416Y-125557408D01*
X145273109Y-125530484D01*
X145342930Y-125543350D01*
X145360259Y-125553939D01*
X145368140Y-125559675D01*
X145482060Y-125642595D01*
X145551016Y-125692787D01*
X145795101Y-125821206D01*
X146055168Y-125913045D01*
X146154874Y-125932697D01*
X146321296Y-125965499D01*
X146321302Y-125965500D01*
X146325768Y-125966380D01*
X146330322Y-125966607D01*
X146330324Y-125966607D01*
X146596664Y-125979867D01*
X146596670Y-125979867D01*
X146601233Y-125980094D01*
X146875792Y-125953898D01*
X146880226Y-125952813D01*
X146880232Y-125952812D01*
X147139256Y-125889429D01*
X147143694Y-125888343D01*
X147399326Y-125784801D01*
X147403256Y-125782500D01*
X147403262Y-125782497D01*
X147633403Y-125647745D01*
X147633410Y-125647740D01*
X147637335Y-125645442D01*
X147747416Y-125557408D01*
X147813109Y-125530484D01*
X147882930Y-125543350D01*
X147900259Y-125553939D01*
X147908140Y-125559675D01*
X148022060Y-125642595D01*
X148091016Y-125692787D01*
X148335101Y-125821206D01*
X148595168Y-125913045D01*
X148694874Y-125932697D01*
X148861296Y-125965499D01*
X148861302Y-125965500D01*
X148865768Y-125966380D01*
X148870322Y-125966607D01*
X148870324Y-125966607D01*
X149136664Y-125979867D01*
X149136670Y-125979867D01*
X149141233Y-125980094D01*
X149415792Y-125953898D01*
X149420226Y-125952813D01*
X149420232Y-125952812D01*
X149679256Y-125889429D01*
X149683694Y-125888343D01*
X149939326Y-125784801D01*
X149943256Y-125782500D01*
X149943262Y-125782497D01*
X150173403Y-125647745D01*
X150173410Y-125647740D01*
X150177335Y-125645442D01*
X150202401Y-125625396D01*
X150389166Y-125476036D01*
X150389167Y-125476035D01*
X150392732Y-125473184D01*
X150560196Y-125293915D01*
X150621314Y-125257789D01*
X150692261Y-125260441D01*
X150732247Y-125282563D01*
X150770652Y-125314109D01*
X150778933Y-125319865D01*
X150979919Y-125436841D01*
X150989024Y-125441203D01*
X151206115Y-125524537D01*
X151215804Y-125527388D01*
X151366264Y-125558821D01*
X151380325Y-125557698D01*
X151384000Y-125547590D01*
X151384000Y-125545590D01*
X151892000Y-125545590D01*
X151896136Y-125559676D01*
X151909114Y-125561725D01*
X151926830Y-125559675D01*
X151936727Y-125557715D01*
X152160494Y-125494396D01*
X152169938Y-125490884D01*
X152380705Y-125392601D01*
X152389471Y-125387622D01*
X152581802Y-125256913D01*
X152589677Y-125250581D01*
X152758626Y-125090814D01*
X152765382Y-125083311D01*
X152807438Y-125028304D01*
X152864703Y-124986337D01*
X152935567Y-124981992D01*
X153002048Y-125021509D01*
X153123703Y-125159500D01*
X153130956Y-125166504D01*
X153310654Y-125314110D01*
X153318936Y-125319866D01*
X153519919Y-125436841D01*
X153529024Y-125441203D01*
X153746115Y-125524537D01*
X153755804Y-125527388D01*
X153906264Y-125558821D01*
X153920325Y-125557698D01*
X153924000Y-125547590D01*
X153924000Y-125545590D01*
X154432000Y-125545590D01*
X154436136Y-125559676D01*
X154449114Y-125561725D01*
X154466830Y-125559675D01*
X154476727Y-125557715D01*
X154700494Y-125494396D01*
X154709938Y-125490884D01*
X154920705Y-125392601D01*
X154929470Y-125387622D01*
X155093862Y-125275901D01*
X155161447Y-125254155D01*
X155230059Y-125272399D01*
X155264847Y-125303670D01*
X155288028Y-125334044D01*
X155288030Y-125334046D01*
X155290802Y-125337678D01*
X155294068Y-125340871D01*
X155294070Y-125340873D01*
X155484758Y-125527283D01*
X155484763Y-125527287D01*
X155488026Y-125530477D01*
X155491718Y-125533164D01*
X155491720Y-125533166D01*
X155642060Y-125642595D01*
X155711016Y-125692787D01*
X155955101Y-125821206D01*
X156215168Y-125913045D01*
X156314874Y-125932697D01*
X156481296Y-125965499D01*
X156481302Y-125965500D01*
X156485768Y-125966380D01*
X156490322Y-125966607D01*
X156490324Y-125966607D01*
X156756664Y-125979867D01*
X156756670Y-125979867D01*
X156761233Y-125980094D01*
X157035792Y-125953898D01*
X157040226Y-125952813D01*
X157040232Y-125952812D01*
X157299256Y-125889429D01*
X157303694Y-125888343D01*
X157559326Y-125784801D01*
X157563256Y-125782500D01*
X157563262Y-125782497D01*
X157793403Y-125647745D01*
X157793410Y-125647740D01*
X157797335Y-125645442D01*
X157822401Y-125625396D01*
X158009166Y-125476036D01*
X158009167Y-125476035D01*
X158012732Y-125473184D01*
X158161332Y-125314109D01*
X158197892Y-125274972D01*
X158197894Y-125274969D01*
X158201008Y-125271636D01*
X158358216Y-125045021D01*
X158443771Y-124873050D01*
X158479032Y-124802173D01*
X158479033Y-124802170D01*
X158481065Y-124798086D01*
X158566980Y-124536002D01*
X158589011Y-124409116D01*
X158613506Y-124268043D01*
X158613507Y-124268035D01*
X158614162Y-124264262D01*
X158618500Y-124177124D01*
X158618500Y-123504930D01*
X158617302Y-123488411D01*
X158603955Y-123304468D01*
X158603625Y-123299917D01*
X158570691Y-123150744D01*
X158545148Y-123035053D01*
X158545147Y-123035050D01*
X158544164Y-123030597D01*
X158446449Y-122772681D01*
X158312525Y-122531572D01*
X158158792Y-122330134D01*
X158147970Y-122315954D01*
X158147969Y-122315953D01*
X158145198Y-122312322D01*
X158094108Y-122262378D01*
X157951242Y-122122717D01*
X157951237Y-122122713D01*
X157947974Y-122119523D01*
X157942899Y-122115829D01*
X157728676Y-121959900D01*
X157728673Y-121959898D01*
X157724984Y-121957213D01*
X157480899Y-121828794D01*
X157220832Y-121736955D01*
X157121126Y-121717303D01*
X156954704Y-121684501D01*
X156954698Y-121684500D01*
X156950232Y-121683620D01*
X156945678Y-121683393D01*
X156945676Y-121683393D01*
X156679336Y-121670133D01*
X156679330Y-121670133D01*
X156674767Y-121669906D01*
X156400208Y-121696102D01*
X156395774Y-121697187D01*
X156395768Y-121697188D01*
X156136744Y-121760571D01*
X156132306Y-121761657D01*
X155876674Y-121865199D01*
X155872744Y-121867500D01*
X155872738Y-121867503D01*
X155642597Y-122002255D01*
X155642590Y-122002260D01*
X155638665Y-122004558D01*
X155635105Y-122007405D01*
X155445401Y-122159116D01*
X155423268Y-122176816D01*
X155420147Y-122180157D01*
X155255804Y-122356085D01*
X155194686Y-122392211D01*
X155123739Y-122389559D01*
X155083753Y-122367437D01*
X155045348Y-122335891D01*
X155037067Y-122330135D01*
X154836081Y-122213159D01*
X154826976Y-122208797D01*
X154609885Y-122125463D01*
X154600196Y-122122612D01*
X154449736Y-122091179D01*
X154435675Y-122092302D01*
X154432000Y-122102410D01*
X154432000Y-125545590D01*
X153924000Y-125545590D01*
X153924000Y-124097115D01*
X153919525Y-124081876D01*
X153918135Y-124080671D01*
X153910452Y-124079000D01*
X151910115Y-124079000D01*
X151894876Y-124083475D01*
X151893671Y-124084865D01*
X151892000Y-124092548D01*
X151892000Y-125545590D01*
X151384000Y-125545590D01*
X151384000Y-123552885D01*
X151892000Y-123552885D01*
X151896475Y-123568124D01*
X151897865Y-123569329D01*
X151905548Y-123571000D01*
X153905885Y-123571000D01*
X153921124Y-123566525D01*
X153922329Y-123565135D01*
X153924000Y-123557452D01*
X153924000Y-122104410D01*
X153919864Y-122090324D01*
X153906886Y-122088275D01*
X153889170Y-122090325D01*
X153879273Y-122092285D01*
X153655506Y-122155604D01*
X153646062Y-122159116D01*
X153435295Y-122257399D01*
X153426529Y-122262378D01*
X153234198Y-122393087D01*
X153226323Y-122399419D01*
X153057374Y-122559186D01*
X153050618Y-122566689D01*
X153008562Y-122621696D01*
X152951297Y-122663663D01*
X152880433Y-122668008D01*
X152813952Y-122628491D01*
X152692297Y-122490500D01*
X152685044Y-122483496D01*
X152505346Y-122335890D01*
X152497064Y-122330134D01*
X152296081Y-122213159D01*
X152286976Y-122208797D01*
X152069885Y-122125463D01*
X152060196Y-122122612D01*
X151909736Y-122091179D01*
X151895675Y-122092302D01*
X151892000Y-122102410D01*
X151892000Y-123552885D01*
X151384000Y-123552885D01*
X151384000Y-122104410D01*
X151379864Y-122090324D01*
X151366886Y-122088275D01*
X151349170Y-122090325D01*
X151339273Y-122092285D01*
X151115506Y-122155604D01*
X151106062Y-122159116D01*
X150895295Y-122257399D01*
X150886530Y-122262378D01*
X150722138Y-122374099D01*
X150654553Y-122395845D01*
X150585941Y-122377601D01*
X150551153Y-122346330D01*
X150527972Y-122315956D01*
X150527968Y-122315951D01*
X150525198Y-122312322D01*
X150474108Y-122262378D01*
X150331242Y-122122717D01*
X150331237Y-122122713D01*
X150327974Y-122119523D01*
X150253187Y-122065087D01*
X150209884Y-122008828D01*
X150207007Y-122000582D01*
X150201773Y-121983726D01*
X150200858Y-121980640D01*
X150176686Y-121894931D01*
X150174127Y-121889742D01*
X150172990Y-121886780D01*
X150168380Y-121875223D01*
X150167189Y-121872348D01*
X150165478Y-121866837D01*
X150124029Y-121788054D01*
X150122533Y-121785117D01*
X150085722Y-121710474D01*
X150085720Y-121710470D01*
X150083165Y-121705290D01*
X150079705Y-121700657D01*
X150078081Y-121698007D01*
X150071408Y-121687429D01*
X150069712Y-121684818D01*
X150067024Y-121679708D01*
X150011902Y-121609785D01*
X150009905Y-121607183D01*
X150009035Y-121606017D01*
X149956651Y-121535867D01*
X149895878Y-121479689D01*
X149892313Y-121476260D01*
X147657973Y-119241921D01*
X147652336Y-119235903D01*
X147613157Y-119191228D01*
X147609345Y-119186881D01*
X147539373Y-119131720D01*
X147536882Y-119129702D01*
X147472890Y-119076479D01*
X147472880Y-119076472D01*
X147468442Y-119072781D01*
X147463401Y-119069958D01*
X147460779Y-119068156D01*
X147450475Y-119061271D01*
X147447829Y-119059552D01*
X147443292Y-119055976D01*
X147438181Y-119053287D01*
X147438178Y-119053285D01*
X147364527Y-119014535D01*
X147361629Y-119012962D01*
X147288994Y-118972285D01*
X147283955Y-118969463D01*
X147278483Y-118967606D01*
X147275593Y-118966319D01*
X147264171Y-118961412D01*
X147261278Y-118960214D01*
X147256164Y-118957523D01*
X147202471Y-118940851D01*
X147171167Y-118931130D01*
X147168033Y-118930112D01*
X147089191Y-118903350D01*
X147089190Y-118903350D01*
X147083729Y-118901496D01*
X147078017Y-118900668D01*
X147075090Y-118899965D01*
X147062714Y-118897164D01*
X147059742Y-118896532D01*
X147054227Y-118894820D01*
X146965789Y-118884352D01*
X146962586Y-118883930D01*
X146896878Y-118874403D01*
X146880182Y-118871982D01*
X146880180Y-118871982D01*
X146874470Y-118871154D01*
X146791784Y-118874403D01*
X146786837Y-118874500D01*
X140603744Y-118874500D01*
X140535623Y-118854498D01*
X140514649Y-118837596D01*
X140437405Y-118760353D01*
X140403380Y-118698041D01*
X140400500Y-118671257D01*
X140400500Y-118473059D01*
X140420502Y-118404938D01*
X140437405Y-118383964D01*
X142674129Y-116147239D01*
X142680147Y-116141602D01*
X142724822Y-116102423D01*
X142729169Y-116098611D01*
X142784330Y-116028639D01*
X142786348Y-116026148D01*
X142839571Y-115962156D01*
X142839578Y-115962146D01*
X142843269Y-115957708D01*
X142846092Y-115952667D01*
X142847894Y-115950045D01*
X142854779Y-115939741D01*
X142856498Y-115937095D01*
X142860074Y-115932558D01*
X142862765Y-115927444D01*
X142901515Y-115853793D01*
X142903088Y-115850895D01*
X142943765Y-115778260D01*
X142946587Y-115773221D01*
X142948444Y-115767749D01*
X142949731Y-115764859D01*
X142954638Y-115753437D01*
X142955836Y-115750544D01*
X142958527Y-115745430D01*
X142984920Y-115660433D01*
X142985938Y-115657299D01*
X143012700Y-115578457D01*
X143012700Y-115578456D01*
X143014554Y-115572995D01*
X143015382Y-115567283D01*
X143016085Y-115564356D01*
X143018886Y-115551980D01*
X143019518Y-115549008D01*
X143021230Y-115543493D01*
X143031698Y-115455055D01*
X143032120Y-115451852D01*
X143044896Y-115363736D01*
X143041647Y-115281049D01*
X143041550Y-115276103D01*
X143041550Y-114644793D01*
X143061552Y-114576672D01*
X143078455Y-114555698D01*
X150018079Y-107616073D01*
X150024097Y-107610436D01*
X150068772Y-107571257D01*
X150073119Y-107567445D01*
X150128280Y-107497473D01*
X150130298Y-107494982D01*
X150183521Y-107430990D01*
X150183528Y-107430980D01*
X150187219Y-107426542D01*
X150190042Y-107421501D01*
X150191844Y-107418879D01*
X150198729Y-107408575D01*
X150200448Y-107405929D01*
X150204024Y-107401392D01*
X150217373Y-107376020D01*
X150245465Y-107322627D01*
X150247038Y-107319729D01*
X150287715Y-107247094D01*
X150290537Y-107242055D01*
X150292394Y-107236583D01*
X150293681Y-107233693D01*
X150298588Y-107222271D01*
X150299786Y-107219379D01*
X150302477Y-107214264D01*
X150319998Y-107157838D01*
X150328871Y-107129264D01*
X150329890Y-107126128D01*
X150356647Y-107047302D01*
X150358505Y-107041829D01*
X150359334Y-107036112D01*
X150360075Y-107033025D01*
X150362798Y-107020992D01*
X150363468Y-107017840D01*
X150365180Y-107012327D01*
X150375646Y-106923905D01*
X150376073Y-106920663D01*
X150381767Y-106881392D01*
X150388846Y-106832570D01*
X150385597Y-106749883D01*
X150385500Y-106744937D01*
X150385500Y-103566500D01*
X150405502Y-103498379D01*
X150459158Y-103451886D01*
X150511500Y-103440500D01*
X167061377Y-103440500D01*
X167129498Y-103460502D01*
X167150472Y-103477405D01*
X168936712Y-105263645D01*
X168970738Y-105325957D01*
X168973047Y-105340771D01*
X168976102Y-105372792D01*
X169041657Y-105640694D01*
X169145199Y-105896326D01*
X169147500Y-105900256D01*
X169147503Y-105900262D01*
X169282255Y-106130403D01*
X169282260Y-106130410D01*
X169284558Y-106134335D01*
X169287405Y-106137895D01*
X169372592Y-106244416D01*
X169399516Y-106310109D01*
X169386650Y-106379930D01*
X169376061Y-106397259D01*
X169356407Y-106424261D01*
X169240892Y-106582962D01*
X169237213Y-106588016D01*
X169108794Y-106832101D01*
X169016955Y-107092168D01*
X169007967Y-107137768D01*
X168965043Y-107355549D01*
X168963620Y-107362768D01*
X168963393Y-107367322D01*
X168963393Y-107367324D01*
X168950409Y-107628136D01*
X168949906Y-107638233D01*
X168976102Y-107912792D01*
X168977187Y-107917226D01*
X168977188Y-107917232D01*
X169033389Y-108146904D01*
X169041657Y-108180694D01*
X169145199Y-108436326D01*
X169147500Y-108440256D01*
X169147503Y-108440262D01*
X169282255Y-108670403D01*
X169282260Y-108670410D01*
X169284558Y-108674335D01*
X169287405Y-108677895D01*
X169372592Y-108784416D01*
X169399516Y-108850109D01*
X169386650Y-108919930D01*
X169376061Y-108937259D01*
X169346349Y-108978079D01*
X169257094Y-109100703D01*
X169237213Y-109128016D01*
X169108794Y-109372101D01*
X169016955Y-109632168D01*
X169016075Y-109636634D01*
X168964726Y-109897159D01*
X168963620Y-109902768D01*
X168963393Y-109907322D01*
X168963393Y-109907324D01*
X168951904Y-110138104D01*
X168949906Y-110178233D01*
X168976102Y-110452792D01*
X168977187Y-110457226D01*
X168977188Y-110457232D01*
X169035381Y-110695046D01*
X169041657Y-110720694D01*
X169145199Y-110976326D01*
X169147500Y-110980256D01*
X169147503Y-110980262D01*
X169282255Y-111210403D01*
X169282260Y-111210410D01*
X169284558Y-111214335D01*
X169287405Y-111217895D01*
X169405028Y-111364974D01*
X169456816Y-111429732D01*
X169460157Y-111432853D01*
X169561330Y-111527364D01*
X169597456Y-111588482D01*
X169594804Y-111659429D01*
X169564413Y-111708534D01*
X168191921Y-113081027D01*
X168185903Y-113086664D01*
X168136881Y-113129655D01*
X168081720Y-113199627D01*
X168079702Y-113202118D01*
X168026479Y-113266110D01*
X168026472Y-113266120D01*
X168022781Y-113270558D01*
X168019958Y-113275599D01*
X168018156Y-113278221D01*
X168011271Y-113288525D01*
X168009552Y-113291171D01*
X168005976Y-113295708D01*
X168003287Y-113300819D01*
X168003285Y-113300822D01*
X167964535Y-113374473D01*
X167962962Y-113377371D01*
X167953218Y-113394771D01*
X167919463Y-113455045D01*
X167917606Y-113460517D01*
X167916319Y-113463407D01*
X167911412Y-113474829D01*
X167910214Y-113477722D01*
X167907523Y-113482836D01*
X167899002Y-113510279D01*
X167881130Y-113567833D01*
X167880112Y-113570967D01*
X167869368Y-113602619D01*
X167851496Y-113655271D01*
X167850668Y-113660983D01*
X167849965Y-113663910D01*
X167847164Y-113676286D01*
X167846532Y-113679258D01*
X167844820Y-113684773D01*
X167835677Y-113762022D01*
X167834356Y-113773183D01*
X167833930Y-113776414D01*
X167829062Y-113809990D01*
X167822215Y-113857215D01*
X167821154Y-113864530D01*
X167823585Y-113926407D01*
X167824403Y-113947216D01*
X167824500Y-113952163D01*
X167824500Y-119181963D01*
X167824230Y-119190203D01*
X167819967Y-119255246D01*
X167830434Y-119343675D01*
X167830778Y-119346957D01*
X167837964Y-119425161D01*
X167838919Y-119435560D01*
X167840488Y-119441122D01*
X167841051Y-119444161D01*
X167843501Y-119456481D01*
X167844142Y-119459494D01*
X167844820Y-119465227D01*
X167846533Y-119470744D01*
X167846534Y-119470748D01*
X167871205Y-119550201D01*
X167872142Y-119553364D01*
X167894744Y-119633507D01*
X167894749Y-119633521D01*
X167896314Y-119639069D01*
X167898866Y-119644244D01*
X167899975Y-119647133D01*
X167904611Y-119658752D01*
X167905810Y-119661646D01*
X167907523Y-119667163D01*
X167910213Y-119672275D01*
X167910213Y-119672276D01*
X167948963Y-119745927D01*
X167950461Y-119748867D01*
X167987277Y-119823524D01*
X167987280Y-119823529D01*
X167989835Y-119828710D01*
X167993293Y-119833341D01*
X167994944Y-119836035D01*
X168001621Y-119846618D01*
X168003292Y-119849191D01*
X168005976Y-119854292D01*
X168060035Y-119922865D01*
X168061087Y-119924200D01*
X168063083Y-119926801D01*
X168116349Y-119998133D01*
X168150076Y-120029310D01*
X168177121Y-120054310D01*
X168180687Y-120057740D01*
X169583561Y-121460614D01*
X169617587Y-121522926D01*
X169612522Y-121593741D01*
X169569975Y-121650577D01*
X169503455Y-121675388D01*
X169488201Y-121675553D01*
X169379336Y-121670133D01*
X169379330Y-121670133D01*
X169374767Y-121669906D01*
X169100208Y-121696102D01*
X169095774Y-121697187D01*
X169095768Y-121697188D01*
X168836744Y-121760571D01*
X168832306Y-121761657D01*
X168576674Y-121865199D01*
X168572744Y-121867500D01*
X168572738Y-121867503D01*
X168342597Y-122002255D01*
X168342590Y-122002260D01*
X168338665Y-122004558D01*
X168335105Y-122007405D01*
X168228584Y-122092592D01*
X168162891Y-122119516D01*
X168093070Y-122106650D01*
X168075739Y-122096060D01*
X168070975Y-122092592D01*
X167999398Y-122040493D01*
X167888676Y-121959900D01*
X167888673Y-121959898D01*
X167884984Y-121957213D01*
X167640899Y-121828794D01*
X167380832Y-121736955D01*
X167281126Y-121717303D01*
X167114704Y-121684501D01*
X167114698Y-121684500D01*
X167110232Y-121683620D01*
X167105678Y-121683393D01*
X167105676Y-121683393D01*
X166839336Y-121670133D01*
X166839330Y-121670133D01*
X166834767Y-121669906D01*
X166560208Y-121696102D01*
X166555774Y-121697187D01*
X166555768Y-121697188D01*
X166296744Y-121760571D01*
X166292306Y-121761657D01*
X166036674Y-121865199D01*
X166032744Y-121867500D01*
X166032738Y-121867503D01*
X165802597Y-122002255D01*
X165802590Y-122002260D01*
X165798665Y-122004558D01*
X165795105Y-122007405D01*
X165688584Y-122092592D01*
X165622891Y-122119516D01*
X165553070Y-122106650D01*
X165535739Y-122096060D01*
X165530975Y-122092592D01*
X165459398Y-122040493D01*
X165348676Y-121959900D01*
X165348673Y-121959898D01*
X165344984Y-121957213D01*
X165100899Y-121828794D01*
X164840832Y-121736955D01*
X164741126Y-121717303D01*
X164574704Y-121684501D01*
X164574698Y-121684500D01*
X164570232Y-121683620D01*
X164565678Y-121683393D01*
X164565676Y-121683393D01*
X164299336Y-121670133D01*
X164299330Y-121670133D01*
X164294767Y-121669906D01*
X164020208Y-121696102D01*
X164015774Y-121697187D01*
X164015768Y-121697188D01*
X163756744Y-121760571D01*
X163752306Y-121761657D01*
X163496674Y-121865199D01*
X163492744Y-121867500D01*
X163492738Y-121867503D01*
X163262597Y-122002255D01*
X163262590Y-122002260D01*
X163258665Y-122004558D01*
X163153983Y-122088275D01*
X163153195Y-122088905D01*
X163087502Y-122115829D01*
X163017681Y-122102964D01*
X162965899Y-122054392D01*
X162948500Y-121990502D01*
X162948500Y-120756421D01*
X162949804Y-120738341D01*
X162953845Y-120710471D01*
X162952321Y-120671679D01*
X162952494Y-120658494D01*
X162954655Y-120625520D01*
X162955033Y-120619754D01*
X162954243Y-120613079D01*
X162948502Y-120564567D01*
X162947726Y-120554707D01*
X162945771Y-120504959D01*
X162945771Y-120504957D01*
X162945544Y-120499187D01*
X162937000Y-120461429D01*
X162935548Y-120452259D01*
X162934890Y-120448715D01*
X162934928Y-120448344D01*
X162934422Y-120445149D01*
X162934081Y-120441438D01*
X162935650Y-120441294D01*
X162935754Y-120440277D01*
X162933817Y-120440506D01*
X162930859Y-120415508D01*
X162930858Y-120415505D01*
X162930180Y-120409773D01*
X162917180Y-120367904D01*
X162913700Y-120356698D01*
X162911140Y-120347142D01*
X162900153Y-120298588D01*
X162898878Y-120292953D01*
X162883549Y-120257274D01*
X162878991Y-120244919D01*
X162869190Y-120213354D01*
X162867477Y-120207837D01*
X162864789Y-120202728D01*
X162864787Y-120202723D01*
X162841606Y-120158664D01*
X162837346Y-120149733D01*
X162834483Y-120143068D01*
X162815411Y-120098678D01*
X162793842Y-120066397D01*
X162787107Y-120055077D01*
X162769024Y-120020708D01*
X162734611Y-119977055D01*
X162728801Y-119969058D01*
X162728435Y-119968509D01*
X162697936Y-119922865D01*
X162670851Y-119895061D01*
X162666882Y-119890528D01*
X162666762Y-119890635D01*
X162664292Y-119887856D01*
X162661995Y-119884942D01*
X162658806Y-119881753D01*
X162658839Y-119881720D01*
X162658478Y-119881314D01*
X162657059Y-119879413D01*
X162657387Y-119879122D01*
X162656791Y-119878716D01*
X162656651Y-119878867D01*
X162655644Y-119877936D01*
X162655643Y-119877936D01*
X162648781Y-119871592D01*
X162645216Y-119868163D01*
X162623835Y-119846782D01*
X162622676Y-119845608D01*
X162554426Y-119775547D01*
X162550391Y-119771405D01*
X162545671Y-119768069D01*
X162545666Y-119768065D01*
X162538403Y-119761350D01*
X160718973Y-117941921D01*
X160713336Y-117935903D01*
X160674157Y-117891228D01*
X160670345Y-117886881D01*
X160600373Y-117831720D01*
X160597882Y-117829702D01*
X160533890Y-117776479D01*
X160533880Y-117776472D01*
X160529442Y-117772781D01*
X160524401Y-117769958D01*
X160521779Y-117768156D01*
X160511475Y-117761271D01*
X160508829Y-117759552D01*
X160504292Y-117755976D01*
X160499181Y-117753287D01*
X160499178Y-117753285D01*
X160425527Y-117714535D01*
X160422629Y-117712962D01*
X160349994Y-117672285D01*
X160344955Y-117669463D01*
X160339483Y-117667606D01*
X160336593Y-117666319D01*
X160325171Y-117661412D01*
X160322278Y-117660214D01*
X160317164Y-117657523D01*
X160263471Y-117640851D01*
X160232167Y-117631130D01*
X160229033Y-117630112D01*
X160150191Y-117603350D01*
X160150190Y-117603350D01*
X160144729Y-117601496D01*
X160139017Y-117600668D01*
X160136090Y-117599965D01*
X160123714Y-117597164D01*
X160120742Y-117596532D01*
X160115227Y-117594820D01*
X160026789Y-117584352D01*
X160023586Y-117583930D01*
X159957878Y-117574403D01*
X159941182Y-117571982D01*
X159941180Y-117571982D01*
X159935470Y-117571154D01*
X159852784Y-117574403D01*
X159847837Y-117574500D01*
X158336743Y-117574500D01*
X158268622Y-117554498D01*
X158247648Y-117537595D01*
X155523495Y-114813442D01*
X156414303Y-114813442D01*
X156423017Y-114824962D01*
X156524394Y-114899296D01*
X156532293Y-114904232D01*
X156757901Y-115022930D01*
X156766450Y-115026647D01*
X157007113Y-115110690D01*
X157016122Y-115113104D01*
X157266572Y-115160654D01*
X157275827Y-115161708D01*
X157530557Y-115171717D01*
X157539871Y-115171391D01*
X157793270Y-115143640D01*
X157802447Y-115141939D01*
X158048960Y-115077037D01*
X158057780Y-115074000D01*
X158291997Y-114973373D01*
X158300269Y-114969066D01*
X158517036Y-114834927D01*
X158524579Y-114829447D01*
X158526272Y-114828014D01*
X158534710Y-114815211D01*
X158528645Y-114804855D01*
X157485812Y-113762022D01*
X157471868Y-113754408D01*
X157470035Y-113754539D01*
X157463420Y-113758790D01*
X156420961Y-114801249D01*
X156414303Y-114813442D01*
X155523495Y-114813442D01*
X154637268Y-113927215D01*
X154603242Y-113864903D01*
X154603543Y-113809990D01*
X154620830Y-113734514D01*
X154620831Y-113734509D01*
X154621787Y-113730334D01*
X154648095Y-113435562D01*
X154648572Y-113390000D01*
X154647614Y-113375947D01*
X154645709Y-113347999D01*
X155690849Y-113347999D01*
X155703080Y-113602619D01*
X155704217Y-113611879D01*
X155753947Y-113861894D01*
X155756441Y-113870887D01*
X155842578Y-114110797D01*
X155846378Y-114119332D01*
X155967031Y-114343877D01*
X155972045Y-114351748D01*
X156038154Y-114440279D01*
X156049414Y-114448729D01*
X156061832Y-114441958D01*
X157100978Y-113402812D01*
X157107356Y-113391132D01*
X157837408Y-113391132D01*
X157837539Y-113392965D01*
X157841790Y-113399580D01*
X158887386Y-114445176D01*
X158899766Y-114451936D01*
X158908107Y-114445692D01*
X159037391Y-114244697D01*
X159041838Y-114236506D01*
X159146536Y-114004085D01*
X159149731Y-113995307D01*
X159218923Y-113749968D01*
X159220781Y-113740839D01*
X159253144Y-113486444D01*
X159253625Y-113480158D01*
X159255903Y-113393160D01*
X159255752Y-113386851D01*
X159236747Y-113131110D01*
X159235370Y-113121904D01*
X159179109Y-112873262D01*
X159176385Y-112864351D01*
X159083990Y-112626758D01*
X159079979Y-112618349D01*
X158953482Y-112397027D01*
X158948269Y-112389298D01*
X158908633Y-112339019D01*
X158896709Y-112330549D01*
X158885174Y-112337036D01*
X157845022Y-113377188D01*
X157837408Y-113391132D01*
X157107356Y-113391132D01*
X157108592Y-113388868D01*
X157108461Y-113387035D01*
X157104210Y-113380420D01*
X156060119Y-112336329D01*
X156046811Y-112329062D01*
X156036772Y-112336184D01*
X156024433Y-112351020D01*
X156019018Y-112358612D01*
X155886776Y-112576540D01*
X155882538Y-112584857D01*
X155783961Y-112819935D01*
X155781000Y-112828785D01*
X155718255Y-113075849D01*
X155716633Y-113085046D01*
X155691094Y-113338673D01*
X155690849Y-113347999D01*
X154645709Y-113347999D01*
X154628735Y-113099018D01*
X154628734Y-113099012D01*
X154628443Y-113094741D01*
X154625021Y-113078214D01*
X154569299Y-112809143D01*
X154568430Y-112804946D01*
X154469641Y-112525976D01*
X154463580Y-112514232D01*
X154335872Y-112266802D01*
X154335872Y-112266801D01*
X154333907Y-112262995D01*
X154322929Y-112247374D01*
X154166204Y-112024378D01*
X154166203Y-112024377D01*
X154163737Y-112020868D01*
X154111224Y-111964357D01*
X156411770Y-111964357D01*
X156416343Y-111974133D01*
X157460188Y-113017978D01*
X157474132Y-113025592D01*
X157475965Y-113025461D01*
X157482580Y-113021210D01*
X158525790Y-111978000D01*
X158532174Y-111966310D01*
X158522762Y-111954199D01*
X158381776Y-111856392D01*
X158373741Y-111851659D01*
X158145106Y-111738909D01*
X158136473Y-111735421D01*
X157893675Y-111657701D01*
X157884624Y-111655528D01*
X157633009Y-111614550D01*
X157623720Y-111613738D01*
X157368828Y-111610401D01*
X157359517Y-111610971D01*
X157106927Y-111645347D01*
X157097808Y-111647285D01*
X156853084Y-111718616D01*
X156844331Y-111721888D01*
X156612837Y-111828608D01*
X156604682Y-111833128D01*
X156420907Y-111953616D01*
X156411770Y-111964357D01*
X154111224Y-111964357D01*
X153989279Y-111833128D01*
X153965199Y-111807215D01*
X153965198Y-111807214D01*
X153962282Y-111804076D01*
X153861868Y-111721888D01*
X153736586Y-111619347D01*
X153733268Y-111616631D01*
X153639109Y-111558930D01*
X153484584Y-111464236D01*
X153484576Y-111464232D01*
X153480934Y-111462000D01*
X153477017Y-111460281D01*
X153477014Y-111460279D01*
X153341801Y-111400925D01*
X153209949Y-111343046D01*
X153205821Y-111341870D01*
X153205818Y-111341869D01*
X152929455Y-111263145D01*
X152929456Y-111263145D01*
X152925327Y-111261969D01*
X152705528Y-111230688D01*
X152636587Y-111220876D01*
X152636585Y-111220876D01*
X152632335Y-111220271D01*
X152628046Y-111220249D01*
X152628039Y-111220248D01*
X152340681Y-111218743D01*
X152340674Y-111218743D01*
X152336395Y-111218721D01*
X152332151Y-111219280D01*
X152332147Y-111219280D01*
X152203305Y-111236242D01*
X152042982Y-111257349D01*
X151757527Y-111335441D01*
X151735653Y-111344771D01*
X151489253Y-111449869D01*
X151489246Y-111449873D01*
X151485311Y-111451551D01*
X151436054Y-111481031D01*
X151235054Y-111601327D01*
X151235050Y-111601330D01*
X151231372Y-111603531D01*
X151000408Y-111788568D01*
X150997464Y-111791670D01*
X150997460Y-111791674D01*
X150820643Y-111978000D01*
X150796693Y-112003238D01*
X150623997Y-112243570D01*
X150485516Y-112505115D01*
X150444658Y-112616765D01*
X150412270Y-112705271D01*
X150383812Y-112783035D01*
X150320767Y-113072186D01*
X150297547Y-113367218D01*
X150314583Y-113662671D01*
X150315408Y-113666876D01*
X150315409Y-113666884D01*
X150344087Y-113813054D01*
X150337574Y-113883751D01*
X150309540Y-113926407D01*
X149983353Y-114252595D01*
X149921040Y-114286620D01*
X149894257Y-114289500D01*
X147692846Y-114289500D01*
X147624725Y-114269498D01*
X147589759Y-114235951D01*
X147561371Y-114195558D01*
X147473737Y-114070868D01*
X147272282Y-113854076D01*
X147043268Y-113666631D01*
X146953921Y-113611879D01*
X146794584Y-113514236D01*
X146794576Y-113514232D01*
X146790934Y-113512000D01*
X146787017Y-113510281D01*
X146787014Y-113510279D01*
X146616803Y-113435562D01*
X146519949Y-113393046D01*
X146515821Y-113391870D01*
X146515818Y-113391869D01*
X146239455Y-113313145D01*
X146239456Y-113313145D01*
X146235327Y-113311969D01*
X145987326Y-113276674D01*
X145946587Y-113270876D01*
X145946585Y-113270876D01*
X145942335Y-113270271D01*
X145938046Y-113270249D01*
X145938039Y-113270248D01*
X145650681Y-113268743D01*
X145650674Y-113268743D01*
X145646395Y-113268721D01*
X145642151Y-113269280D01*
X145642147Y-113269280D01*
X145531910Y-113283793D01*
X145352982Y-113307349D01*
X145348842Y-113308482D01*
X145348840Y-113308482D01*
X145071672Y-113384307D01*
X145067527Y-113385441D01*
X145049430Y-113393160D01*
X144799253Y-113499869D01*
X144799246Y-113499873D01*
X144795311Y-113501551D01*
X144679326Y-113570967D01*
X144545054Y-113651327D01*
X144545050Y-113651330D01*
X144541372Y-113653531D01*
X144310408Y-113838568D01*
X144307464Y-113841670D01*
X144307460Y-113841674D01*
X144109643Y-114050129D01*
X144106693Y-114053238D01*
X143933997Y-114293570D01*
X143795516Y-114555115D01*
X143794041Y-114559146D01*
X143709733Y-114789530D01*
X143693812Y-114833035D01*
X143630767Y-115122186D01*
X143607547Y-115417218D01*
X143624583Y-115712671D01*
X143625408Y-115716876D01*
X143625409Y-115716884D01*
X143664654Y-115916914D01*
X143681559Y-116003079D01*
X143682946Y-116007130D01*
X143761333Y-116236080D01*
X143777420Y-116283068D01*
X143910394Y-116547456D01*
X144078018Y-116791352D01*
X144277193Y-117010241D01*
X144280482Y-117012991D01*
X144500939Y-117197323D01*
X144500944Y-117197327D01*
X144504231Y-117200075D01*
X144562653Y-117236723D01*
X144751292Y-117355056D01*
X144751296Y-117355058D01*
X144754932Y-117357339D01*
X144758842Y-117359104D01*
X144758843Y-117359105D01*
X145020744Y-117477358D01*
X145020748Y-117477360D01*
X145024656Y-117479124D01*
X145028775Y-117480344D01*
X145304301Y-117561959D01*
X145304305Y-117561960D01*
X145308414Y-117563177D01*
X145312648Y-117563825D01*
X145312653Y-117563826D01*
X145544602Y-117599319D01*
X145600953Y-117607942D01*
X145751665Y-117610309D01*
X145892570Y-117612523D01*
X145892576Y-117612523D01*
X145896861Y-117612590D01*
X146190662Y-117577037D01*
X146432730Y-117513531D01*
X146472776Y-117503025D01*
X146472777Y-117503025D01*
X146476919Y-117501938D01*
X146750336Y-117388685D01*
X146800957Y-117359105D01*
X147002145Y-117241540D01*
X147002147Y-117241538D01*
X147005853Y-117239373D01*
X147238742Y-117056765D01*
X147247634Y-117047590D01*
X147441710Y-116847318D01*
X147444693Y-116844240D01*
X147447226Y-116840792D01*
X147447230Y-116840787D01*
X147593322Y-116641906D01*
X147649771Y-116598847D01*
X147694869Y-116590500D01*
X150379963Y-116590500D01*
X150388203Y-116590770D01*
X150453246Y-116595033D01*
X150541691Y-116584564D01*
X150544950Y-116584223D01*
X150564773Y-116582401D01*
X150627806Y-116576610D01*
X150627809Y-116576609D01*
X150633560Y-116576081D01*
X150639122Y-116574512D01*
X150642161Y-116573949D01*
X150654481Y-116571499D01*
X150657494Y-116570858D01*
X150663227Y-116570180D01*
X150668744Y-116568467D01*
X150668748Y-116568466D01*
X150748201Y-116543795D01*
X150751364Y-116542858D01*
X150831507Y-116520256D01*
X150831521Y-116520251D01*
X150837069Y-116518686D01*
X150842244Y-116516134D01*
X150845133Y-116515025D01*
X150856752Y-116510389D01*
X150859646Y-116509190D01*
X150865163Y-116507477D01*
X150943936Y-116466033D01*
X150946867Y-116464539D01*
X151021524Y-116427723D01*
X151021529Y-116427720D01*
X151026710Y-116425165D01*
X151031341Y-116421707D01*
X151034035Y-116420056D01*
X151044618Y-116413379D01*
X151047191Y-116411708D01*
X151052292Y-116409024D01*
X151122215Y-116353902D01*
X151124817Y-116351905D01*
X151129174Y-116348652D01*
X151196133Y-116298651D01*
X151252311Y-116237878D01*
X151255740Y-116234313D01*
X151934631Y-115555422D01*
X151996943Y-115521396D01*
X152042785Y-115519967D01*
X152251991Y-115551980D01*
X152290953Y-115557942D01*
X152441665Y-115560309D01*
X152582570Y-115562523D01*
X152582576Y-115562523D01*
X152586861Y-115562590D01*
X152880662Y-115527037D01*
X152884802Y-115525951D01*
X152884812Y-115525949D01*
X152891774Y-115524122D01*
X152962741Y-115526180D01*
X153012848Y-115556901D01*
X156964034Y-119508087D01*
X156969671Y-119514105D01*
X157012655Y-119563119D01*
X157017188Y-119566693D01*
X157017197Y-119566701D01*
X157082565Y-119618232D01*
X157085129Y-119620308D01*
X157149111Y-119673521D01*
X157149115Y-119673524D01*
X157153558Y-119677219D01*
X157158600Y-119680043D01*
X157161221Y-119681844D01*
X157171525Y-119688729D01*
X157174171Y-119690448D01*
X157178708Y-119694024D01*
X157183819Y-119696713D01*
X157183822Y-119696715D01*
X157257473Y-119735465D01*
X157260371Y-119737038D01*
X157321739Y-119771405D01*
X157338045Y-119780537D01*
X157343517Y-119782394D01*
X157346407Y-119783681D01*
X157357829Y-119788588D01*
X157360721Y-119789786D01*
X157365836Y-119792477D01*
X157402012Y-119803710D01*
X157450849Y-119818875D01*
X157453969Y-119819888D01*
X157538270Y-119848504D01*
X157543992Y-119849334D01*
X157546967Y-119850048D01*
X157559286Y-119852836D01*
X157562258Y-119853468D01*
X157567773Y-119855180D01*
X157649863Y-119864896D01*
X157656204Y-119865647D01*
X157659476Y-119866078D01*
X157747529Y-119878845D01*
X157830200Y-119875597D01*
X157835147Y-119875500D01*
X159346257Y-119875500D01*
X159414378Y-119895502D01*
X159435352Y-119912405D01*
X160610595Y-121087648D01*
X160644621Y-121149960D01*
X160647500Y-121176743D01*
X160647500Y-122000898D01*
X160627498Y-122069019D01*
X160600195Y-122099301D01*
X160525401Y-122159116D01*
X160503268Y-122176816D01*
X160500147Y-122180157D01*
X160344917Y-122346330D01*
X160314992Y-122378364D01*
X160157784Y-122604979D01*
X160155756Y-122609055D01*
X160155755Y-122609057D01*
X160047517Y-122826624D01*
X160034935Y-122851914D01*
X159949020Y-123113998D01*
X159948240Y-123118489D01*
X159948240Y-123118490D01*
X159915949Y-123304468D01*
X159901838Y-123385738D01*
X159897500Y-123472876D01*
X159897500Y-124145070D01*
X159897665Y-124147338D01*
X159897665Y-124147350D01*
X159905870Y-124260425D01*
X159912375Y-124350083D01*
X159913359Y-124354538D01*
X159913359Y-124354541D01*
X159954379Y-124540335D01*
X159971836Y-124619403D01*
X160069551Y-124877319D01*
X160071765Y-124881306D01*
X160071766Y-124881307D01*
X160183969Y-125083311D01*
X160203475Y-125118428D01*
X160206247Y-125122060D01*
X160368029Y-125334044D01*
X160370802Y-125337678D01*
X160374068Y-125340871D01*
X160374070Y-125340873D01*
X160564758Y-125527283D01*
X160564763Y-125527287D01*
X160568026Y-125530477D01*
X160571718Y-125533164D01*
X160571720Y-125533166D01*
X160722060Y-125642595D01*
X160791016Y-125692787D01*
X161035101Y-125821206D01*
X161295168Y-125913045D01*
X161394874Y-125932697D01*
X161561296Y-125965499D01*
X161561302Y-125965500D01*
X161565768Y-125966380D01*
X161570322Y-125966607D01*
X161570324Y-125966607D01*
X161836664Y-125979867D01*
X161836670Y-125979867D01*
X161841233Y-125980094D01*
X162115792Y-125953898D01*
X162120226Y-125952813D01*
X162120232Y-125952812D01*
X162379256Y-125889429D01*
X162383694Y-125888343D01*
X162639326Y-125784801D01*
X162643256Y-125782500D01*
X162643262Y-125782497D01*
X162873403Y-125647745D01*
X162873410Y-125647740D01*
X162877335Y-125645442D01*
X162987416Y-125557408D01*
X163053109Y-125530484D01*
X163122930Y-125543350D01*
X163140259Y-125553939D01*
X163148140Y-125559675D01*
X163262060Y-125642595D01*
X163331016Y-125692787D01*
X163575101Y-125821206D01*
X163835168Y-125913045D01*
X163934874Y-125932697D01*
X164101296Y-125965499D01*
X164101302Y-125965500D01*
X164105768Y-125966380D01*
X164110322Y-125966607D01*
X164110324Y-125966607D01*
X164376664Y-125979867D01*
X164376670Y-125979867D01*
X164381233Y-125980094D01*
X164655792Y-125953898D01*
X164660226Y-125952813D01*
X164660232Y-125952812D01*
X164919256Y-125889429D01*
X164923694Y-125888343D01*
X165179326Y-125784801D01*
X165183256Y-125782500D01*
X165183262Y-125782497D01*
X165413403Y-125647745D01*
X165413410Y-125647740D01*
X165417335Y-125645442D01*
X165527416Y-125557408D01*
X165593109Y-125530484D01*
X165662930Y-125543350D01*
X165680259Y-125553939D01*
X165688140Y-125559675D01*
X165802060Y-125642595D01*
X165871016Y-125692787D01*
X166115101Y-125821206D01*
X166375168Y-125913045D01*
X166474874Y-125932697D01*
X166641296Y-125965499D01*
X166641302Y-125965500D01*
X166645768Y-125966380D01*
X166650322Y-125966607D01*
X166650324Y-125966607D01*
X166916664Y-125979867D01*
X166916670Y-125979867D01*
X166921233Y-125980094D01*
X167195792Y-125953898D01*
X167200226Y-125952813D01*
X167200232Y-125952812D01*
X167459256Y-125889429D01*
X167463694Y-125888343D01*
X167719326Y-125784801D01*
X167723256Y-125782500D01*
X167723262Y-125782497D01*
X167953403Y-125647745D01*
X167953410Y-125647740D01*
X167957335Y-125645442D01*
X168067416Y-125557408D01*
X168133109Y-125530484D01*
X168202930Y-125543350D01*
X168220259Y-125553939D01*
X168228140Y-125559675D01*
X168342060Y-125642595D01*
X168411016Y-125692787D01*
X168655101Y-125821206D01*
X168915168Y-125913045D01*
X169014874Y-125932697D01*
X169181296Y-125965499D01*
X169181302Y-125965500D01*
X169185768Y-125966380D01*
X169190322Y-125966607D01*
X169190324Y-125966607D01*
X169456664Y-125979867D01*
X169456670Y-125979867D01*
X169461233Y-125980094D01*
X169735792Y-125953898D01*
X169740226Y-125952813D01*
X169740232Y-125952812D01*
X169999256Y-125889429D01*
X170003694Y-125888343D01*
X170259326Y-125784801D01*
X170263256Y-125782500D01*
X170263262Y-125782497D01*
X170493403Y-125647745D01*
X170493410Y-125647740D01*
X170497335Y-125645442D01*
X170607416Y-125557408D01*
X170673109Y-125530484D01*
X170742930Y-125543350D01*
X170760259Y-125553939D01*
X170768140Y-125559675D01*
X170882060Y-125642595D01*
X170951016Y-125692787D01*
X171195101Y-125821206D01*
X171455168Y-125913045D01*
X171554874Y-125932697D01*
X171721296Y-125965499D01*
X171721302Y-125965500D01*
X171725768Y-125966380D01*
X171730322Y-125966607D01*
X171730324Y-125966607D01*
X171996664Y-125979867D01*
X171996670Y-125979867D01*
X172001233Y-125980094D01*
X172275792Y-125953898D01*
X172280226Y-125952813D01*
X172280232Y-125952812D01*
X172539256Y-125889429D01*
X172543694Y-125888343D01*
X172799326Y-125784801D01*
X172803256Y-125782500D01*
X172803262Y-125782497D01*
X173033403Y-125647745D01*
X173033410Y-125647740D01*
X173037335Y-125645442D01*
X173147416Y-125557408D01*
X173213109Y-125530484D01*
X173282930Y-125543350D01*
X173300259Y-125553939D01*
X173308140Y-125559675D01*
X173422060Y-125642595D01*
X173491016Y-125692787D01*
X173735101Y-125821206D01*
X173995168Y-125913045D01*
X174094874Y-125932697D01*
X174261296Y-125965499D01*
X174261302Y-125965500D01*
X174265768Y-125966380D01*
X174270322Y-125966607D01*
X174270324Y-125966607D01*
X174536664Y-125979867D01*
X174536670Y-125979867D01*
X174541233Y-125980094D01*
X174815792Y-125953898D01*
X174820226Y-125952813D01*
X174820232Y-125952812D01*
X175079256Y-125889429D01*
X175083694Y-125888343D01*
X175339326Y-125784801D01*
X175343256Y-125782500D01*
X175343262Y-125782497D01*
X175573403Y-125647745D01*
X175573410Y-125647740D01*
X175577335Y-125645442D01*
X175602401Y-125625396D01*
X175789166Y-125476036D01*
X175789167Y-125476035D01*
X175792732Y-125473184D01*
X175941332Y-125314109D01*
X175977892Y-125274972D01*
X175977894Y-125274969D01*
X175981008Y-125271636D01*
X176138216Y-125045021D01*
X176243006Y-124834387D01*
X176246796Y-124826768D01*
X176295047Y-124774687D01*
X176363795Y-124756961D01*
X176431213Y-124779216D01*
X176475897Y-124834387D01*
X176485499Y-124888108D01*
X176457757Y-125557408D01*
X176408481Y-126746218D01*
X176385675Y-126813452D01*
X176330140Y-126857683D01*
X176282589Y-126867000D01*
X125891367Y-126867000D01*
X125823246Y-126846998D01*
X125776753Y-126793342D01*
X125766649Y-126723068D01*
X125796143Y-126658488D01*
X125854318Y-126620570D01*
X125988442Y-126579308D01*
X125991920Y-126578238D01*
X126024889Y-126563765D01*
X126298260Y-126443764D01*
X126298264Y-126443762D01*
X126301583Y-126442305D01*
X126593571Y-126271681D01*
X126808968Y-126109957D01*
X126861106Y-126070811D01*
X126861110Y-126070808D01*
X126864013Y-126068628D01*
X127109323Y-125835837D01*
X127326252Y-125576393D01*
X127338521Y-125557715D01*
X127509937Y-125296761D01*
X127509942Y-125296752D01*
X127511924Y-125293735D01*
X127600094Y-125118428D01*
X127662250Y-124994846D01*
X127662253Y-124994838D01*
X127663877Y-124991610D01*
X127704242Y-124881307D01*
X127778849Y-124677434D01*
X127778852Y-124677425D01*
X127780097Y-124674022D01*
X127780942Y-124670500D01*
X127780945Y-124670492D01*
X127858198Y-124348710D01*
X127858199Y-124348706D01*
X127859045Y-124345181D01*
X127899674Y-124009445D01*
X127905470Y-123825000D01*
X127901977Y-123764419D01*
X127886212Y-123490996D01*
X127886211Y-123490991D01*
X127886003Y-123487376D01*
X127873413Y-123415237D01*
X127828483Y-123157799D01*
X127828481Y-123157792D01*
X127827859Y-123154226D01*
X127817274Y-123118490D01*
X127772647Y-122967836D01*
X127731809Y-122829968D01*
X127599126Y-122518898D01*
X127431570Y-122225139D01*
X127398528Y-122180157D01*
X127331033Y-122088275D01*
X127231360Y-121952586D01*
X127182949Y-121900489D01*
X127003622Y-121707511D01*
X127003620Y-121707509D01*
X127001150Y-121704851D01*
X126998396Y-121702499D01*
X126998392Y-121702495D01*
X126875667Y-121597678D01*
X126743992Y-121485217D01*
X126740989Y-121483199D01*
X126740981Y-121483193D01*
X126481854Y-121309068D01*
X126463294Y-121296596D01*
X126460085Y-121294940D01*
X126460077Y-121294935D01*
X126165997Y-121143150D01*
X126165998Y-121143150D01*
X126162777Y-121141488D01*
X125846423Y-121021948D01*
X125518427Y-120939561D01*
X125372186Y-120920308D01*
X125186739Y-120895893D01*
X125186731Y-120895892D01*
X125183135Y-120895419D01*
X125042630Y-120893212D01*
X124848634Y-120890164D01*
X124848630Y-120890164D01*
X124844992Y-120890107D01*
X124841377Y-120890468D01*
X124841372Y-120890468D01*
X124608807Y-120913681D01*
X124508478Y-120923695D01*
X124279956Y-120973521D01*
X124185922Y-120994024D01*
X124178056Y-120995739D01*
X124174629Y-120996912D01*
X124174623Y-120996914D01*
X123861535Y-121104108D01*
X123861530Y-121104110D01*
X123858104Y-121105283D01*
X123854836Y-121106842D01*
X123854828Y-121106845D01*
X123710687Y-121175597D01*
X123552863Y-121250875D01*
X123266379Y-121430587D01*
X123002449Y-121642034D01*
X122957527Y-121687429D01*
X122785042Y-121861730D01*
X122764571Y-121882416D01*
X122762330Y-121885274D01*
X122588750Y-122106650D01*
X122555899Y-122148546D01*
X122379198Y-122436896D01*
X122377671Y-122440186D01*
X122377666Y-122440195D01*
X122302914Y-122601235D01*
X122236809Y-122743645D01*
X122130622Y-123064727D01*
X122129886Y-123068282D01*
X122129885Y-123068285D01*
X122082839Y-123295459D01*
X122062042Y-123395885D01*
X122031979Y-123732732D01*
X122032074Y-123736362D01*
X122032074Y-123736363D01*
X122039225Y-124009445D01*
X122040832Y-124070801D01*
X122088483Y-124405613D01*
X122174300Y-124732728D01*
X122297146Y-125047812D01*
X122298843Y-125051017D01*
X122452314Y-125340873D01*
X122455393Y-125346689D01*
X122457443Y-125349672D01*
X122457445Y-125349675D01*
X122644886Y-125622404D01*
X122644892Y-125622411D01*
X122646943Y-125625396D01*
X122869258Y-125880240D01*
X123119390Y-126107843D01*
X123394025Y-126305188D01*
X123689522Y-126469659D01*
X124001964Y-126599077D01*
X124005458Y-126600072D01*
X124005460Y-126600073D01*
X124074786Y-126619821D01*
X124134821Y-126657720D01*
X124164835Y-126722060D01*
X124155300Y-126792413D01*
X124109243Y-126846443D01*
X124040267Y-126867000D01*
X111488422Y-126867000D01*
X111420301Y-126846998D01*
X111373808Y-126793342D01*
X111362422Y-126741125D01*
X111362421Y-126739307D01*
X111329551Y-93556774D01*
X111324172Y-88126125D01*
X111344107Y-88057984D01*
X111397716Y-88011438D01*
X111450172Y-88000000D01*
X115107500Y-88000000D01*
X115107500Y-75472732D01*
X123301979Y-75472732D01*
X123310832Y-75810801D01*
X123358483Y-76145613D01*
X123444300Y-76472728D01*
X123567146Y-76787812D01*
X123568843Y-76791017D01*
X123722314Y-77080873D01*
X123725393Y-77086689D01*
X123727443Y-77089672D01*
X123727445Y-77089675D01*
X123914886Y-77362404D01*
X123914892Y-77362411D01*
X123916943Y-77365396D01*
X123936962Y-77388344D01*
X124095098Y-77569618D01*
X124139258Y-77620240D01*
X124389390Y-77847843D01*
X124664025Y-78045188D01*
X124959522Y-78209659D01*
X125271964Y-78339077D01*
X125275458Y-78340072D01*
X125275460Y-78340073D01*
X125593710Y-78430729D01*
X125593715Y-78430730D01*
X125597211Y-78431726D01*
X125788754Y-78463092D01*
X125927370Y-78485792D01*
X125927377Y-78485793D01*
X125930951Y-78486378D01*
X126099856Y-78494343D01*
X126265134Y-78502138D01*
X126265135Y-78502138D01*
X126268761Y-78502309D01*
X126276677Y-78501769D01*
X126602532Y-78479555D01*
X126602540Y-78479554D01*
X126606163Y-78479307D01*
X126609739Y-78478644D01*
X126609741Y-78478644D01*
X126935120Y-78418339D01*
X126935124Y-78418338D01*
X126938685Y-78417678D01*
X127261920Y-78318238D01*
X127294889Y-78303765D01*
X127568260Y-78183764D01*
X127568264Y-78183762D01*
X127571583Y-78182305D01*
X127863571Y-78011681D01*
X128078968Y-77849957D01*
X128131106Y-77810811D01*
X128131110Y-77810808D01*
X128134013Y-77808628D01*
X128379323Y-77575837D01*
X128386668Y-77567052D01*
X128532360Y-77392807D01*
X128591401Y-77353378D01*
X128662387Y-77352127D01*
X128703171Y-77371758D01*
X128787016Y-77432787D01*
X129031101Y-77561206D01*
X129291168Y-77653045D01*
X129358789Y-77666373D01*
X129557296Y-77705499D01*
X129557302Y-77705500D01*
X129561768Y-77706380D01*
X129566322Y-77706607D01*
X129566324Y-77706607D01*
X129832664Y-77719867D01*
X129832670Y-77719867D01*
X129837233Y-77720094D01*
X130111792Y-77693898D01*
X130116226Y-77692813D01*
X130116232Y-77692812D01*
X130375256Y-77629429D01*
X130379694Y-77628343D01*
X130635326Y-77524801D01*
X130639256Y-77522500D01*
X130639262Y-77522497D01*
X130869403Y-77387745D01*
X130869410Y-77387740D01*
X130873335Y-77385442D01*
X130959676Y-77316393D01*
X130983416Y-77297408D01*
X131049109Y-77270484D01*
X131118930Y-77283350D01*
X131136259Y-77293939D01*
X131167108Y-77316393D01*
X131300971Y-77413829D01*
X131327016Y-77432787D01*
X131571101Y-77561206D01*
X131831168Y-77653045D01*
X131898789Y-77666373D01*
X132097296Y-77705499D01*
X132097302Y-77705500D01*
X132101768Y-77706380D01*
X132106322Y-77706607D01*
X132106324Y-77706607D01*
X132372664Y-77719867D01*
X132372670Y-77719867D01*
X132377233Y-77720094D01*
X132651792Y-77693898D01*
X132656226Y-77692813D01*
X132656232Y-77692812D01*
X132915256Y-77629429D01*
X132919694Y-77628343D01*
X133175326Y-77524801D01*
X133179256Y-77522500D01*
X133179262Y-77522497D01*
X133409403Y-77387745D01*
X133409410Y-77387740D01*
X133413335Y-77385442D01*
X133499676Y-77316393D01*
X133523416Y-77297408D01*
X133589109Y-77270484D01*
X133658930Y-77283350D01*
X133676259Y-77293939D01*
X133707108Y-77316393D01*
X133840971Y-77413829D01*
X133867016Y-77432787D01*
X133958513Y-77480926D01*
X134009484Y-77530344D01*
X134025647Y-77599477D01*
X134001868Y-77666373D01*
X133988939Y-77681528D01*
X129049855Y-82620613D01*
X128990709Y-82653907D01*
X128887672Y-82679120D01*
X128877306Y-82681657D01*
X128621674Y-82785199D01*
X128617744Y-82787500D01*
X128617738Y-82787503D01*
X128387597Y-82922255D01*
X128387590Y-82922260D01*
X128383665Y-82924558D01*
X128380105Y-82927405D01*
X128273584Y-83012592D01*
X128207891Y-83039516D01*
X128138070Y-83026650D01*
X128120739Y-83016060D01*
X128115975Y-83012592D01*
X128012800Y-82937493D01*
X127933676Y-82879900D01*
X127933673Y-82879898D01*
X127929984Y-82877213D01*
X127685899Y-82748794D01*
X127425832Y-82656955D01*
X127326126Y-82637303D01*
X127159704Y-82604501D01*
X127159698Y-82604500D01*
X127155232Y-82603620D01*
X127150678Y-82603393D01*
X127150676Y-82603393D01*
X126884336Y-82590133D01*
X126884330Y-82590133D01*
X126879767Y-82589906D01*
X126605208Y-82616102D01*
X126600774Y-82617187D01*
X126600768Y-82617188D01*
X126341744Y-82680571D01*
X126337306Y-82681657D01*
X126081674Y-82785199D01*
X126077744Y-82787500D01*
X126077738Y-82787503D01*
X125847597Y-82922255D01*
X125847590Y-82922260D01*
X125843665Y-82924558D01*
X125840105Y-82927405D01*
X125647555Y-83081392D01*
X125628268Y-83096816D01*
X125625147Y-83100157D01*
X125446765Y-83291114D01*
X125439992Y-83298364D01*
X125282784Y-83524979D01*
X125280756Y-83529055D01*
X125280755Y-83529057D01*
X125170352Y-83750976D01*
X125159935Y-83771914D01*
X125074020Y-84033998D01*
X125073240Y-84038489D01*
X125073240Y-84038490D01*
X125027687Y-84300849D01*
X125026838Y-84305738D01*
X125022500Y-84392876D01*
X125022500Y-85105070D01*
X125022665Y-85107338D01*
X125022665Y-85107350D01*
X125027492Y-85173878D01*
X125037375Y-85310083D01*
X125038359Y-85314538D01*
X125038359Y-85314541D01*
X125079379Y-85500335D01*
X125096836Y-85579403D01*
X125194551Y-85837319D01*
X125328475Y-86078428D01*
X125331247Y-86082060D01*
X125493029Y-86294044D01*
X125495802Y-86297678D01*
X125499068Y-86300871D01*
X125499070Y-86300873D01*
X125689758Y-86487283D01*
X125689763Y-86487287D01*
X125693026Y-86490477D01*
X125696718Y-86493164D01*
X125696720Y-86493166D01*
X125860606Y-86612455D01*
X125916016Y-86652787D01*
X126160101Y-86781206D01*
X126420168Y-86873045D01*
X126519874Y-86892697D01*
X126686296Y-86925499D01*
X126686302Y-86925500D01*
X126690768Y-86926380D01*
X126695322Y-86926607D01*
X126695324Y-86926607D01*
X126961664Y-86939867D01*
X126961670Y-86939867D01*
X126966233Y-86940094D01*
X127240792Y-86913898D01*
X127245226Y-86912813D01*
X127245232Y-86912812D01*
X127504256Y-86849429D01*
X127508694Y-86848343D01*
X127764326Y-86744801D01*
X127768256Y-86742500D01*
X127768262Y-86742497D01*
X127998403Y-86607745D01*
X127998410Y-86607740D01*
X128002335Y-86605442D01*
X128112416Y-86517408D01*
X128178109Y-86490484D01*
X128247930Y-86503350D01*
X128265259Y-86513939D01*
X128312501Y-86548325D01*
X128387060Y-86602595D01*
X128456016Y-86652787D01*
X128700101Y-86781206D01*
X128960168Y-86873045D01*
X129059874Y-86892697D01*
X129226296Y-86925499D01*
X129226302Y-86925500D01*
X129230768Y-86926380D01*
X129235322Y-86926607D01*
X129235324Y-86926607D01*
X129501664Y-86939867D01*
X129501670Y-86939867D01*
X129506233Y-86940094D01*
X129780792Y-86913898D01*
X129785226Y-86912813D01*
X129785232Y-86912812D01*
X130044256Y-86849429D01*
X130048694Y-86848343D01*
X130304326Y-86744801D01*
X130308256Y-86742500D01*
X130308262Y-86742497D01*
X130538403Y-86607745D01*
X130538410Y-86607740D01*
X130542335Y-86605442D01*
X130652416Y-86517408D01*
X130718109Y-86490484D01*
X130787930Y-86503350D01*
X130805259Y-86513939D01*
X130852501Y-86548325D01*
X130927060Y-86602595D01*
X130996016Y-86652787D01*
X131240101Y-86781206D01*
X131500168Y-86873045D01*
X131599874Y-86892697D01*
X131766296Y-86925499D01*
X131766302Y-86925500D01*
X131770768Y-86926380D01*
X131775322Y-86926607D01*
X131775324Y-86926607D01*
X132041664Y-86939867D01*
X132041670Y-86939867D01*
X132046233Y-86940094D01*
X132320792Y-86913898D01*
X132325226Y-86912813D01*
X132325232Y-86912812D01*
X132584256Y-86849429D01*
X132588694Y-86848343D01*
X132844326Y-86744801D01*
X132848256Y-86742500D01*
X132848262Y-86742497D01*
X133078403Y-86607745D01*
X133078410Y-86607740D01*
X133082335Y-86605442D01*
X133176600Y-86530056D01*
X133294166Y-86436036D01*
X133294167Y-86436035D01*
X133297732Y-86433184D01*
X133465196Y-86253915D01*
X133526314Y-86217789D01*
X133597261Y-86220441D01*
X133637247Y-86242563D01*
X133675652Y-86274109D01*
X133683933Y-86279865D01*
X133884919Y-86396841D01*
X133894024Y-86401203D01*
X134111115Y-86484537D01*
X134120804Y-86487388D01*
X134271264Y-86518821D01*
X134285325Y-86517698D01*
X134289000Y-86507590D01*
X134289000Y-83024410D01*
X134284525Y-83009170D01*
X134270734Y-82997220D01*
X134232351Y-82937493D01*
X134232351Y-82866497D01*
X134264152Y-82812901D01*
X136150128Y-80926925D01*
X136212440Y-80892899D01*
X136239223Y-80890020D01*
X144517443Y-80890020D01*
X144525683Y-80890290D01*
X144590726Y-80894553D01*
X144679171Y-80884084D01*
X144682430Y-80883743D01*
X144702253Y-80881921D01*
X144765286Y-80876130D01*
X144765289Y-80876129D01*
X144771040Y-80875601D01*
X144776602Y-80874032D01*
X144779641Y-80873469D01*
X144791961Y-80871019D01*
X144794974Y-80870378D01*
X144800707Y-80869700D01*
X144806224Y-80867987D01*
X144806228Y-80867986D01*
X144885681Y-80843315D01*
X144888844Y-80842378D01*
X144968987Y-80819776D01*
X144969001Y-80819771D01*
X144974549Y-80818206D01*
X144979724Y-80815654D01*
X144982613Y-80814545D01*
X144994232Y-80809909D01*
X144997126Y-80808710D01*
X145002643Y-80806997D01*
X145081416Y-80765553D01*
X145084347Y-80764059D01*
X145159004Y-80727243D01*
X145159009Y-80727240D01*
X145164190Y-80724685D01*
X145168821Y-80721227D01*
X145171515Y-80719576D01*
X145182098Y-80712899D01*
X145184671Y-80711228D01*
X145189772Y-80708544D01*
X145259695Y-80653422D01*
X145262297Y-80651425D01*
X145328989Y-80601624D01*
X145328990Y-80601623D01*
X145333613Y-80598171D01*
X145389791Y-80537398D01*
X145393220Y-80533833D01*
X148357072Y-77569980D01*
X148363089Y-77564343D01*
X148387484Y-77542949D01*
X148413664Y-77525474D01*
X148415326Y-77524801D01*
X148419261Y-77522497D01*
X148419265Y-77522495D01*
X148649403Y-77387745D01*
X148649410Y-77387740D01*
X148653335Y-77385442D01*
X148739676Y-77316393D01*
X148763416Y-77297408D01*
X148829109Y-77270484D01*
X148898930Y-77283350D01*
X148916259Y-77293939D01*
X148947108Y-77316393D01*
X149080971Y-77413829D01*
X149107016Y-77432787D01*
X149351101Y-77561206D01*
X149611168Y-77653045D01*
X149678789Y-77666373D01*
X149877296Y-77705499D01*
X149877302Y-77705500D01*
X149881768Y-77706380D01*
X149886322Y-77706607D01*
X149886324Y-77706607D01*
X150152664Y-77719867D01*
X150152670Y-77719867D01*
X150157233Y-77720094D01*
X150431792Y-77693898D01*
X150436226Y-77692813D01*
X150436232Y-77692812D01*
X150695256Y-77629429D01*
X150699694Y-77628343D01*
X150955326Y-77524801D01*
X150959256Y-77522500D01*
X150959262Y-77522497D01*
X151189403Y-77387745D01*
X151189410Y-77387740D01*
X151193335Y-77385442D01*
X151279676Y-77316393D01*
X151303416Y-77297408D01*
X151369109Y-77270484D01*
X151438930Y-77283350D01*
X151456259Y-77293939D01*
X151487108Y-77316393D01*
X151620971Y-77413829D01*
X151647016Y-77432787D01*
X151891101Y-77561206D01*
X152151168Y-77653045D01*
X152218789Y-77666373D01*
X152417296Y-77705499D01*
X152417302Y-77705500D01*
X152421768Y-77706380D01*
X152426322Y-77706607D01*
X152426324Y-77706607D01*
X152692664Y-77719867D01*
X152692670Y-77719867D01*
X152697233Y-77720094D01*
X152971792Y-77693898D01*
X152976226Y-77692813D01*
X152976232Y-77692812D01*
X153235256Y-77629429D01*
X153239694Y-77628343D01*
X153495326Y-77524801D01*
X153499256Y-77522500D01*
X153499262Y-77522497D01*
X153729403Y-77387745D01*
X153729410Y-77387740D01*
X153733335Y-77385442D01*
X153758401Y-77365396D01*
X153945166Y-77216036D01*
X153945167Y-77216035D01*
X153948732Y-77213184D01*
X154137008Y-77011636D01*
X154294216Y-76785021D01*
X154417065Y-76538086D01*
X154502980Y-76276002D01*
X154525011Y-76149116D01*
X154549506Y-76008043D01*
X154549507Y-76008035D01*
X154550162Y-76004262D01*
X154554500Y-75917124D01*
X154554500Y-75244930D01*
X154552289Y-75214446D01*
X154539955Y-75044468D01*
X154539625Y-75039917D01*
X154498578Y-74853998D01*
X154481148Y-74775053D01*
X154481147Y-74775050D01*
X154480164Y-74770597D01*
X154382449Y-74512681D01*
X154348090Y-74450822D01*
X154250743Y-74275565D01*
X154250742Y-74275564D01*
X154248525Y-74271572D01*
X154094793Y-74070135D01*
X154083970Y-74055954D01*
X154083969Y-74055953D01*
X154081198Y-74052322D01*
X154030108Y-74002378D01*
X153887242Y-73862717D01*
X153887237Y-73862713D01*
X153883974Y-73859523D01*
X153880280Y-73856834D01*
X153664676Y-73699900D01*
X153664673Y-73699898D01*
X153660984Y-73697213D01*
X153416899Y-73568794D01*
X153156832Y-73476955D01*
X153057126Y-73457303D01*
X152890704Y-73424501D01*
X152890698Y-73424500D01*
X152886232Y-73423620D01*
X152881678Y-73423393D01*
X152881676Y-73423393D01*
X152615336Y-73410133D01*
X152615330Y-73410133D01*
X152610767Y-73409906D01*
X152336208Y-73436102D01*
X152331774Y-73437187D01*
X152331768Y-73437188D01*
X152072744Y-73500571D01*
X152068306Y-73501657D01*
X151812674Y-73605199D01*
X151808744Y-73607500D01*
X151808738Y-73607503D01*
X151578597Y-73742255D01*
X151578590Y-73742260D01*
X151574665Y-73744558D01*
X151571105Y-73747405D01*
X151464584Y-73832592D01*
X151398891Y-73859516D01*
X151329070Y-73846650D01*
X151311739Y-73836060D01*
X151306975Y-73832592D01*
X151189942Y-73747406D01*
X151124676Y-73699900D01*
X151124673Y-73699898D01*
X151120984Y-73697213D01*
X150876899Y-73568794D01*
X150616832Y-73476955D01*
X150517126Y-73457303D01*
X150350704Y-73424501D01*
X150350698Y-73424500D01*
X150346232Y-73423620D01*
X150341678Y-73423393D01*
X150341676Y-73423393D01*
X150075336Y-73410133D01*
X150075330Y-73410133D01*
X150070767Y-73409906D01*
X149796208Y-73436102D01*
X149791774Y-73437187D01*
X149791768Y-73437188D01*
X149532744Y-73500571D01*
X149528306Y-73501657D01*
X149272674Y-73605199D01*
X149268744Y-73607500D01*
X149268738Y-73607503D01*
X149038597Y-73742255D01*
X149038590Y-73742260D01*
X149034665Y-73744558D01*
X149031105Y-73747405D01*
X148924584Y-73832592D01*
X148858891Y-73859516D01*
X148789070Y-73846650D01*
X148771739Y-73836060D01*
X148766975Y-73832592D01*
X148649942Y-73747406D01*
X148584676Y-73699900D01*
X148584673Y-73699898D01*
X148580984Y-73697213D01*
X148336899Y-73568794D01*
X148076832Y-73476955D01*
X147977126Y-73457303D01*
X147810704Y-73424501D01*
X147810698Y-73424500D01*
X147806232Y-73423620D01*
X147801678Y-73423393D01*
X147801676Y-73423393D01*
X147535336Y-73410133D01*
X147535330Y-73410133D01*
X147530767Y-73409906D01*
X147256208Y-73436102D01*
X147251774Y-73437187D01*
X147251768Y-73437188D01*
X146992744Y-73500571D01*
X146988306Y-73501657D01*
X146732674Y-73605199D01*
X146728744Y-73607500D01*
X146728738Y-73607503D01*
X146498597Y-73742255D01*
X146498590Y-73742260D01*
X146494665Y-73744558D01*
X146491105Y-73747405D01*
X146384584Y-73832592D01*
X146318891Y-73859516D01*
X146249070Y-73846650D01*
X146231739Y-73836060D01*
X146226975Y-73832592D01*
X146109942Y-73747406D01*
X146044676Y-73699900D01*
X146044673Y-73699898D01*
X146040984Y-73697213D01*
X145796899Y-73568794D01*
X145536832Y-73476955D01*
X145437126Y-73457303D01*
X145270704Y-73424501D01*
X145270698Y-73424500D01*
X145266232Y-73423620D01*
X145261678Y-73423393D01*
X145261676Y-73423393D01*
X144995336Y-73410133D01*
X144995330Y-73410133D01*
X144990767Y-73409906D01*
X144716208Y-73436102D01*
X144711774Y-73437187D01*
X144711768Y-73437188D01*
X144452744Y-73500571D01*
X144448306Y-73501657D01*
X144192674Y-73605199D01*
X144188744Y-73607500D01*
X144188738Y-73607503D01*
X143958597Y-73742255D01*
X143958590Y-73742260D01*
X143954665Y-73744558D01*
X143951105Y-73747405D01*
X143844584Y-73832592D01*
X143778891Y-73859516D01*
X143709070Y-73846650D01*
X143691739Y-73836060D01*
X143686975Y-73832592D01*
X143569942Y-73747406D01*
X143504676Y-73699900D01*
X143504673Y-73699898D01*
X143500984Y-73697213D01*
X143256899Y-73568794D01*
X142996832Y-73476955D01*
X142897126Y-73457303D01*
X142730704Y-73424501D01*
X142730698Y-73424500D01*
X142726232Y-73423620D01*
X142721678Y-73423393D01*
X142721676Y-73423393D01*
X142455336Y-73410133D01*
X142455330Y-73410133D01*
X142450767Y-73409906D01*
X142176208Y-73436102D01*
X142171774Y-73437187D01*
X142171768Y-73437188D01*
X141912744Y-73500571D01*
X141908306Y-73501657D01*
X141652674Y-73605199D01*
X141648744Y-73607500D01*
X141648738Y-73607503D01*
X141418597Y-73742255D01*
X141418590Y-73742260D01*
X141414665Y-73744558D01*
X141411105Y-73747405D01*
X141304584Y-73832592D01*
X141238891Y-73859516D01*
X141169070Y-73846650D01*
X141151739Y-73836060D01*
X141146975Y-73832592D01*
X141029942Y-73747406D01*
X140964676Y-73699900D01*
X140964673Y-73699898D01*
X140960984Y-73697213D01*
X140716899Y-73568794D01*
X140456832Y-73476955D01*
X140357126Y-73457303D01*
X140190704Y-73424501D01*
X140190698Y-73424500D01*
X140186232Y-73423620D01*
X140181678Y-73423393D01*
X140181676Y-73423393D01*
X139915336Y-73410133D01*
X139915330Y-73410133D01*
X139910767Y-73409906D01*
X139636208Y-73436102D01*
X139631774Y-73437187D01*
X139631768Y-73437188D01*
X139372744Y-73500571D01*
X139368306Y-73501657D01*
X139112674Y-73605199D01*
X139108744Y-73607500D01*
X139108738Y-73607503D01*
X138878597Y-73742255D01*
X138878590Y-73742260D01*
X138874665Y-73744558D01*
X138871105Y-73747405D01*
X138681401Y-73899116D01*
X138659268Y-73916816D01*
X138656147Y-73920157D01*
X138491804Y-74096085D01*
X138430686Y-74132211D01*
X138359739Y-74129559D01*
X138319753Y-74107437D01*
X138281348Y-74075891D01*
X138273067Y-74070135D01*
X138072081Y-73953159D01*
X138062976Y-73948797D01*
X137845885Y-73865463D01*
X137836196Y-73862612D01*
X137685736Y-73831179D01*
X137671675Y-73832302D01*
X137668000Y-73842410D01*
X137668000Y-75693000D01*
X137647998Y-75761121D01*
X137594342Y-75807614D01*
X137542000Y-75819000D01*
X137286000Y-75819000D01*
X137217879Y-75798998D01*
X137171386Y-75745342D01*
X137160000Y-75693000D01*
X137160000Y-73844410D01*
X137155864Y-73830324D01*
X137142886Y-73828275D01*
X137125170Y-73830325D01*
X137115273Y-73832285D01*
X136891506Y-73895604D01*
X136882062Y-73899116D01*
X136671295Y-73997399D01*
X136662530Y-74002378D01*
X136498138Y-74114099D01*
X136430553Y-74135845D01*
X136361941Y-74117601D01*
X136327153Y-74086330D01*
X136303972Y-74055956D01*
X136303968Y-74055951D01*
X136301198Y-74052322D01*
X136250108Y-74002378D01*
X136107242Y-73862717D01*
X136107237Y-73862713D01*
X136103974Y-73859523D01*
X136100280Y-73856834D01*
X135884676Y-73699900D01*
X135884673Y-73699898D01*
X135880984Y-73697213D01*
X135636899Y-73568794D01*
X135376832Y-73476955D01*
X135277126Y-73457303D01*
X135110704Y-73424501D01*
X135110698Y-73424500D01*
X135106232Y-73423620D01*
X135101678Y-73423393D01*
X135101676Y-73423393D01*
X134835336Y-73410133D01*
X134835330Y-73410133D01*
X134830767Y-73409906D01*
X134556208Y-73436102D01*
X134551774Y-73437187D01*
X134551768Y-73437188D01*
X134292744Y-73500571D01*
X134288306Y-73501657D01*
X134032674Y-73605199D01*
X134028744Y-73607500D01*
X134028738Y-73607503D01*
X133798597Y-73742255D01*
X133798590Y-73742260D01*
X133794665Y-73744558D01*
X133791105Y-73747405D01*
X133684584Y-73832592D01*
X133618891Y-73859516D01*
X133549070Y-73846650D01*
X133531739Y-73836060D01*
X133526975Y-73832592D01*
X133409942Y-73747406D01*
X133344676Y-73699900D01*
X133344673Y-73699898D01*
X133340984Y-73697213D01*
X133096899Y-73568794D01*
X132836832Y-73476955D01*
X132737126Y-73457303D01*
X132570704Y-73424501D01*
X132570698Y-73424500D01*
X132566232Y-73423620D01*
X132561678Y-73423393D01*
X132561676Y-73423393D01*
X132295336Y-73410133D01*
X132295330Y-73410133D01*
X132290767Y-73409906D01*
X132016208Y-73436102D01*
X132011774Y-73437187D01*
X132011768Y-73437188D01*
X131752744Y-73500571D01*
X131748306Y-73501657D01*
X131492674Y-73605199D01*
X131488744Y-73607500D01*
X131488738Y-73607503D01*
X131258597Y-73742255D01*
X131258590Y-73742260D01*
X131254665Y-73744558D01*
X131251105Y-73747405D01*
X131144584Y-73832592D01*
X131078891Y-73859516D01*
X131009070Y-73846650D01*
X130991739Y-73836060D01*
X130986975Y-73832592D01*
X130869942Y-73747406D01*
X130804676Y-73699900D01*
X130804673Y-73699898D01*
X130800984Y-73697213D01*
X130556899Y-73568794D01*
X130296832Y-73476955D01*
X130197126Y-73457303D01*
X130030704Y-73424501D01*
X130030698Y-73424500D01*
X130026232Y-73423620D01*
X130021678Y-73423393D01*
X130021676Y-73423393D01*
X129755336Y-73410133D01*
X129755330Y-73410133D01*
X129750767Y-73409906D01*
X129476208Y-73436102D01*
X129471774Y-73437187D01*
X129471768Y-73437188D01*
X129212744Y-73500571D01*
X129208306Y-73501657D01*
X128952674Y-73605199D01*
X128948744Y-73607500D01*
X128948738Y-73607503D01*
X128718597Y-73742255D01*
X128718590Y-73742260D01*
X128714665Y-73744558D01*
X128711108Y-73747402D01*
X128711103Y-73747406D01*
X128706864Y-73750796D01*
X128641170Y-73777717D01*
X128571349Y-73764848D01*
X128526627Y-73726982D01*
X128503510Y-73695511D01*
X128503498Y-73695496D01*
X128501360Y-73692586D01*
X128384916Y-73567277D01*
X128273622Y-73447511D01*
X128273620Y-73447509D01*
X128271150Y-73444851D01*
X128268396Y-73442499D01*
X128268392Y-73442495D01*
X128173797Y-73361704D01*
X128013992Y-73225217D01*
X128010989Y-73223199D01*
X128010981Y-73223193D01*
X127836408Y-73105885D01*
X127733294Y-73036596D01*
X127730085Y-73034940D01*
X127730077Y-73034935D01*
X127435997Y-72883150D01*
X127435998Y-72883150D01*
X127432777Y-72881488D01*
X127116423Y-72761948D01*
X126788427Y-72679561D01*
X126647153Y-72660962D01*
X126456739Y-72635893D01*
X126456731Y-72635892D01*
X126453135Y-72635419D01*
X126312630Y-72633212D01*
X126118634Y-72630164D01*
X126118630Y-72630164D01*
X126114992Y-72630107D01*
X126111377Y-72630468D01*
X126111372Y-72630468D01*
X125872438Y-72654317D01*
X125778478Y-72663695D01*
X125448056Y-72735739D01*
X125444629Y-72736912D01*
X125444623Y-72736914D01*
X125131535Y-72844108D01*
X125131530Y-72844110D01*
X125128104Y-72845283D01*
X125124836Y-72846842D01*
X125124828Y-72846845D01*
X124969158Y-72921096D01*
X124822863Y-72990875D01*
X124536379Y-73170587D01*
X124272449Y-73382034D01*
X124269898Y-73384612D01*
X124085535Y-73570916D01*
X124034571Y-73622416D01*
X124032330Y-73625274D01*
X123858750Y-73846650D01*
X123825899Y-73888546D01*
X123649198Y-74176896D01*
X123647671Y-74180186D01*
X123647666Y-74180195D01*
X123572914Y-74341235D01*
X123506809Y-74483645D01*
X123400622Y-74804727D01*
X123332042Y-75135885D01*
X123301979Y-75472732D01*
X115107500Y-75472732D01*
X115107500Y-72434000D01*
X115127502Y-72365879D01*
X115181158Y-72319386D01*
X115233500Y-72308000D01*
X174928050Y-72308000D01*
X174996171Y-72328002D01*
G37*
%TD.AperFunction*%
%TD*%
M02*
